<svg width="100%" height="100%" viewBox="0 0 179 71" fill="none" xmlns="http://www.w3.org/2000/svg">
    <path d="M56.03 50.04H57V51.89L58.75 50.04H59.94L58.25 51.72L60.1 54.62H58.92L57.57 52.39L56.99 52.98V54.62H56.02V50.04H56.03Z" fill="#FDFBF9"/>
    <path d="M67.41 50.04H69.73C70.13 50.04 70.45 50.13 70.68 50.32C70.92 50.51 71.04 50.79 71.04 51.18C71.04 51.41 70.98 51.61 70.87 51.77C70.76 51.94 70.6 52.06 70.41 52.15V52.17C70.68 52.23 70.89 52.36 71.03 52.57C71.17 52.78 71.24 53.04 71.24 53.35C71.24 53.53 71.21 53.7 71.15 53.85C71.09 54.01 70.99 54.14 70.86 54.26C70.73 54.38 70.56 54.46 70.36 54.53C70.16 54.59 69.91 54.63 69.63 54.63H67.43V50.04H67.41ZM68.38 51.91H69.42C69.61 51.91 69.76 51.86 69.88 51.76C70 51.66 70.06 51.53 70.06 51.35C70.06 51.14 70 51 69.89 50.92C69.78 50.84 69.62 50.8 69.41 50.8H68.37V51.91H68.38ZM68.38 53.87H69.53C69.77 53.87 69.95 53.81 70.08 53.7C70.2 53.58 70.27 53.42 70.27 53.22C70.27 53.01 70.21 52.86 70.08 52.75C69.95 52.64 69.77 52.59 69.53 52.59H68.38V53.87Z" fill="#FDFBF9"/>
    <path d="M82.55 53.6002C82.55 53.7202 82.57 53.8102 82.6 53.8702C82.63 53.9202 82.69 53.9501 82.78 53.9501H82.88C82.92 53.9501 82.97 53.9402 83.02 53.9302V54.6301C82.99 54.6402 82.94 54.6602 82.89 54.6702C82.84 54.6802 82.78 54.7002 82.72 54.7102C82.66 54.7202 82.61 54.7302 82.55 54.7402C82.49 54.7502 82.45 54.7502 82.41 54.7502C82.21 54.7502 82.05 54.7101 81.92 54.6301C81.79 54.5501 81.7 54.4001 81.66 54.2001C81.47 54.4001 81.23 54.5401 80.95 54.6301C80.67 54.7201 80.4 54.7602 80.14 54.7602C79.94 54.7602 79.75 54.7302 79.57 54.6702C79.39 54.6102 79.23 54.5302 79.09 54.4202C78.95 54.3102 78.84 54.1702 78.76 54.0002C78.68 53.8302 78.64 53.6402 78.64 53.4102C78.64 53.1302 78.69 52.9002 78.79 52.7202C78.89 52.5402 79.02 52.4002 79.18 52.3002C79.34 52.2002 79.52 52.1302 79.72 52.0802C79.92 52.0402 80.12 52.0002 80.33 51.9802C80.51 51.9402 80.67 51.9202 80.83 51.9002C80.99 51.8802 81.13 51.8602 81.25 51.8202C81.37 51.7802 81.47 51.7302 81.54 51.6602C81.61 51.5902 81.65 51.4802 81.65 51.3302C81.65 51.2002 81.62 51.0902 81.56 51.0102C81.5 50.9302 81.43 50.8602 81.34 50.8202C81.25 50.7802 81.15 50.7502 81.05 50.7302C80.94 50.7202 80.84 50.7102 80.74 50.7102C80.47 50.7102 80.24 50.7702 80.07 50.8902C79.89 51.0102 79.79 51.1902 79.77 51.4402H78.8C78.82 51.1502 78.89 50.9001 79 50.7001C79.12 50.5001 79.27 50.3502 79.46 50.2302C79.64 50.1102 79.85 50.0302 80.09 49.9802C80.32 49.9302 80.56 49.9102 80.81 49.9102C81.03 49.9102 81.24 49.9302 81.45 49.9802C81.66 50.0302 81.85 50.1002 82.02 50.2102C82.19 50.3202 82.32 50.4502 82.42 50.6202C82.52 50.7902 82.57 50.9902 82.57 51.2402V53.6002H82.55ZM81.58 52.3202C81.43 52.4202 81.25 52.4802 81.04 52.5002C80.82 52.5202 80.61 52.5501 80.39 52.5901C80.29 52.6101 80.19 52.6302 80.09 52.6702C79.99 52.7002 79.91 52.7502 79.83 52.8002C79.76 52.8602 79.7 52.9301 79.66 53.0201C79.62 53.1101 79.6 53.2202 79.6 53.3502C79.6 53.4602 79.63 53.5601 79.69 53.6301C79.75 53.7101 79.83 53.7702 79.92 53.8102C80.01 53.8502 80.1 53.8902 80.21 53.9002C80.31 53.9202 80.41 53.9302 80.5 53.9302C80.61 53.9302 80.72 53.9102 80.85 53.8902C80.97 53.8602 81.09 53.8102 81.2 53.7402C81.31 53.6702 81.4 53.5802 81.48 53.4702C81.55 53.3602 81.59 53.2302 81.59 53.0702V52.3202H81.58Z" fill="#FDFBF9"/>
    <path d="M90.43 50.0399H91.35V50.6599H91.37C91.51 50.3899 91.7 50.1999 91.94 50.0899C92.18 49.9699 92.45 49.9199 92.73 49.9199C93.08 49.9199 93.38 49.9799 93.64 50.1099C93.9 50.2399 94.11 50.4099 94.28 50.6299C94.45 50.8499 94.58 51.1099 94.66 51.4099C94.75 51.6999 94.79 52.0199 94.79 52.3599C94.79 52.6699 94.75 52.9699 94.67 53.2599C94.59 53.5499 94.48 53.8099 94.32 54.0299C94.16 54.2499 93.97 54.4299 93.73 54.5599C93.49 54.6899 93.21 54.7599 92.89 54.7599C92.75 54.7599 92.61 54.7499 92.46 54.7199C92.32 54.6899 92.18 54.6499 92.05 54.5899C91.92 54.5299 91.8 54.4599 91.69 54.3599C91.58 54.2699 91.49 54.1599 91.41 54.0399H91.39V56.3299H90.42V50.0399H90.43ZM93.82 52.3299C93.82 52.1199 93.79 51.9199 93.74 51.7299C93.69 51.5399 93.61 51.3599 93.51 51.2099C93.41 51.0599 93.28 50.9399 93.13 50.8499C92.98 50.7599 92.8 50.7099 92.6 50.7099C92.19 50.7099 91.88 50.8599 91.68 51.1499C91.47 51.4499 91.37 51.8399 91.37 52.3299C91.37 52.5599 91.4 52.7699 91.45 52.9699C91.5 53.1699 91.58 53.3399 91.69 53.4799C91.8 53.6199 91.93 53.7299 92.08 53.8199C92.23 53.8999 92.4 53.9399 92.6 53.9399C92.82 53.9399 93.01 53.8899 93.16 53.7999C93.31 53.7099 93.44 53.5799 93.54 53.4299C93.64 53.2799 93.71 53.1099 93.75 52.9199C93.8 52.7299 93.82 52.5299 93.82 52.3299Z" fill="#FDFBF9"/>
    <path d="M105.92 50.79H104.46V54.62H103.49V50.79H101.98V50.04H105.92V50.79Z" fill="#FDFBF9"/>
    <path d="M117.01 53.6002C117.01 53.7202 117.03 53.8102 117.06 53.8702C117.09 53.9202 117.15 53.9501 117.24 53.9501H117.34C117.38 53.9501 117.42 53.9402 117.48 53.9302V54.6301C117.45 54.6402 117.4 54.6602 117.35 54.6702C117.3 54.6802 117.24 54.7002 117.18 54.7102C117.12 54.7202 117.07 54.7302 117.01 54.7402C116.95 54.7502 116.9 54.7502 116.86 54.7502C116.66 54.7502 116.5 54.7101 116.37 54.6301C116.24 54.5501 116.15 54.4001 116.11 54.2001C115.92 54.4001 115.68 54.5401 115.4 54.6301C115.12 54.7201 114.85 54.7602 114.59 54.7602C114.39 54.7602 114.2 54.7302 114.02 54.6702C113.84 54.6102 113.68 54.5302 113.54 54.4202C113.4 54.3102 113.29 54.1702 113.21 54.0002C113.13 53.8302 113.09 53.6402 113.09 53.4102C113.09 53.1302 113.14 52.9002 113.24 52.7202C113.34 52.5402 113.47 52.4002 113.63 52.3002C113.79 52.2002 113.97 52.1302 114.17 52.0802C114.37 52.0402 114.58 52.0002 114.78 51.9802C114.96 51.9402 115.12 51.9202 115.28 51.9002C115.44 51.8802 115.58 51.8602 115.7 51.8202C115.82 51.7802 115.92 51.7302 115.99 51.6602C116.06 51.5902 116.1 51.4802 116.1 51.3302C116.1 51.2002 116.07 51.0902 116.01 51.0102C115.95 50.9302 115.88 50.8602 115.79 50.8202C115.7 50.7802 115.6 50.7502 115.5 50.7302C115.39 50.7202 115.29 50.7102 115.19 50.7102C114.92 50.7102 114.69 50.7702 114.52 50.8902C114.34 51.0102 114.24 51.1902 114.22 51.4402H113.25C113.27 51.1502 113.34 50.9001 113.45 50.7001C113.57 50.5001 113.72 50.3502 113.91 50.2302C114.09 50.1102 114.3 50.0302 114.54 49.9802C114.77 49.9302 115.01 49.9102 115.26 49.9102C115.48 49.9102 115.69 49.9302 115.9 49.9802C116.11 50.0302 116.3 50.1002 116.47 50.2102C116.64 50.3202 116.77 50.4502 116.87 50.6202C116.97 50.7902 117.02 50.9902 117.02 51.2402V53.6002H117.01ZM116.04 52.3202C115.89 52.4202 115.71 52.4802 115.49 52.5002C115.27 52.5202 115.06 52.5501 114.84 52.5901C114.74 52.6101 114.64 52.6302 114.54 52.6702C114.44 52.7002 114.36 52.7502 114.28 52.8002C114.21 52.8602 114.15 52.9301 114.11 53.0201C114.07 53.1101 114.05 53.2202 114.05 53.3502C114.05 53.4602 114.08 53.5601 114.14 53.6301C114.2 53.7101 114.28 53.7702 114.37 53.8102C114.46 53.8502 114.55 53.8902 114.66 53.9002C114.76 53.9202 114.86 53.9302 114.95 53.9302C115.06 53.9302 115.17 53.9102 115.3 53.8902C115.42 53.8602 115.54 53.8102 115.65 53.7402C115.76 53.6702 115.85 53.5802 115.93 53.4702C116 53.3602 116.04 53.2302 116.04 53.0702V52.3202Z" fill="#FDFBF9"/>
    <path d="M124.73 53.8903C124.88 53.8903 125.02 53.8403 125.15 53.7303C125.28 53.6203 125.38 53.4703 125.44 53.2703C125.47 53.1603 125.5 53.0503 125.52 52.9403C125.54 52.8303 125.56 52.7103 125.57 52.5903C125.58 52.4703 125.59 52.3303 125.6 52.1703C125.61 52.0203 125.61 51.8403 125.62 51.6403C125.63 51.4403 125.63 51.2103 125.63 50.9503C125.63 50.6903 125.63 50.3903 125.63 50.0303H129.28V54.6103H128.31V50.7803H126.62C126.62 51.1603 126.62 51.5003 126.61 51.7903C126.6 52.0803 126.59 52.3403 126.58 52.5703C126.57 52.7903 126.55 52.9903 126.52 53.1603C126.5 53.3303 126.47 53.4803 126.43 53.6103C126.39 53.7603 126.34 53.9003 126.28 54.0203C126.22 54.1503 126.13 54.2603 126.02 54.3503C125.9 54.4403 125.75 54.5103 125.55 54.5703C125.35 54.6203 125.1 54.6503 124.78 54.6503C124.69 54.6503 124.61 54.6503 124.55 54.6503C124.49 54.6503 124.43 54.6403 124.36 54.6303V53.8703C124.42 53.8803 124.48 53.8903 124.53 53.8903C124.57 53.8903 124.64 53.8903 124.73 53.8903Z" fill="#FDFBF9"/>
    <path d="M44.33 29.9501L35.86 56.0101H8.47L0 29.9501L22.17 13.8501L44.33 29.9501Z" fill="#A78974"/>
    <path d="M41.81 47.7699L18.98 59.3999L0.859985 41.2799L12.49 18.4399L37.81 22.4499L41.81 47.7699Z" fill="url(#paint0_radial)"/>
    <path d="M29.05 55.98L9.09998 49.5V28.52L29.06 22.04L41.39 39.01L29.05 55.98Z" fill="url(#paint1_linear)"/>
    <path d="M16.38 49.9099L8.64001 34.6999L20.71 22.6299L35.92 30.3799L33.24 47.2399L16.38 49.9099Z" fill="url(#paint2_linear)"/>
    <path d="M14.6 39.9401L18.2 28.8701H29.84L33.44 39.9401L24.02 46.7801L14.6 39.9401Z" fill="url(#paint3_linear)"/>
    <path d="M66.69 45.3499H62.88V37.1499H59.84V45.3499H56.03V27.4199H59.84V33.9399H62.88V27.4199H66.69V45.3499Z" fill="#FDFBF9"/>
    <path d="M79.87 45.3497H76.06V41.8997H72.94V45.3497H69.13V41.8997C69.13 35.3197 70.33 30.4897 72.73 27.4097H76.23C78.65 30.6197 79.86 35.4497 79.86 41.8997V45.3497H79.87ZM76.07 38.9097C76.07 35.9097 75.55 32.9997 74.51 30.1697C73.47 32.9997 72.95 35.9097 72.95 38.9097H76.07Z" fill="#FDFBF9"/>
    <path d="M93.21 45.3498H89.4V39.3198C88.53 41.5198 87.37 43.5298 85.91 45.3498H82.32V27.4198H86.13V40.5298C87.53 38.7298 88.47 36.6398 88.93 34.2698C89.24 32.6698 89.4 30.3898 89.4 27.4198H93.21V45.3498ZM91.11 24.0198C90.75 25.8298 89.64 26.7298 87.76 26.7298C85.89 26.7298 84.77 25.8298 84.41 24.0198L86.07 23.5898C86.17 24.4398 86.55 24.9398 87.19 25.0698C87.36 25.0998 87.55 25.1198 87.75 25.1198C88.41 25.1198 88.85 24.9498 89.07 24.5998C89.28 24.2498 89.41 23.9098 89.44 23.5898L91.11 24.0198Z" fill="#FDFBF9"/>
    <path d="M106.83 27.9299C106.83 30.6599 105.82 33.0599 103.79 35.1399C105.05 36.4399 105.9 38.0299 106.35 39.9199C106.67 41.2299 106.84 43.0499 106.84 45.3599H103.03C103.03 43.4499 102.96 42.0199 102.83 41.0699C102.59 39.4899 102.11 38.1599 101.37 37.0799C100.79 37.4599 100.3 37.7399 99.89 37.9199V45.3599H96.13V27.4199H99.88V35.0299C101.98 33.4099 103.02 30.8699 103.02 27.4199H106.83C106.83 27.4699 106.83 27.5599 106.83 27.6799C106.83 27.7899 106.83 27.8799 106.83 27.9299Z" fill="#FDFBF9"/>
    <path d="M120.27 33.8799C120.27 38.2899 118.57 40.4999 115.16 40.4999C114.48 40.4999 113.81 40.4499 113.14 40.3499V45.3599H109.38V27.4199H114.39C116.57 27.4199 118.11 27.9699 119.02 29.0599C119.85 30.0399 120.27 31.6499 120.27 33.8799ZM116.46 33.9299C116.46 32.8699 116.34 32.1299 116.1 31.6799C115.76 31.0799 115.1 30.7899 114.14 30.7899H113.14V37.1499C113.66 37.2399 114.17 37.2799 114.69 37.2799C115.5 37.2799 116.02 36.8899 116.26 36.0999C116.39 35.6999 116.46 34.9699 116.46 33.9299Z" fill="#FDFBF9"/>
    <path d="M132.07 45.3497H128.26V41.8997H125.14V45.3497H121.33V41.8997C121.33 35.3197 122.53 30.4897 124.93 27.4097H128.43C130.85 30.6197 132.06 35.4497 132.06 41.8997V45.3497H132.07ZM128.27 38.9097C128.27 35.9097 127.75 32.9997 126.71 30.1697C125.67 32.9997 125.15 35.9097 125.15 38.9097H128.27Z" fill="#FDFBF9"/>
    <path d="M152.62 48.4199H149.25V45.3499H134.61V27.4199H138.44V42.0399H140.97V27.4199H144.65V42.0399H147.18V27.4199H151.01V42.0399H152.62V48.4199Z" fill="#FDFBF9"/>
    <path d="M164.96 45.3499H161.15V39.3199C160.28 41.5199 159.12 43.5299 157.66 45.3499H154.07V27.4199H157.88V40.5299C159.28 38.7299 160.22 36.6399 160.68 34.2699C160.99 32.6699 161.15 30.3899 161.15 27.4199H164.96V45.3499Z" fill="#FDFBF9"/>
    <path d="M178.76 45.3498H174.95V39.3198C174.08 41.5198 172.92 43.5298 171.46 45.3498H167.87V27.4198H171.68V40.5298C173.08 38.7298 174.02 36.6398 174.48 34.2698C174.79 32.6698 174.95 30.3898 174.95 27.4198H178.76V45.3498ZM176.66 24.0198C176.3 25.8298 175.19 26.7298 173.31 26.7298C171.44 26.7298 170.32 25.8298 169.96 24.0198L171.62 23.5898C171.72 24.4398 172.1 24.9398 172.74 25.0698C172.91 25.0998 173.1 25.1198 173.3 25.1198C173.96 25.1198 174.4 24.9498 174.62 24.5998C174.83 24.2498 174.96 23.9098 174.99 23.5898L176.66 24.0198Z" fill="#FDFBF9"/>
    <path d="M143.23 21.51C143.34 20.6 143.49 19.68 143.7 18.78C144.19 16.68 144.99 14.79 146.09 13.12C147.2 11.45 148.61 10.1 150.34 9.06C152.06 8.03 154.13 7.51 156.54 7.51C158.36 7.51 160.09 7.81 161.72 8.41C163.35 9.01 164.76 9.88 165.97 11.01C167.17 12.15 168.13 13.5 168.85 15.07C169.57 16.64 169.92 18.39 169.92 20.33C169.92 20.74 169.89 21.12 169.87 21.51H178.67C178.68 21.15 178.71 20.8 178.71 20.43C178.71 17.09 178.14 14.16 177 11.62C175.86 9.08 174.31 6.96 172.36 5.26C170.41 3.56 168.11 2.26 165.47 1.35C162.83 0.45 160.01 0 157.02 0C153.37 0 150.12 0.64 147.25 1.9C144.38 3.17 141.99 4.92 140.07 7.16C138.15 9.4 136.73 12.05 135.82 15.12C135.22 17.13 134.89 19.27 134.77 21.51H143.23Z" fill="#FF7836"/>
    <path d="M144.97 57.6298C146.24 55.9298 147.77 54.3398 149.56 52.8698C150.53 52.0798 151.55 51.3098 152.62 50.5698H141C140.43 51.1798 139.88 51.8098 139.35 52.4698C137.59 54.6698 136.14 57.2598 135 60.2298C133.86 63.1998 133.13 66.7898 132.8 70.9998H178.04V63.4898H142.48C142.87 61.2898 143.7 59.3298 144.97 57.6298Z" fill="#FF7836"/>
    <defs>
    <radialGradient id="paint0_radial" cx="0" cy="0" r="1" gradientUnits="userSpaceOnUse" gradientTransform="translate(22.2904 37.3161) rotate(17.5543) scale(22.3553 21.7833)">
    <stop offset="0.1679" stop-color="#EA5130"/>
    <stop offset="0.25" stop-color="#F25F1E"/>
    <stop offset="0.3612" stop-color="#F96C0D"/>
    <stop offset="0.4829" stop-color="#FE7403"/>
    <stop offset="0.6336" stop-color="#FF7700"/>
    <stop offset="0.7122" stop-color="#E88129"/>
    <stop offset="0.7975" stop-color="#D48B4F"/>
    <stop offset="0.8766" stop-color="#C5916A"/>
    <stop offset="0.9466" stop-color="#BC967A"/>
    <stop offset="1" stop-color="#B99780"/>
    </radialGradient>
    <linearGradient id="paint1_linear" x1="31.3227" y1="62.489" x2="21.0563" y2="31.6897" gradientUnits="userSpaceOnUse">
    <stop stop-color="#EA5130"/>
    <stop offset="0.4808" stop-color="#FF7700"/>
    <stop offset="1" stop-color="#FFA400"/>
    </linearGradient>
    <linearGradient id="paint2_linear" x1="39.0504" y1="52.6182" x2="20.4255" y2="34.614" gradientUnits="userSpaceOnUse">
    <stop stop-color="#EA5130"/>
    <stop offset="0.4444" stop-color="#FF7700"/>
    <stop offset="1" stop-color="#FFB000"/>
    </linearGradient>
    <linearGradient id="paint3_linear" x1="39.9988" y1="51.5047" x2="19.7616" y2="32.0359" gradientUnits="userSpaceOnUse">
    <stop offset="0.2657" stop-color="#FF7700"/>
    <stop offset="0.8559" stop-color="#FFBA00"/>
    </linearGradient>
    </defs>
</svg>
