<svg xmlns="http://www.w3.org/2000/svg" xmlns:xlink="http://www.w3.org/1999/xlink" width="100%" height="100%" version="1.1" viewBox="0 0 423.33 264.58">
 <g transform="translate(96.762 -23.345)">
  <image x="-96.762" y="23.345" width="423.33" height="264.58" preserveAspectRatio="none" xlink:href="./assets/images/build-plan/render.jpg"/>




  	<g class="section-group">  
  		 <path d="m165.56 166.99 1.3364-23.52-1.0691-0.53454 0.13363-4.009 1.0691 0.4009 0.53454-12.562 3.3409-1.7372-1.3364-0.53454 2.5391-1.47 0.26726-4.009 6.6817-3.3409 1.47 0.53453-0.13364 1.2027 2.539 0.8018 6.1472-2.6727-0.13361-4.2763 12.161-5.479 1.3364 0.13364-0.13364 1.2027 2.4054 1.0691 4.8108-2.0045 0.4009-4.1427 5.8799-2.8063 1.2027 0.13364v1.47l2.4054 0.53454 4.8108-2.2718 2.4054 0.80181 6.1472-3.2072 18.976 4.8109 0.13364 1.3364 9.4881 2.8063-6.0136 46.371-21.916 14.7-3.7418-1.0691-1.0691 0.80181v2.94l-2.4054 1.2027-2.5391-1.47-0.4009 3.8754-2.2718 1.47-1.2027-0.53454-8.9535 1.8709-5.7463 4.009-3.8754-1.47-2.2718 0.53454-3.8754-2.94-5.8799 1.7373-8.5526-5.8799-4.6772 2.6727-5.7463-2.2718v-1.2027l0.66818-0.40091-3.6082-4.2763z" fill="none" stroke="#000"  class="section-stroke"/>
	  <g transform="matrix(.26458 0 0 .26458 212.74 106.99)" fill="none">
	   <rect width="134" height="37" class="section-subtitle"/>
	   <text width="134" height="37" class="section-subtitle-text">36 квартир</text>
	  </g>
	  <g transform="matrix(.26458 0 0 .26458 203.06 102.89)" fill="none">
	   <path d="m37.247 5.3545-30.983 14.691 3.9928 33.631 33.847 6.71 16.521-29.564z" class="section-title"/>
	  </g>
	  <text class="section-short-text" x="207.04" y="108.39" width="8.41" height="6.8981">c7</text>
  	</g>
     <g class="section-group">  
     	<path d="m261.38 105.65-4.2763-1.47-5.2118-1.3364-0.13364-1.3364-7.585-2.1896 5.2917-34.018 4.1577-5.6696 11.717 1.0394 0.66146-1.7954 8.221 0.85045 0.80319 1.9608 18.427 1.736 0.80182-2.0045 11.092 1.0691-0.26726 2.5391 5.7463 6.8154-11.092 60.002-16.838-0.80181 2.2718-12.963-24.856-3.2072z" fill="none" stroke="#000"  class="section-stroke"/>
		  <g transform="matrix(.26458 0 0 .26458 275.06 65.24)" fill="none">
		   <rect width="134" height="37" class="section-subtitle"/>
		   <text width="134" height="37" class="section-subtitle-text">36 квартир</text>
		  </g>
		  <g transform="matrix(.26458 0 0 .26458 265.38 61.139)" fill="none">
		   <path d="m37.247 5.3545-30.983 14.691 3.9928 33.631 33.847 6.71 16.521-29.564z" class="section-title"/>
		  </g>
		  <text  class="section-short-text" x="269.36" y="66.643" width="8.41" height="6.8981">c6</text>
	</g>

  
 
   <g class="section-group">  
   	  <path d="m244.17 99.318 5.2917-34.018 3.0951-4.2839-14.7-1.6036 0.4009-3.3409-12.562-1.47-0.26726 0.4009-7.2163-0.66817-0.66818 2.1382-13.497-1.6036 0.8018-1.3363-8.5526-0.93544 0.13362-0.66817-12.027-1.0691v1.7373l-1.7373 1.6036-13.764-1.47-6.8154 4.6772-1.6036 36.349 52.251 6.6817 3.0736-1.2027 1.2027 0.13364v1.47l2.4054 0.53454 4.8108-2.2718 2.4054 0.80181 6.1472-3.2072z" fill="none" stroke="#000"  class="section-stroke"/>
	  <g transform="matrix(.26458 0 0 .26458 185.85 52.767)" fill="none">
	   <rect width="134" height="37" class="section-subtitle"/>
	   <text width="134" height="37" class="section-subtitle-text">36 квартир</text>
	  </g>
	  <g transform="matrix(-.26458 0 0 -.26458 192.29 66.589)" fill="none">
	   <path d="m37.247 5.3545-30.983 14.691 3.9928 33.631 33.847 6.71 16.521-29.564z" class="section-title"/>
	  </g>
	    <text class="section-short-text" x="180.15" y="54.17" > c5</text>
  </g>

<g class="compass" style="transform: scale(0.4) translate(-51%, 26%);">

	<path d="M70.2641 58.9588C70.2649 58.8686 70.1989 58.7909 70.1102 58.777L67.4385 58.3511C67.2897 52.776 64.9962 47.7595 61.3451 44.0938C61.3371 44.0791 61.3371 44.063 61.3261 44.0513C61.3151 44.0395 61.2982 44.0395 61.2836 44.0322C57.6179 40.3812 52.6013 38.0869 47.0262 37.9382L46.6004 35.2679C46.5857 35.1785 46.5095 35.1132 46.4193 35.1132C46.3292 35.1132 46.2522 35.1792 46.2383 35.2686L45.8234 37.9411C40.2798 38.1089 35.2919 40.3981 31.643 44.0315C31.6291 44.0403 31.6123 44.0395 31.6005 44.0513C31.5888 44.063 31.5888 44.0799 31.5807 44.0938C27.9305 47.7602 25.6362 52.7767 25.4874 58.3511L22.8171 58.777C22.7277 58.7916 22.6625 58.8686 22.6632 58.9588C22.6639 59.0489 22.7292 59.1259 22.8186 59.1391L25.4911 59.5532C25.6589 65.0968 27.9473 70.0833 31.58 73.7321C31.5881 73.7468 31.5881 73.7636 31.5998 73.7761C31.6108 73.7871 31.6269 73.7849 31.6394 73.7922C35.286 77.4249 40.2703 79.7133 45.811 79.8848L46.2375 82.6467C46.2515 82.7361 46.3284 82.8021 46.4186 82.8021C46.5088 82.8021 46.5857 82.7361 46.5996 82.6475L47.038 79.8885C52.6101 79.736 57.6223 77.4418 61.2858 73.793C61.299 73.7849 61.3144 73.7871 61.3261 73.7768C61.3378 73.7644 61.3378 73.7475 61.3459 73.7329C64.9786 70.084 67.2662 65.0975 67.4348 59.554L70.1073 59.1398C70.1982 59.1259 70.2634 59.0489 70.2641 58.9588ZM45.7662 38.3112L44.7862 44.6281C41.995 44.9558 39.3907 46.0765 37.2335 47.8811L32.0293 44.17C35.5887 40.6861 40.4103 38.4908 45.7662 38.3112ZM34.1506 53.6446L38.7787 54.4531L39.9104 56.051L37.9064 56.3713L34.1506 53.6446ZM37.3948 56.4519L32.5497 57.2245C32.7015 55.974 33.0174 54.7639 33.4858 53.6153L37.3948 56.4519ZM33.6676 53.1887C34.1755 52.0548 34.8352 50.989 35.6371 50.0149L38.4789 54.0287L33.6676 53.1887ZM33.1501 45.8691L42.8116 55.5885L40.3143 55.9865L33.1501 45.8691ZM33.3854 45.5861L43.516 52.8112L43.118 55.3767L33.3854 45.5861ZM37.5443 48.1032C38.5207 47.2969 39.5886 46.635 40.7248 46.1249L41.5875 50.9868L37.5443 48.1032ZM42.0141 51.2903L41.1983 46.6922L43.8905 50.4033L43.5797 52.4073L42.0141 51.2903ZM41.1154 45.9556C42.264 45.4821 43.4757 45.1632 44.7276 45.0071L43.9697 49.8895L41.1154 45.9556ZM31.7185 44.4815L35.4157 49.7026C33.6104 51.8678 32.4904 54.4824 32.1715 57.2854L25.8583 58.2925C26.0188 52.9058 28.2193 48.0563 31.7185 44.4815ZM43.1297 55.9081L45.9795 58.7748H25.1568L43.1297 55.9081ZM25.225 59.1413H45.9773L43.1898 61.9288L25.225 59.1413ZM41.1975 71.2231L42.0258 66.5547L41.9965 66.5496L43.5768 65.4222L43.8979 67.501L41.1975 71.2231ZM43.9777 68.0148L44.7203 72.8188C43.4888 72.6656 42.297 72.3534 41.1653 71.8916L43.9777 68.0148ZM40.7394 71.7098C39.5974 71.1997 38.5251 70.5341 37.5443 69.7249L41.6058 66.8288L40.7394 71.7098ZM33.4176 72.2185L43.1275 62.5094L43.5152 65.0176L33.4176 72.2185ZM33.4872 64.2143C33.024 63.0796 32.711 61.8841 32.5571 60.6505L37.4593 61.4106L33.4872 64.2143ZM37.9804 61.4912L39.9558 61.7976L38.7691 63.4615L34.1506 64.1945L37.9804 61.4912ZM38.4708 63.88L35.6517 67.8323C34.844 66.8538 34.1799 65.7821 33.669 64.6416L38.4708 63.88ZM40.3619 61.8607L42.8687 62.2491L33.1611 71.9568L40.3619 61.8607ZM25.8612 59.6111L32.1781 60.5919C32.5058 63.3831 33.6265 65.9866 35.4304 68.1431L31.7193 73.3473C28.2361 69.7879 26.0408 64.9671 25.8612 59.6111ZM32.0301 73.6574L37.2335 69.9462C39.3885 71.7487 41.9906 72.8687 44.7782 73.1978L45.7545 79.5154C40.403 79.3329 35.5858 77.1383 32.0301 73.6574ZM46.2361 80.2323L43.4485 62.1883L46.2361 59.4008V80.2323ZM46.2361 58.5138L43.439 55.6999L44.2731 50.3242L44.2812 50.3183L44.2753 50.3102L46.2361 37.6721V58.5138ZM67.069 58.2917L60.7558 57.2846C60.4362 54.4831 59.317 51.8678 57.5116 49.7026L61.2088 44.4808C64.7088 48.0563 66.9085 52.9058 67.069 58.2917ZM51.7298 46.6922L50.925 51.2287L49.3264 52.3604L49.0185 50.4283L51.7298 46.6922ZM48.9371 49.9174L48.1536 45.0005C49.4209 45.1537 50.6487 45.4755 51.8119 45.9556L48.9371 49.9174ZM52.2026 46.1242C53.3314 46.6306 54.392 47.2889 55.3632 48.0871L51.3501 50.9274L52.2026 46.1242ZM59.5413 45.5773L49.7984 55.3195L49.3909 52.7643L59.5413 45.5773ZM59.7978 45.839L52.6131 55.9865L50.0586 55.5782L59.7978 45.839ZM57.291 50.0149C58.0929 50.9897 58.7526 52.0548 59.2605 53.1887L54.4499 54.0287L57.291 50.0149ZM54.1487 54.4531L58.7599 53.6475L54.9506 56.3581L53.0169 56.0503L54.1487 54.4531ZM59.4408 53.6138C59.91 54.7617 60.2251 55.9733 60.3769 57.2245L55.4673 56.4417L59.4408 53.6138ZM60.8966 44.1685L55.6748 47.8657C53.5088 46.0604 50.8942 44.9404 48.092 44.6208L47.0849 38.3076C52.4716 38.4688 57.3218 40.6693 60.8966 44.1685ZM46.6026 37.6083L49.4781 55.6398L46.6026 58.516V37.6083ZM46.6026 80.296V59.3986L49.4686 62.2477L46.6026 80.296ZM58.7599 64.1916L54.1575 63.4615L52.9715 61.7976L54.8765 61.5022L58.7599 64.1916ZM55.4006 61.4209L60.3703 60.6498C60.2156 61.8848 59.9026 63.0804 59.4386 64.2157L55.4006 61.4209ZM59.2583 64.6416C58.7474 65.7821 58.0826 66.8538 57.2756 67.8323L54.4565 63.88L59.2583 64.6416ZM59.7897 71.9883L50 62.2587L52.5654 61.8607L59.7897 71.9883ZM59.5075 72.2266L49.3931 65.0645L49.7896 62.5658L59.5075 72.2266ZM51.7621 71.8916C50.6164 72.3592 49.4077 72.6737 48.1609 72.8254L48.9298 67.9855L51.7621 71.8916ZM49.0104 67.4739L49.3293 65.4684L50.9074 66.5855L51.7298 71.2224L49.0104 67.4739ZM51.3333 66.8868L55.3632 69.7403C54.3884 70.5422 53.3226 71.2019 52.1879 71.7098L51.3333 66.8868ZM47.0973 79.5183L48.1001 73.2051C50.8979 72.8848 53.5102 71.7655 55.6748 69.9616L60.8958 73.6588C57.324 77.1552 52.4789 79.3541 47.0973 79.5183ZM61.2081 73.3466L57.497 68.1424C59.3008 65.9859 60.4216 63.3816 60.7492 60.5911L67.0668 59.6104C66.8865 64.9671 64.6912 69.7879 61.2081 73.3466ZM49.6782 61.9384L46.8643 59.142H67.7023L49.6782 61.9384ZM46.8621 58.7748L49.7383 55.8985L67.7712 58.7748H46.8621Z" fill="#004445"/>
	<path d="M46.4655 85.3527C46.8825 85.3527 47.2205 85.0147 47.2205 84.5977C47.2205 84.1808 46.8825 83.8428 46.4655 83.8428C46.0486 83.8428 45.7106 84.1808 45.7106 84.5977C45.7106 85.0147 46.0486 85.3527 46.4655 85.3527Z" fill="#004445"/>
	<path d="M46.4648 33.8955C46.8814 33.8955 47.2191 33.5578 47.2191 33.1413C47.2191 32.7247 46.8814 32.387 46.4648 32.387C46.0483 32.387 45.7106 32.7247 45.7106 33.1413C45.7106 33.5578 46.0483 33.8955 46.4648 33.8955Z" fill="#004445"/>
	<path d="M72.2351 59.668C72.6521 59.668 72.9901 59.33 72.9901 58.9131C72.9901 58.4961 72.6521 58.1581 72.2351 58.1581C71.8182 58.1581 71.4802 58.4961 71.4802 58.9131C71.4802 59.33 71.8182 59.668 72.2351 59.668Z" fill="#004445"/>
	<path d="M20.7794 59.668C21.1964 59.668 21.5344 59.33 21.5344 58.9131C21.5344 58.4961 21.1964 58.1581 20.7794 58.1581C20.3624 58.1581 20.0244 58.4961 20.0244 58.9131C20.0244 59.33 20.3624 59.668 20.7794 59.668Z" fill="#004445"/>
	<path d="M28.3441 77.8746C28.7606 77.8746 29.0983 77.5369 29.0983 77.1203C29.0983 76.7038 28.7606 76.3661 28.3441 76.3661C27.9275 76.3661 27.5898 76.7038 27.5898 77.1203C27.5898 77.5369 27.9275 77.8746 28.3441 77.8746Z" fill="#004445"/>
	<path d="M64.672 41.4606C65.089 41.4606 65.427 41.1226 65.427 40.7056C65.427 40.2886 65.089 39.9506 64.672 39.9506C64.2551 39.9506 63.9171 40.2886 63.9171 40.7056C63.9171 41.1226 64.2551 41.4606 64.672 41.4606Z" fill="#004445"/>
	<path d="M64.6713 77.8746C65.0879 77.8746 65.4255 77.5369 65.4255 77.1203C65.4255 76.7038 65.0879 76.3661 64.6713 76.3661C64.2547 76.3661 63.9171 76.7038 63.9171 77.1203C63.9171 77.5369 64.2547 77.8746 64.6713 77.8746Z" fill="#004445"/>
	<path d="M28.3424 41.4606C28.7593 41.4606 29.0974 41.1226 29.0974 40.7056C29.0974 40.2886 28.7593 39.9506 28.3424 39.9506C27.9254 39.9506 27.5874 40.2886 27.5874 40.7056C27.5874 41.1226 27.9254 41.4606 28.3424 41.4606Z" fill="#004445"/>
	<path d="M36.4368 83.0651C36.708 83.0651 36.9279 82.8452 36.9279 82.574C36.9279 82.3028 36.708 82.0829 36.4368 82.0829C36.1656 82.0829 35.9457 82.3028 35.9457 82.574C35.9457 82.8452 36.1656 83.0651 36.4368 83.0651Z" fill="#004445"/>
	<path d="M22.8033 69.4317C23.0745 69.4317 23.2944 69.2118 23.2944 68.9406C23.2944 68.6693 23.0745 68.4495 22.8033 68.4495C22.5321 68.4495 22.3122 68.6693 22.3122 68.9406C22.3122 69.2118 22.5321 69.4317 22.8033 69.4317Z" fill="#004445"/>
	<path d="M36.4368 35.7434C36.708 35.7434 36.9279 35.5236 36.9279 35.2523C36.9279 34.9811 36.708 34.7612 36.4368 34.7612C36.1656 34.7612 35.9457 34.9811 35.9457 35.2523C35.9457 35.5236 36.1656 35.7434 36.4368 35.7434Z" fill="#004445"/>
	<path d="M22.8033 49.2889C23.0745 49.2889 23.2944 49.069 23.2944 48.7978C23.2944 48.5266 23.0745 48.3067 22.8033 48.3067C22.5321 48.3067 22.3122 48.5266 22.3122 48.7978C22.3122 49.069 22.5321 49.2889 22.8033 49.2889Z" fill="#004445"/>
	<path d="M56.5777 83.0651C56.8489 83.0651 57.0688 82.8452 57.0688 82.574C57.0688 82.3028 56.8489 82.0829 56.5777 82.0829C56.3065 82.0829 56.0866 82.3028 56.0866 82.574C56.0866 82.8452 56.3065 83.0651 56.5777 83.0651Z" fill="#004445"/>
	<path d="M70.2113 69.4317C70.4825 69.4317 70.7024 69.2118 70.7024 68.9406C70.7024 68.6693 70.4825 68.4495 70.2113 68.4495C69.94 68.4495 69.7202 68.6693 69.7202 68.9406C69.7202 69.2118 69.94 69.4317 70.2113 69.4317Z" fill="#004445"/>
	<path d="M56.5777 35.7434C56.8489 35.7434 57.0688 35.5236 57.0688 35.2523C57.0688 34.9811 56.8489 34.7612 56.5777 34.7612C56.3065 34.7612 56.0866 34.9811 56.0866 35.2523C56.0866 35.5236 56.3065 35.7434 56.5777 35.7434Z" fill="#004445"/>
	<path d="M70.2113 49.2889C70.4825 49.2889 70.7024 49.069 70.7024 48.7978C70.7024 48.5266 70.4825 48.3067 70.2113 48.3067C69.94 48.3067 69.7202 48.5266 69.7202 48.7978C69.7202 49.069 69.94 49.2889 70.2113 49.2889Z" fill="#004445"/>
	<path d="M39.8506 24H41.0082V16.7508H45.194V24H46.3516V15.7452H39.8506V24ZM48.2495 24H49.3837V21.4628H52.3769V24H53.5111V18.0837H52.3769V20.4923H49.3837V18.0837H48.2495V24Z" fill="#004445"/>
	<path d="M39.8506 100.036H41.0082V92.7864H45.194V100.036H46.3516V91.7809H39.8506V100.036ZM49.3957 99.1003C50.144 97.931 50.2375 96.2473 50.2375 95.3587V95.043H52.0147V99.1003H49.3957ZM47.5015 99.1003V101.439H48.5655V100.036H52.9501V101.439H53.9907V99.1003H53.1489V94.1193H49.1501V95.2067C49.1501 96.1187 49.0566 97.9661 48.2264 99.1003H47.5015Z" fill="#004445"/>
	<path d="M0.315692 60.2902C0.958769 61.0034 1.99938 61.4126 2.99323 61.4126C4.54831 61.4126 5.79938 60.4656 5.79938 58.9339C5.79938 57.9166 5.21477 57.2034 4.34954 56.9579V56.9345C4.93415 56.6422 5.54215 56.081 5.54215 55.0754C5.54215 53.6957 4.47815 52.8773 3.06338 52.8773C2.36185 52.8773 1.43815 53.0059 0.561231 53.7308L1.05231 54.596C1.66031 54.0816 2.31508 53.8945 2.89969 53.8945C3.91692 53.8945 4.36123 54.5025 4.36123 55.2157C4.36123 55.9991 3.70646 56.5486 2.87631 56.5486H2.05785V57.5074H3.07508C3.97538 57.5074 4.61846 58.0102 4.61846 58.8754C4.61846 59.8108 3.90523 60.372 2.89969 60.372C2.128 60.372 1.39138 59.9745 0.958769 59.5068L0.315692 60.2902ZM6.47882 61.2723H7.76497L9.00436 59.2963C9.09789 59.156 9.17974 58.9806 9.17974 58.9806H9.20312C9.20312 58.9806 9.29666 59.156 9.3902 59.2963L10.6296 61.2723H11.9157L9.89297 58.2323L11.7988 55.356H10.501L9.40189 57.1566C9.32005 57.3086 9.20312 57.5074 9.20312 57.5074H9.17974C9.17974 57.5074 9.07451 57.3086 8.99266 57.1566L7.89359 55.356H6.59574L8.50159 58.2323L6.47882 61.2723Z" fill="#004445"/>
	<path d="M80.6757 57.0982C80.6757 59.5185 82.3477 61.4126 84.9083 61.4126C86.3698 61.4126 87.3988 60.8046 88.1003 60.1031L87.4806 59.273C86.8141 59.9394 85.8671 60.3486 84.9434 60.3486C83.0258 60.3486 81.8683 58.8403 81.8683 57.0865C81.8683 55.3443 83.0024 53.9296 84.92 53.9296C85.7735 53.9296 86.6972 54.292 87.3052 54.8299L87.8898 53.9646C87.0948 53.2046 85.9372 52.8773 84.8732 52.8773C82.4178 52.8773 80.6757 54.7013 80.6757 57.0982ZM88.6708 61.2723H89.957L91.1964 59.2963C91.2899 59.156 91.3718 58.9806 91.3718 58.9806H91.3952C91.3952 58.9806 91.4887 59.156 91.5822 59.2963L92.8216 61.2723H94.1078L92.085 58.2323L93.9908 55.356H92.693L91.5939 57.1566C91.5121 57.3086 91.3952 57.5074 91.3952 57.5074H91.3718C91.3718 57.5074 91.2665 57.3086 91.1847 57.1566L90.0856 55.356H88.7878L90.6936 58.2323L88.6708 61.2723Z" fill="#004445"/>


</g>



  <g class="section-group">  
  	  <path d="m98.463 59.064 6.4256-3.2128h1.1339v0.94494l1.8899 0.75595 1.1339-0.7087-0.18898-2.8821 3.1656-2.1734 1.2757 0.09449 0.14174 1.3229h1.1812l12.851-7.276 9.3926 0.42101 0.0334 2.1047 16.404 1.3363 0.56795-0.3675 0.0668-1.1025 6.325 0.53719 1.2284 0.09449 0.18899 1.6064 9.1659 0.75596-8.7566 6.0931-1.6036 36.349-16.571-2.4708-13.985 10.489 0.18899-37.798-30.616-3.7798z" fill="none" stroke="#000"  class="section-stroke"/>
  <g transform="matrix(.26458 0 0 .26458 124.76 44.527)" fill="none">
   <rect width="134" height="37" class="section-subtitle"/>
   <text width="134" height="37" class="section-subtitle-text">36 квартир</text>
  </g>
  <g transform="matrix(0 -.26458 .26458 0 114.18 57.442)" fill="none">
   <path d="m37.247 5.3545-30.983 14.691 3.9928 33.631 33.847 6.71 16.521-29.564z" class="section-title"/>
  </g>
  <g transform="matrix(0 -.26458 .26458 0 114.18 57.442)" fill="none">
   <path d="m37.247 5.3545-30.983 14.691 3.9928 33.631 33.847 6.71 16.521-29.564z" class="section-title"/>
  </g>
   <text  class="section-short-text" x="119.06" y="45.929" >c4</text>
</g>

 <g class="section-group">  
 	 <path d="m87.253 87.877-25.925-3.8754 1.0691-0.66817-0.26727-2.0045 4.4099-2.5391 0.13363-4.009 4.8109-2.2718 1.0691 0.4009-0.13364 1.3363 2.2718 0.26727 5.2118-2.94-0.66817-0.53454 4.6772-2.2718-0.13364-2.5391 4.4099-2.1382 0.93544 0.4009v1.0691l2.1382 0.4009 7.0158-3.8754 0.18476-3.0218 1.0394 1.1339 30.616 3.7798-0.18899 37.798-40.805 31.805z" fill="none" stroke="#000"  class="section-stroke"/>
 	  <g transform="matrix(.26458 0 0 .26458 83.776 65.187)" fill="none">
   <rect width="134" height="37" class="section-subtitle"/>
   <text width="134" height="37" class="section-subtitle-text">36 квартир</text>
  </g>
  <g transform="matrix(.26458 0 0 .26458 74.1 61.086)" fill="none">
   <path d="m37.247 5.3545-30.983 14.691 3.9928 33.631 33.847 6.71 16.521-29.564z" class="section-title"/>
  </g>
   <text  class="section-short-text" x="78.076" y="66.59" >c3</text>
</g>
	 <g class="section-group"> 
	 	<path d="m36.097 180.96-4.7247-54.807-36.664-7.1816 3.5908-2.2679v-2.8348l8.6935-3.9688-0.37798-3.9688 6.9926-3.9688 1.8899 0.37798-0.37798 1.8899 2.0789 0.18899 7.1815-3.5908-0.18899-1.5119 8.3155-4.1577-0.18899-2.8348 5.6696-3.0238 1.7009 0.75595v1.3229l2.2679 0.18899 10.205-5.6696 2.8348 0.94494 6.3325-2.8433 25.925 3.8754 1.8709 45.703z" fill="none" stroke="#000"  class="section-stroke"/>
	  <g transform="matrix(.26458 0 0 .26458 32.224 90.881)" fill="none">
	   <rect width="134" height="37" class="section-subtitle"/>
	   <text width="134" height="37" class="section-subtitle-text">36 квартир</text>
	  </g>
	  <g transform="matrix(0 .26458 -.26458 0 40.094 87.687)" fill="none">
	   <path d="m37.247 5.3545-30.983 14.691 3.9928 33.631 33.847 6.71 16.521-29.564z" class="section-title"/>
	  </g>
	   <text  class="section-short-text" x="26.524" y="92.284" >c2</text>
  </g>
  <g class="section-group">
	 <path d="m-25.134 225.92-40.892-13.631-5.6127-30.201h-2.1382l-1.8709-10.156-5.0781-1.0691-1.3363-6.1472 39.823-21.114-0.80181-3.7418 1.8709-1.0691-1.6036-7.2163 9.6217-5.3454 1.6036 0.53454v2.1382l2.4054 0.53454 0.53454-3.2072 5.8799-2.94-0.53454-1.8709 10.958-5.8799 1.0691 0.80181v2.1382l42.608 7.6751 4.7247 54.807-40.651 34.537-4.8109-1.3363z" fill="none" stroke="#000"  class="section-stroke"/>
	 <g transform="matrix(.26458 0 0 .26458 -29.322 132.12)" fill="none">
	   <rect width="134" height="37" class="section-subtitle"/>
	   <text width="134" height="37" class="section-subtitle-text">36 квартир</text>
	  </g>
	 <g transform="matrix(.26458 0 0 .26458 -38.998 128.02)" fill="none">
	   <path d="m37.247 5.3545-30.983 14.691 3.9928 33.631 33.847 6.71 16.521-29.564z" class="section-title"/>
	 </g>
   	<text  class="section-short-text" x="-35.022" y="133.52" >c1</text>

   </g>
 
   <g class="section-group" style="transform: translate(35%, 26%);">
			<g transform="matrix(.26458 0 0 .26458 -29.322 132.12)" fill="none">
	   <rect width="165" height="37" class="section-subtitle"/>
	   <text width="134" height="37" class="section-subtitle-text">36 паркомест</text>
	  </g>
	  <g transform="matrix(.26458 0 0 .26458 -38.998 128.02)" fill="none">
	   <path d="m37.247 5.3545-30.983 14.691 3.9928 33.631 33.847 6.71 16.521-29.564z" class="section-title"/>
	 </g>
   	<text  class="section-short-text" x="-35.022" y="133.52" >П1</text>
   </g>
 </g>
 <g class="link-group" style="transform: translate(73%,94%);">
 <a href="#" class="link-js" data-href="plans">

<path style="transform: translate(-2.3%, -2.4%) scale(0.48);" d="M11.7893 1.76913C10.1809 0.793591 8.07868 1.30849 7.10335 2.91656C6.47261 3.95649 6.44451 5.25069 7.02318 6.31704L2.22682 14.225C2.20414 14.2624 2.19801 14.3075 2.20901 14.35L2.70271 16.2148C2.72424 16.2955 2.8038 16.3466 2.88599 16.3323L4.80041 16.0024C4.84642 15.9949 4.88657 15.9672 4.91093 15.927L5.66113 14.6901C5.70722 14.6141 5.68312 14.5151 5.60661 14.4687L4.96076 14.077L5.64199 12.9538L6.28783 13.3456C6.36417 13.3919 6.46317 13.3678 6.50958 13.2912L7.53517 11.6003C7.58127 11.5243 7.55716 11.4253 7.48066 11.3789L6.83481 10.9872L7.60842 9.71169L8.47242 10.2357C8.54876 10.282 8.64776 10.2579 8.69417 10.1814L9.959 8.09603C11.1709 8.11758 12.3056 7.49458 12.9368 6.45395C13.9119 4.84623 13.3974 2.74445 11.7893 1.76913ZM9.27839 5.90905C8.60291 5.49936 8.38578 4.61764 8.79485 3.94319C9.20476 3.26736 10.0878 3.05079 10.7634 3.46059C11.4389 3.87029 11.6549 4.75345 11.245 5.42928C10.836 6.10373 9.95388 6.31875 9.27839 5.90905Z" fill="#F8B400"/>

	 <text style="        
    fill: #f8b400;
    font-size: 0.4rem;
    text-decoration: underline;">Приклади планувань</text>
  </a>	
</g>
</svg>