<svg xmlns="http://www.w3.org/2000/svg" xmlns:xlink="http://www.w3.org/1999/xlink" width="100%" height="100%" version="1.1" viewBox="0 0 423.33 264.58">
 <g transform="translate(96.762 -23.345)">
  <image x="-96.762" y="23.345" width="423.33" height="264.58" preserveAspectRatio="none" xlink:href="./assets/images/build-plan/render.png"/>
 
  	<g class="section-group">  
  		 <path d="m165.56 166.99 1.3364-23.52-1.0691-0.53454 0.13363-4.009 1.0691 0.4009 0.53454-12.562 3.3409-1.7372-1.3364-0.53454 2.5391-1.47 0.26726-4.009 6.6817-3.3409 1.47 0.53453-0.13364 1.2027 2.539 0.8018 6.1472-2.6727-0.13361-4.2763 12.161-5.479 1.3364 0.13364-0.13364 1.2027 2.4054 1.0691 4.8108-2.0045 0.4009-4.1427 5.8799-2.8063 1.2027 0.13364v1.47l2.4054 0.53454 4.8108-2.2718 2.4054 0.80181 6.1472-3.2072 18.976 4.8109 0.13364 1.3364 9.4881 2.8063-6.0136 46.371-21.916 14.7-3.7418-1.0691-1.0691 0.80181v2.94l-2.4054 1.2027-2.5391-1.47-0.4009 3.8754-2.2718 1.47-1.2027-0.53454-8.9535 1.8709-5.7463 4.009-3.8754-1.47-2.2718 0.53454-3.8754-2.94-5.8799 1.7373-8.5526-5.8799-4.6772 2.6727-5.7463-2.2718v-1.2027l0.66818-0.40091-3.6082-4.2763z" fill="none" stroke="#000"  class="section-stroke"/>
	  <g transform="matrix(.26458 0 0 .26458 212.74 106.99)" fill="none">
	   <rect width="134" height="37" class="section-subtitle"/>
	   <text width="134" height="37" class="section-subtitle-text">36 квартир</text>
	  </g>
	  <g transform="matrix(.26458 0 0 .26458 203.06 102.89)" fill="none">
	   <path d="m37.247 5.3545-30.983 14.691 3.9928 33.631 33.847 6.71 16.521-29.564z" class="section-title"/>
	  </g>
	  <text class="section-short-text" x="207.04" y="108.39" width="8.41" height="6.8981">c7</text>
  	</g>
     <g class="section-group">  
     	<path d="m261.38 105.65-4.2763-1.47-5.2118-1.3364-0.13364-1.3364-7.585-2.1896 5.2917-34.018 4.1577-5.6696 11.717 1.0394 0.66146-1.7954 8.221 0.85045 0.80319 1.9608 18.427 1.736 0.80182-2.0045 11.092 1.0691-0.26726 2.5391 5.7463 6.8154-11.092 60.002-16.838-0.80181 2.2718-12.963-24.856-3.2072z" fill="none" stroke="#000"  class="section-stroke"/>
		  <g transform="matrix(.26458 0 0 .26458 275.06 65.24)" fill="none">
		   <rect width="134" height="37" class="section-subtitle"/>
		   <text width="134" height="37" class="section-subtitle-text">36 квартир</text>
		  </g>
		  <g transform="matrix(.26458 0 0 .26458 265.38 61.139)" fill="none">
		   <path d="m37.247 5.3545-30.983 14.691 3.9928 33.631 33.847 6.71 16.521-29.564z" class="section-title"/>
		  </g>
		  <text  class="section-short-text" x="269.36" y="66.643" width="8.41" height="6.8981">c6</text>
	</g>

  
 
   <g class="section-group">  
   	  <path d="m244.17 99.318 5.2917-34.018 3.0951-4.2839-14.7-1.6036 0.4009-3.3409-12.562-1.47-0.26726 0.4009-7.2163-0.66817-0.66818 2.1382-13.497-1.6036 0.8018-1.3363-8.5526-0.93544 0.13362-0.66817-12.027-1.0691v1.7373l-1.7373 1.6036-13.764-1.47-6.8154 4.6772-1.6036 36.349 52.251 6.6817 3.0736-1.2027 1.2027 0.13364v1.47l2.4054 0.53454 4.8108-2.2718 2.4054 0.80181 6.1472-3.2072z" fill="none" stroke="#000"  class="section-stroke"/>
	  <g transform="matrix(.26458 0 0 .26458 185.85 52.767)" fill="none">
	   <rect width="134" height="37" class="section-subtitle"/>
	   <text width="134" height="37" class="section-subtitle-text">36 квартир</text>
	  </g>
	  <g transform="matrix(-.26458 0 0 -.26458 192.29 66.589)" fill="none">
	   <path d="m37.247 5.3545-30.983 14.691 3.9928 33.631 33.847 6.71 16.521-29.564z" class="section-title"/>
	  </g>
	    <text class="section-short-text" x="180.15" y="54.17" > c5</text>
  </g>



  <g class="section-group">  
  	  <path d="m98.463 59.064 6.4256-3.2128h1.1339v0.94494l1.8899 0.75595 1.1339-0.7087-0.18898-2.8821 3.1656-2.1734 1.2757 0.09449 0.14174 1.3229h1.1812l12.851-7.276 9.3926 0.42101 0.0334 2.1047 16.404 1.3363 0.56795-0.3675 0.0668-1.1025 6.325 0.53719 1.2284 0.09449 0.18899 1.6064 9.1659 0.75596-8.7566 6.0931-1.6036 36.349-16.571-2.4708-13.985 10.489 0.18899-37.798-30.616-3.7798z" fill="none" stroke="#000"  class="section-stroke"/>
  <g transform="matrix(.26458 0 0 .26458 124.76 44.527)" fill="none">
   <rect width="134" height="37" class="section-subtitle"/>
   <text width="134" height="37" class="section-subtitle-text">36 квартир</text>
  </g>
  <g transform="matrix(0 -.26458 .26458 0 114.18 57.442)" fill="none">
   <path d="m37.247 5.3545-30.983 14.691 3.9928 33.631 33.847 6.71 16.521-29.564z" class="section-title"/>
  </g>
  <g transform="matrix(0 -.26458 .26458 0 114.18 57.442)" fill="none">
   <path d="m37.247 5.3545-30.983 14.691 3.9928 33.631 33.847 6.71 16.521-29.564z" class="section-title"/>
  </g>
   <text  class="section-short-text" x="119.06" y="45.929" >c4</text>
</g>
 <g class="section-group">  
 	 <path d="m87.253 87.877-25.925-3.8754 1.0691-0.66817-0.26727-2.0045 4.4099-2.5391 0.13363-4.009 4.8109-2.2718 1.0691 0.4009-0.13364 1.3363 2.2718 0.26727 5.2118-2.94-0.66817-0.53454 4.6772-2.2718-0.13364-2.5391 4.4099-2.1382 0.93544 0.4009v1.0691l2.1382 0.4009 7.0158-3.8754 0.18476-3.0218 1.0394 1.1339 30.616 3.7798-0.18899 37.798-40.805 31.805z" fill="none" stroke="#000"  class="section-stroke"/>
 
  <g transform="matrix(.26458 0 0 .26458 83.776 65.187)" fill="none">
   <rect width="134" height="37" class="section-subtitle"/>
   <text width="134" height="37" class="section-subtitle-text">36 квартир</text>
  </g>
  <g transform="matrix(.26458 0 0 .26458 74.1 61.086)" fill="none">
   <path d="m37.247 5.3545-30.983 14.691 3.9928 33.631 33.847 6.71 16.521-29.564z" class="section-title"/>
  </g>
   <text  class="section-short-text" x="78.076" y="66.59" >c3</text>
</g>
	 <g class="section-group"> 
	 	<path d="m36.097 180.96-4.7247-54.807-36.664-7.1816 3.5908-2.2679v-2.8348l8.6935-3.9688-0.37798-3.9688 6.9926-3.9688 1.8899 0.37798-0.37798 1.8899 2.0789 0.18899 7.1815-3.5908-0.18899-1.5119 8.3155-4.1577-0.18899-2.8348 5.6696-3.0238 1.7009 0.75595v1.3229l2.2679 0.18899 10.205-5.6696 2.8348 0.94494 6.3325-2.8433 25.925 3.8754 1.8709 45.703z" fill="none" stroke="#000"  class="section-stroke"/>
	  <g transform="matrix(.26458 0 0 .26458 32.224 90.881)" fill="none">
	   <rect width="134" height="37" class="section-subtitle"/>
	   <text width="134" height="37" class="section-subtitle-text">36 квартир</text>
	  </g>
	  <g transform="matrix(0 .26458 -.26458 0 40.094 87.687)" fill="none">
	   <path d="m37.247 5.3545-30.983 14.691 3.9928 33.631 33.847 6.71 16.521-29.564z" class="section-title"/>
	  </g>
	   <text  class="section-short-text" x="26.524" y="92.284" >c2</text>
  </g>
  <g class="section-group">
	 <path d="m-25.134 225.92-40.892-13.631-5.6127-30.201h-2.1382l-1.8709-10.156-5.0781-1.0691-1.3363-6.1472 39.823-21.114-0.80181-3.7418 1.8709-1.0691-1.6036-7.2163 9.6217-5.3454 1.6036 0.53454v2.1382l2.4054 0.53454 0.53454-3.2072 5.8799-2.94-0.53454-1.8709 10.958-5.8799 1.0691 0.80181v2.1382l42.608 7.6751 4.7247 54.807-40.651 34.537-4.8109-1.3363z" fill="none" stroke="#000"  class="section-stroke"/>
	 <g transform="matrix(.26458 0 0 .26458 -29.322 132.12)" fill="none">
	   <rect width="134" height="37" class="section-subtitle"/>
	   <text width="134" height="37" class="section-subtitle-text">36 квартир</text>
	  </g>
	 <g transform="matrix(.26458 0 0 .26458 -38.998 128.02)" fill="none">
	   <path d="m37.247 5.3545-30.983 14.691 3.9928 33.631 33.847 6.71 16.521-29.564z" class="section-title"/>
	 </g>
   	<text  class="section-short-text" x="-35.022" y="133.52" >c1</text>

   </g>
 
   <g class="section-group" style="transform: translate(35%, 26%);">
			<g transform="matrix(.26458 0 0 .26458 -29.322 132.12)" fill="none">
	   <rect width="165" height="37" class="section-subtitle"/>
	   <text width="134" height="37" class="section-subtitle-text">36 паркомест</text>
	  </g>
	  <g transform="matrix(.26458 0 0 .26458 -38.998 128.02)" fill="none">
	   <path d="m37.247 5.3545-30.983 14.691 3.9928 33.631 33.847 6.71 16.521-29.564z" class="section-title"/>
	 </g>
   	<text  class="section-short-text" x="-35.022" y="133.52" >c1</text>
   </g>
 </g>
 <g class="link-group" style="transform: translate(73%,98%);">
 <a href="#">

<path style="transform: translate(-2.3%, -2.4%) scale(0.48);" d="M11.7893 1.76913C10.1809 0.793591 8.07868 1.30849 7.10335 2.91656C6.47261 3.95649 6.44451 5.25069 7.02318 6.31704L2.22682 14.225C2.20414 14.2624 2.19801 14.3075 2.20901 14.35L2.70271 16.2148C2.72424 16.2955 2.8038 16.3466 2.88599 16.3323L4.80041 16.0024C4.84642 15.9949 4.88657 15.9672 4.91093 15.927L5.66113 14.6901C5.70722 14.6141 5.68312 14.5151 5.60661 14.4687L4.96076 14.077L5.64199 12.9538L6.28783 13.3456C6.36417 13.3919 6.46317 13.3678 6.50958 13.2912L7.53517 11.6003C7.58127 11.5243 7.55716 11.4253 7.48066 11.3789L6.83481 10.9872L7.60842 9.71169L8.47242 10.2357C8.54876 10.282 8.64776 10.2579 8.69417 10.1814L9.959 8.09603C11.1709 8.11758 12.3056 7.49458 12.9368 6.45395C13.9119 4.84623 13.3974 2.74445 11.7893 1.76913ZM9.27839 5.90905C8.60291 5.49936 8.38578 4.61764 8.79485 3.94319C9.20476 3.26736 10.0878 3.05079 10.7634 3.46059C11.4389 3.87029 11.6549 4.75345 11.245 5.42928C10.836 6.10373 9.95388 6.31875 9.27839 5.90905Z" fill="#F8B400"/>

	 <text style="        
    fill: #f8b400;
    font-size: 0.4rem;
    text-decoration: underline;">Приклади планувань</text>
  </a>	
</g>
</svg>