<svg width="330" height="95" viewBox="0 0 330 95" fill="none" xmlns="http://www.w3.org/2000/svg">
		<path class="wow fadeInLeft" data-wow-delay="0.8s" d="M60.761 94.5591C60.1324 94.2668 59.6412 93.8613 59.2816 93.3427C58.9221 92.8241 58.7437 92.2394 58.7437 91.5857C58.7437 90.9319 58.9221 90.3472 59.2816 89.8286C59.6412 89.31 60.1324 88.9045 60.761 88.6122C61.3895 88.3198 62.0949 88.1736 62.8771 88.1736C63.5358 88.1736 64.1341 88.2729 64.6666 88.4742C65.1991 88.6756 65.6464 88.9652 66.0087 89.3404L64.8779 90.2451C64.3619 89.7293 63.7252 89.4728 62.9622 89.4728C62.4901 89.4728 62.0702 89.5638 61.6996 89.7403C61.3291 89.9196 61.0409 90.1679 60.8351 90.4906C60.6292 90.8133 60.5249 91.1747 60.5249 91.5829C60.5249 91.9911 60.6292 92.3552 60.8351 92.6752C61.0409 92.9952 61.3291 93.2462 61.6996 93.4255C62.0702 93.6048 62.4901 93.693 62.9622 93.693C63.7224 93.693 64.3619 93.4337 64.8779 92.9097L66.0087 93.8144C65.6464 94.1978 65.1963 94.4902 64.6611 94.6915C64.1232 94.8929 63.5248 94.9922 62.8661 94.9922C62.0894 94.9977 61.3895 94.8515 60.761 94.5591Z" fill="white"/>
		<path class="wow fadeInLeft" data-wow-delay="0.9s" d="M80.7501 94.8834L79.2817 93.0464H79.1939H77.6597V94.8834H75.8976V88.2855H79.1939C79.8691 88.2855 80.4537 88.3821 80.9505 88.5779C81.4473 88.7737 81.8288 89.0496 82.0977 89.4082C82.3667 89.7667 82.5012 90.1915 82.5012 90.6797C82.5012 91.1707 82.364 91.5928 82.0923 91.9486C81.8205 92.3044 81.4335 92.5747 80.934 92.765L82.6412 94.8862H80.7501V94.8834ZM80.3055 89.8274C80.031 89.6288 79.6276 89.5295 79.0978 89.5295H77.6624V91.83H79.0978C79.6276 91.83 80.0283 91.7307 80.3055 91.5293C80.58 91.328 80.7199 91.0466 80.7199 90.6797C80.7172 90.3101 80.58 90.026 80.3055 89.8274Z" fill="white"/>
		<path class="wow fadeInLeft" data-wow-delay="1s" d="M98.4943 93.6588V94.8835H92.5988V88.2855H98.3543V89.5102H94.3498V90.9418H97.885V92.1306H94.3498V93.6588H98.4943Z" fill="white"/>
		<path class="wow fadeInLeft" data-wow-delay="1.1s" d="M113.615 93.4716H110.08L109.404 94.8866H107.598L110.994 88.2887H112.734L116.14 94.8866H114.29L113.615 93.4716ZM113.06 92.3131L111.853 89.7865L110.645 92.3131H113.06Z" fill="white"/>
		<path class="wow fadeInLeft" data-wow-delay="1.2s" d="M126.833 89.5327H124.396V88.2887H131.032V89.5327H128.595V94.8866H126.833V89.5327Z" fill="white"/>
		<path class="wow fadeInLeft" data-wow-delay="1.3s" d="M140.682 88.2855H142.444V94.8835H140.682V88.2855Z" fill="white"/>
		<path class="wow fadeInLeft" data-wow-delay="1.4s" d="M160.23 88.2855L156.933 94.8835H155.193L151.908 88.2855H153.813L156.129 92.9968L158.479 88.2855H160.23Z" fill="white"/>
		<path class="wow fadeInLeft" data-wow-delay="1.5s" d="M175.463 93.6588V94.8835H169.564V88.2855H175.32V89.5102H171.315V90.9418H174.851V92.1306H171.315V93.6588H175.463Z" fill="white"/>
		<path class="wow fadeInLeft" data-wow-delay="1.6s" d="M204.333 88.2855V94.8835H202.571V92.1775H199.113V94.8835H197.351V88.2855H199.113V90.8866H202.571V88.2855H204.333Z" fill="white"/>
		<path class="wow fadeInLeft" data-wow-delay="1.7s" d="M216.393 94.5558C215.759 94.2607 215.263 93.8552 214.903 93.3366C214.544 92.8181 214.365 92.2361 214.365 91.5878C214.365 90.9396 214.544 90.3576 214.903 89.8391C215.263 89.3205 215.759 88.915 216.393 88.6199C217.027 88.3247 217.741 88.1758 218.531 88.1758C219.322 88.1758 220.033 88.3247 220.664 88.6199C221.295 88.915 221.792 89.3232 222.154 89.8391C222.517 90.3576 222.698 90.9396 222.698 91.5878C222.698 92.2361 222.517 92.8181 222.154 93.3366C221.792 93.8552 221.295 94.2607 220.664 94.5558C220.033 94.851 219.322 94.9999 218.531 94.9999C217.738 94.9972 217.027 94.851 216.393 94.5558ZM219.747 93.4277C220.11 93.2484 220.395 93.0001 220.601 92.6774C220.807 92.3574 220.911 91.9933 220.911 91.5851C220.911 91.1768 220.807 90.8128 220.601 90.4928C220.395 90.1728 220.11 89.9218 219.747 89.7425C219.385 89.5632 218.979 89.475 218.529 89.475C218.079 89.475 217.672 89.566 217.31 89.7425C216.948 89.9218 216.662 90.1701 216.457 90.4928C216.251 90.8155 216.146 91.1768 216.146 91.5851C216.146 91.9933 216.251 92.3574 216.457 92.6774C216.662 92.9974 216.948 93.2484 217.31 93.4277C217.672 93.6069 218.079 93.6952 218.529 93.6952C218.979 93.698 219.385 93.6069 219.747 93.4277Z" fill="white"/>
		<path class="wow fadeInLeft" data-wow-delay="1.8s" d="M233.569 94.2164C232.963 93.695 232.661 92.9503 232.661 91.9821V88.2887H234.423V91.9269C234.423 93.1075 234.988 93.6978 236.119 93.6978C236.671 93.6978 237.091 93.5544 237.382 93.2703C237.673 92.9834 237.818 92.5365 237.818 91.9269V88.2887H239.558V91.9821C239.558 92.9503 239.256 93.695 238.65 94.2164C238.043 94.7377 237.198 94.9997 236.111 94.9997C235.021 94.997 234.176 94.7377 233.569 94.2164Z" fill="white"/>
		<path class="wow fadeInLeft" data-wow-delay="1.9s" d="M250.759 94.7877C250.196 94.647 249.746 94.4622 249.403 94.236L250.002 93.0858C250.328 93.2927 250.715 93.4609 251.165 93.5851C251.615 93.7119 252.066 93.7726 252.516 93.7726C253.015 93.7726 253.386 93.7092 253.624 93.5795C253.863 93.4499 253.984 93.2789 253.984 93.0665C253.984 92.9093 253.913 92.7796 253.773 92.6748C253.633 92.57 253.449 92.4872 253.229 92.4238C253.007 92.3604 252.708 92.2914 252.332 92.2169C251.75 92.0983 251.278 91.977 250.907 91.8583C250.537 91.7397 250.221 91.5467 249.955 91.2846C249.689 91.0226 249.557 90.6695 249.557 90.2282C249.557 89.8448 249.678 89.4972 249.916 89.1855C250.155 88.8738 250.518 88.6283 250.998 88.4463C251.481 88.2642 252.068 88.1732 252.765 88.1732C253.251 88.1732 253.726 88.2229 254.19 88.3249C254.654 88.427 255.06 88.5704 255.408 88.758L254.865 89.9165C254.162 89.5717 253.457 89.3979 252.754 89.3979C252.26 89.3979 251.895 89.4669 251.662 89.6048C251.429 89.7427 251.308 89.9248 251.308 90.1509C251.308 90.3771 251.445 90.5454 251.717 90.6557C251.989 90.766 252.403 90.8736 252.963 90.9812C253.542 91.0998 254.017 91.2212 254.387 91.3398C254.758 91.4584 255.074 91.6487 255.34 91.9052C255.603 92.1618 255.738 92.5121 255.738 92.9506C255.738 93.3285 255.617 93.6706 255.373 93.9823C255.129 94.294 254.766 94.5394 254.28 94.7215C253.795 94.9035 253.205 94.9946 252.507 94.9946C251.904 94.9973 251.319 94.9284 250.759 94.7877Z" fill="white"/>
		<path class="wow fadeInLeft" data-wow-delay="2s" d="M271.542 93.6588V94.8835H265.646V88.2855H271.402V89.5102H267.397V90.9418H270.932V92.1306H267.397V93.6588H271.542Z" fill="white"/>
		<path class="wow fadeIn"  data-wow-delay="0.1s" d="M38.952 22.5163C42.7314 24.6347 45.6929 27.5944 47.831 31.3926C49.969 35.1936 51.0395 39.5849 51.0395 44.5664C51.0395 49.5507 49.969 53.9558 47.831 57.7871C45.6929 61.6184 42.7314 64.5919 38.952 66.7103C35.1699 68.8287 30.8937 69.8879 26.1236 69.8879C22.4649 69.8879 19.1192 69.1735 16.0836 67.7392C13.0453 66.3076 10.5367 64.2223 8.55232 61.4805V69.328H0V0H8.92559V27.2827C10.9072 24.6678 13.3884 22.6901 16.3636 21.3495C19.3388 20.0117 22.5912 19.3414 26.1263 19.3414C30.8965 19.3414 35.1726 20.4006 38.952 22.5163ZM33.8854 59.8421C36.3968 58.3801 38.3784 56.3252 39.8358 53.6744C41.2905 51.0264 42.0205 47.9923 42.0205 44.5664C42.0205 41.1406 41.2905 38.1064 39.8358 35.4556C38.3784 32.8104 36.3968 30.7692 33.8854 29.3349C31.3741 27.9033 28.5388 27.1861 25.3798 27.1861C22.281 27.1861 19.4595 27.9033 16.9207 29.3349C14.3792 30.7692 12.3948 32.8076 10.9704 35.4556C9.54314 38.1036 8.83227 41.1406 8.83227 44.5664C8.83227 47.9923 9.54314 51.0292 10.9704 53.6744C12.3948 56.3224 14.3792 58.3774 16.9207 59.8421C19.4623 61.3067 22.281 62.0377 25.3798 62.0377C28.5416 62.0377 31.3768 61.3067 33.8854 59.8421Z" fill="white"/>
		<path class="wow fadeIn" data-wow-delay="0.2s" d="M75.9526 66.6168C72.047 64.4378 68.995 61.4312 66.7965 57.5998C64.5953 53.7685 63.4974 49.4241 63.4974 44.5667C63.4974 39.7093 64.598 35.3649 66.7965 31.5336C68.995 27.7023 72.0498 24.7122 75.9526 22.5635C79.8583 20.4147 84.2579 19.339 89.1544 19.339C94.0508 19.339 98.4341 20.4147 102.309 22.5635C106.182 24.7122 109.221 27.7023 111.419 31.5336C113.617 35.3649 114.718 39.7093 114.718 44.5667C114.718 49.4241 113.617 53.7685 111.419 57.5998C109.218 61.4312 106.182 64.435 102.309 66.6168C98.4341 68.7987 94.0508 69.8882 89.1544 69.8882C84.2579 69.8855 79.8583 68.7959 75.9526 66.6168ZM97.6601 59.8424C100.171 58.3805 102.137 56.3255 103.564 53.6747C104.988 51.0267 105.702 47.9926 105.702 44.5667C105.702 41.1409 104.988 38.1067 103.564 35.4559C102.137 32.8107 100.171 30.7695 97.6601 29.3352C95.1515 27.9036 92.3135 27.1865 89.1544 27.1865C85.9953 27.1865 83.1573 27.9036 80.6487 29.3352C78.1374 30.7695 76.153 32.8079 74.6983 35.4559C73.2409 38.1039 72.5136 41.1409 72.5136 44.5667C72.5136 47.9926 73.2409 51.0295 74.6983 53.6747C76.153 56.3227 78.1374 58.3777 80.6487 59.8424C83.1601 61.307 85.9953 62.038 89.1544 62.038C92.3135 62.038 95.1515 61.307 97.6601 59.8424Z" fill="white"/>
		<path class="wow fadeIn" data-wow-delay="0.3s" d="M134.243 68.2494C130.524 67.1598 127.61 65.7724 125.504 64.0926L129.223 56.9926C131.392 58.5511 134.027 59.7951 137.125 60.7301C140.224 61.6652 143.353 62.1314 146.515 62.1314C154.323 62.1314 158.229 59.8889 158.229 55.4038C158.229 53.9088 157.702 52.7255 156.648 51.8538C155.594 50.9822 154.277 50.345 152.696 49.9395C151.115 49.5341 148.867 49.0845 145.955 48.5852C141.989 47.9646 138.75 47.2474 136.239 46.4365C133.727 45.6283 131.576 44.2574 129.778 42.3265C127.98 40.3957 127.083 37.687 127.083 34.1977C127.083 29.7127 128.941 26.1158 132.66 23.4071C136.379 20.6985 141.366 19.3441 147.626 19.3441C150.912 19.3441 154.194 19.7496 157.48 20.5578C160.765 21.3687 163.46 22.4583 165.568 23.8292L161.756 30.9291C157.727 28.3142 152.984 27.004 147.533 27.004C143.751 27.004 140.869 27.6274 138.887 28.8714C136.903 30.1182 135.912 31.7676 135.912 33.8226C135.912 35.4417 136.469 36.7189 137.586 37.6539C138.701 38.589 140.081 39.2758 141.723 39.7089C143.364 40.1447 145.675 40.644 148.65 41.2039C152.616 41.8907 155.822 42.6217 158.273 43.3995C160.721 44.1801 162.812 45.5014 164.547 47.3715C166.282 49.2389 167.149 51.8566 167.149 55.219C167.149 59.704 165.244 63.2706 161.432 65.9158C157.62 68.5638 152.429 69.8878 145.859 69.8878C141.832 69.8851 137.962 69.3389 134.243 68.2494Z" fill="white"/>
		<path class="wow fadeIn" data-wow-delay="0.4s" d="M210.66 66.4287C209.359 67.5486 207.745 68.4064 205.826 68.9967C203.905 69.587 201.921 69.8849 199.876 69.8849C194.916 69.8849 191.074 68.5471 188.349 65.8687C185.62 63.1904 184.259 59.3618 184.259 54.3775V27.1886H175.893V19.8073H184.259V8.96985H193.185V19.8073H207.317V27.1886H193.185V54.0024C193.185 56.6807 193.849 58.7357 195.183 60.17C196.514 61.6044 198.421 62.3188 200.9 62.3188C203.625 62.3188 205.95 61.5409 207.871 59.9825L210.66 66.4287Z" fill="white"/>
		<path class="wow fadeIn" data-wow-delay="0.5s" d="M232.321 66.6168C228.415 64.4378 225.363 61.4312 223.165 57.5998C220.963 53.7685 219.865 49.4241 219.865 44.5667C219.865 39.7093 220.966 35.3649 223.165 31.5336C225.363 27.7023 228.418 24.7122 232.321 22.5635C236.226 20.4147 240.626 19.339 245.522 19.339C250.419 19.339 254.802 20.4147 258.678 22.5635C262.55 24.7122 265.589 27.7023 267.787 31.5336C269.985 35.3649 271.086 39.7093 271.086 44.5667C271.086 49.4241 269.985 53.7685 267.787 57.5998C265.586 61.4312 262.55 64.435 258.678 66.6168C254.802 68.7987 250.419 69.8882 245.522 69.8882C240.626 69.8855 236.226 68.7959 232.321 66.6168ZM254.028 59.8424C256.539 58.3805 258.505 56.3255 259.932 53.6747C261.356 51.0267 262.07 47.9926 262.07 44.5667C262.07 41.1409 261.356 38.1067 259.932 35.4559C258.505 32.8107 256.539 30.7695 254.028 29.3352C251.519 27.9036 248.682 27.1865 245.522 27.1865C242.363 27.1865 239.525 27.9036 237.017 29.3352C234.505 30.7695 232.521 32.8079 231.066 35.4559C229.609 38.1039 228.882 41.1409 228.882 44.5667C228.882 47.9926 229.609 51.0295 231.066 53.6747C232.521 56.3227 234.505 58.3777 237.017 59.8424C239.528 61.307 242.363 62.038 245.522 62.038C248.682 62.038 251.519 61.307 254.028 59.8424Z" fill="white"/>
		<path class="wow fadeIn" data-wow-delay="0.6s" d="M329.997 42.0642V42.0505H312.239V19.7962L282.713 19.7935V69.9234H291.613V27.2879H303.402V49.1256H321.472V69.9234H330V42.0642H329.997Z" fill="white"/>
		<path class="wow fadeIn" data-wow-delay="0.7s" d="M329.951 19.802H321.505V28.2894H329.951V19.802Z" fill="#FF1E3C"/>
	</svg>