<svg width="54" height="69" viewBox="0 0 54 69" fill="none">
    <path d="M6.72546 6.69824H13.7315C15.889 6.69824 17.3755 7.25024 18.3209 8.17522C19.1442 8.98084 19.5711 10.0252 19.5711 11.3902V11.4275C19.5711 13.5535 18.42 14.9559 16.6742 15.6869L20.0362 20.4982H15.5459L12.7099 16.3209H10.644V20.4982H6.74071V6.7057L6.72546 6.69824ZM13.5714 13.3222C14.8826 13.3222 15.6679 12.6882 15.6679 11.6886V11.6513C15.6679 10.5473 14.8445 9.99532 13.5561 9.99532H10.644V13.3222H13.579H13.5714Z" fill="white"/>
    <path d="M25.3114 15.3214L19.9368 6.69824H24.389L27.2859 11.7185L30.2057 6.69824H34.574L29.2223 15.2692V20.4908H25.3114V15.3214Z" fill="white"/>
    <path d="M5.65808 53.4169L7.85366 50.8732C9.27164 51.9549 10.8192 52.5292 12.4659 52.5292C13.5408 52.5292 14.1126 52.1712 14.1126 51.5819V51.5446C14.1126 50.9553 13.6475 50.6569 11.6959 50.2019C8.66938 49.5305 6.33658 48.7025 6.33658 45.8829V45.8456C6.33658 43.287 8.42542 41.4296 11.8408 41.4296C14.2574 41.4296 16.1481 42.0636 17.688 43.2646L15.7211 45.9649C14.4175 45.0549 12.9995 44.6073 11.7417 44.6073C10.7887 44.6073 10.3237 44.9803 10.3237 45.495V45.5323C10.3237 46.1663 10.8116 46.4423 12.8013 46.875C16.049 47.5612 18.0844 48.5906 18.0844 51.1716V51.2089C18.0844 54.0286 15.7898 55.6995 12.3363 55.6995C9.82053 55.6995 7.44199 54.9312 5.67333 53.4169H5.65808Z" fill="white"/>
    <path d="M19.7921 41.6682H23.703L23.6801 46.8749H25.2277L29.4969 41.6682H34.1701L28.3152 48.3518L34.4522 55.4607H29.6188L25.2277 50.1869H23.6801L23.703 55.4607H19.7921V41.6682Z" fill="white"/>
    <path d="M38.744 50.2987L33.3618 41.6682H37.814L40.7185 46.6958L43.6383 41.6682H48.0066L42.6473 50.2391V55.4607H38.744V50.2987Z" fill="white"/>
    <path d="M45.8417 15.0456C45.8265 17.3059 43.9587 19.1782 41.5573 19.4691V12.2856H45.6816V11.025H41.5573V9.57786C42.3196 9.32424 42.8685 8.65289 42.8685 7.85473C42.8685 6.8477 41.9918 6.02716 40.9169 6.02716C39.842 6.02716 38.9653 6.8477 38.9653 7.85473C38.9653 8.65289 39.5142 9.3317 40.2765 9.57786V11.025H36.1522V12.2856H40.2765V19.4691C37.8751 19.1782 36.0074 17.3059 35.9921 15.0456L34.7037 15.0531C34.7266 18.2085 37.5092 20.7671 40.9169 20.7671C44.3246 20.7671 47.1149 18.201 47.1301 15.0531L45.8417 15.0456ZM40.9169 7.14608C41.3591 7.14608 41.725 7.46684 41.725 7.85473C41.725 8.24262 41.3591 8.56338 40.9169 8.56338C40.4671 8.56338 40.1088 8.24262 40.1088 7.85473C40.1088 7.46684 40.4748 7.14608 40.9169 7.14608Z" fill="white"/>
    <path d="M6.72546 24.1906H13.9526C15.7212 24.1906 16.9715 24.6232 17.8025 25.4139C18.3666 25.9883 18.7097 26.7118 18.7097 27.6592V27.6965C18.7097 29.2928 17.7796 30.2402 16.5369 30.7698C18.2522 31.3218 19.3348 32.2691 19.3348 34.1415V34.1788C19.3348 36.5434 17.3603 37.9831 13.9983 37.9831H6.72546V24.1906ZM14.8598 28.4499C14.8598 27.6816 14.2346 27.2713 13.0911 27.2713H10.5372V29.6956H12.992C14.1813 29.6956 14.8674 29.3003 14.8674 28.4947V28.4574L14.8598 28.4499ZM13.5104 32.3736H10.5296V34.9173H13.5485C14.753 34.9173 15.4239 34.4622 15.4239 33.6566V33.6193C15.4239 32.8734 14.8217 32.381 13.5104 32.381V32.3736Z" fill="white"/>
    <path d="M25.3723 24.1759H29.1155L35.0771 37.9834H30.9146L29.9159 35.5143H24.488L23.4893 37.9834H19.426L25.3723 24.1759ZM28.7724 32.5603L27.2096 28.6814L25.6315 32.5603H28.7724Z" fill="white"/>
    <path d="M36.3961 24.1906H40.2993V34.6338H47.13V37.9831H36.3961V24.1906Z" fill="white"/>
    <path d="M6.55767 62.122L6.86261 61.7639C7.07607 61.9355 7.29716 62.0399 7.56398 62.0399C7.77744 62.0399 7.89941 61.9579 7.89941 61.8236V61.8162C7.89941 61.6894 7.81556 61.6222 7.42676 61.5252C6.9541 61.4059 6.64915 61.2791 6.64915 60.8241V60.8166C6.64915 60.3989 6.99221 60.1229 7.4725 60.1229C7.81556 60.1229 8.10525 60.2273 8.34158 60.4138L8.07476 60.7942C7.86892 60.6525 7.66308 60.5704 7.46487 60.5704C7.26666 60.5704 7.15993 60.6599 7.15993 60.7718V60.7793C7.15993 60.9285 7.25904 60.9807 7.66308 61.0777C8.13574 61.197 8.41019 61.3686 8.41019 61.7639V61.7714C8.41019 62.2264 8.05189 62.4801 7.54873 62.4801C7.19043 62.4801 6.83212 62.3607 6.55005 62.1145L6.55767 62.122Z" fill="white"/>
    <path d="M9.40887 60.153H10.3694C10.926 60.153 11.269 60.4812 11.269 60.9437V60.9512C11.269 61.4808 10.8497 61.7568 10.3161 61.7568H9.92727V62.4431H9.40887V60.1456V60.153ZM10.3313 61.3092C10.5905 61.3092 10.743 61.1601 10.743 60.9587V60.9512C10.743 60.7274 10.5829 60.6006 10.3237 60.6006H9.92727V61.3018H10.3389L10.3313 61.3092Z" fill="white"/>
    <path d="M12.8013 60.1375H13.2739L14.2803 62.4499H13.739L13.5255 61.9352H12.5345L12.321 62.4499H11.795L12.8013 60.1375ZM13.3426 61.4876L13.03 60.7417L12.7174 61.4876H13.3426Z" fill="white"/>
    <path d="M14.9283 61.3091V61.3016C14.9283 60.6452 15.4314 60.1155 16.1557 60.1155C16.5978 60.1155 16.8647 60.2573 17.0781 60.4736L16.7503 60.8466C16.5673 60.6825 16.3844 60.5855 16.148 60.5855C15.7516 60.5855 15.4696 60.9062 15.4696 61.3016V61.3091C15.4696 61.7044 15.7516 62.0326 16.148 62.0326C16.4149 62.0326 16.5826 61.9282 16.7656 61.7641L17.0934 62.0923C16.8494 62.3459 16.5826 62.5026 16.1328 62.5026C15.4391 62.5026 14.9283 61.9804 14.9283 61.324V61.3091Z" fill="white"/>
    <path d="M18.0156 60.1529H19.7843V60.6079H18.5264V61.0704H19.6318V61.518H18.5264V62.0028H19.7995V62.4504H18.0156V60.1529Z" fill="white"/>
    <path d="M22.3536 60.1529H24.1452V60.6154H22.872V61.1077H23.9927V61.5627H22.872V62.4504H22.3536V60.1529Z" fill="white"/>
    <path d="M24.9151 61.3091V61.3016C24.9151 60.6452 25.4411 60.1155 26.1654 60.1155C26.8896 60.1155 27.408 60.6452 27.408 61.2941V61.3016C27.408 61.958 26.882 62.4876 26.1577 62.4876C25.4335 62.4876 24.9151 61.958 24.9151 61.3091ZM26.8667 61.3091V61.3016C26.8667 60.9062 26.5694 60.578 26.1577 60.578C25.7384 60.578 25.4564 60.8988 25.4564 61.2941V61.3016C25.4564 61.6969 25.7537 62.0252 26.1654 62.0252C26.5847 62.0252 26.8667 61.7044 26.8667 61.3091Z" fill="white"/>
    <path d="M28.4142 60.153H29.4891C29.7864 60.153 30.0227 60.2351 30.1752 60.3843C30.3048 60.5111 30.3734 60.6901 30.3734 60.9064V60.9139C30.3734 61.2869 30.1676 61.5181 29.8703 61.6225L30.442 62.4431H29.8398L29.3366 61.7046H28.9326V62.4431H28.4142V60.1456V60.153ZM29.451 61.2719C29.7026 61.2719 29.8474 61.1377 29.8474 60.9437V60.9363C29.8474 60.7199 29.6949 60.6081 29.4434 60.6081H28.9326V61.2645H29.4586L29.451 61.2719Z" fill="white"/>
    <path d="M32.9276 60.1529H33.446V61.9954H34.6124V62.4504H32.9276V60.1529Z" fill="white"/>
    <path d="M35.5194 62.4504H36.0378V60.1529H35.5194V62.4504Z" fill="white"/>
    <path d="M36.9222 60.1529H37.494L38.1039 61.7716L38.7214 60.1529H39.2779L38.325 62.4728H37.8676L36.9222 60.1529Z" fill="white"/>
    <path d="M40.1697 62.4504H40.6805V60.1529H40.1697V62.4504Z" fill="white"/>
    <path d="M41.8089 60.1529H42.2892L43.387 61.5702V60.1529H43.8978V62.4504H43.4556L42.3197 60.9958V62.4504H41.8089V60.1529Z" fill="white"/>
    <path d="M44.8964 61.3091V61.3016C44.8964 60.6452 45.4148 60.1155 46.1237 60.1155C46.543 60.1155 46.8022 60.2274 47.0462 60.4288L46.7184 60.8093C46.5354 60.6601 46.3753 60.578 46.1009 60.578C45.7273 60.578 45.43 60.9062 45.43 61.2941V61.3016C45.43 61.7193 45.7273 62.0326 46.139 62.0326C46.3296 62.0326 46.4973 61.9879 46.6269 61.8983V61.5701H46.1085V61.13H47.1301V62.1296C46.8861 62.331 46.5583 62.4951 46.1237 62.4951C45.3919 62.4951 44.8887 61.9953 44.8887 61.3165L44.8964 61.3091Z" fill="white"/>
    <defs>
    <rect width="54" height="69" fill="white"/>
    </defs>
</svg>
