<svg class="fadeIn wow" data-wow-delay="2.2s" width="140" height="140" viewBox="0 0 140 140" fill="none" xmlns="http://www.w3.org/2000/svg">
				<path d="M119.497 119.497C146.834 92.1608 146.834 47.8392 119.497 20.5025C92.1607 -6.83417 47.8392 -6.83417 20.5025 20.5025C-6.83423 47.8392 -6.83423 92.1608 20.5025 119.497C47.8392 146.834 92.1607 146.834 119.497 119.497Z" fill="white"/>
				<path d="M29.0774 91.6139H27.2521V97.435H28.9047C29.9407 97.435 30.73 97.1883 31.2726 96.6703C31.8153 96.1524 32.0866 95.4371 32.0866 94.4751C32.0866 93.5871 31.8153 92.8718 31.2973 92.3785C30.7546 91.8605 30.0147 91.6139 29.0774 91.6139ZM29.0034 96.399H28.4854V92.6252H29.1514C30.2613 92.6252 30.804 93.2418 30.804 94.4998C30.804 95.7577 30.212 96.399 29.0034 96.399Z" fill="#405174"/>
				<path d="M36.9456 96.399V94.8944H38.9188V93.8831H36.9456V92.6252H39.0668V91.6139H35.7123V97.4103H39.0668V96.399H36.9456Z" fill="#405174"/>
				<path d="M44.9371 95.0671C44.7645 95.6837 44.6658 96.103 44.6411 96.3497C44.6165 96.251 44.5918 96.0537 44.5178 95.7824C44.4438 95.5111 44.3945 95.2644 44.3205 95.0671L43.2352 91.6139H42.002L43.9752 97.435H45.3071L47.2803 91.6139H46.0471L44.9371 95.0671Z" fill="#405174"/>
				<path d="M51.671 96.399V94.8944H53.6443V93.8831H51.671V92.6252H53.7922V91.6139H50.4377V97.4103H53.7922V96.399H51.671Z" fill="#405174"/>
				<path d="M61.0439 97.4103V96.399H58.676V91.6139H57.4427V97.4103H61.0439Z" fill="#405174"/>
				<path d="M67.0129 91.5151C66.1249 91.5151 65.4343 91.7618 64.9657 92.2798C64.497 92.7977 64.2504 93.5377 64.2504 94.4997C64.2504 95.4616 64.497 96.2016 64.9657 96.7195C65.4343 97.2375 66.1249 97.4842 67.0129 97.4842C67.9009 97.4842 68.5915 97.2129 69.0601 96.7195C69.5288 96.2016 69.7754 95.4616 69.7754 94.4997C69.7754 93.5377 69.5288 92.7977 69.0601 92.2798C68.5668 91.7618 67.9009 91.5151 67.0129 91.5151ZM66.9882 96.4729C66.4949 96.4729 66.1249 96.3002 65.8783 95.9796C65.6316 95.6589 65.5083 95.1656 65.5083 94.5243C65.5083 93.883 65.6316 93.3897 65.8783 93.0444C66.1249 92.7237 66.4949 92.5511 66.9882 92.5511C67.9748 92.5511 68.4435 93.2171 68.4435 94.5243C68.4682 95.8069 67.9748 96.4729 66.9882 96.4729Z" fill="#405174"/>
				<path d="M75.2512 91.6139H73.4012V97.435H74.6345V95.3631H75.1525C75.8678 95.3631 76.4351 95.1904 76.8297 94.8698C77.2244 94.5491 77.4217 94.0558 77.4217 93.4391C77.4217 92.8472 77.2491 92.3785 76.8791 92.0825C76.5091 91.7619 75.9664 91.6139 75.2512 91.6139ZM75.8925 94.1051C75.6951 94.2531 75.4238 94.3271 75.0538 94.3271H74.6345V92.6005H75.2018C75.5471 92.6005 75.7938 92.6745 75.9418 92.7978C76.0898 92.9458 76.1884 93.1432 76.1884 93.4391C76.1638 93.7598 76.0898 93.9571 75.8925 94.1051Z" fill="#405174"/>
				<path d="M84.032 96.0537L82.626 91.6139H80.9488V97.435H82.0587V94.7218C82.0587 94.4011 82.0341 93.7845 81.9847 92.8718H82.0094L83.4153 97.435H84.55L86.0546 92.8965H86.0792C86.0546 93.6365 86.0299 94.0805 86.0299 94.2531V94.6971V97.435H87.1892V91.6139H85.4872L84.032 96.0537Z" fill="#405174"/>
				<path d="M92.2949 96.399V94.8944H94.2682V93.8831H92.2949V92.6252H94.4162V91.6139H91.0616V97.4103H94.4162V96.399H92.2949Z" fill="#405174"/>
				<path d="M102.112 94.3518C102.112 94.6724 102.137 95.1904 102.161 95.955H102.137L99.6207 91.6139H98.0668V97.435H99.1767V94.6971C99.1767 94.3764 99.1521 93.8091 99.1027 93.0445H99.1274L101.643 97.435H103.197V91.6139H102.087V94.3518H102.112Z" fill="#405174"/>
				<path d="M109.364 97.4103V92.6252H110.942V91.6139H106.552V92.6252H108.13V97.4103H109.364Z" fill="#405174"/>
				<path d="M129.787 79.3057L121.104 59.9679L126.901 47.1665L126.58 47.0186L120.907 59.524L117.75 52.4696H117.577H114.124H113.951L101.915 79.281H105.54L109.043 71.5114H115.505L109.314 85.2007L109.635 85.3487L119.304 63.9637L126.185 79.2564H129.787V79.3057ZM116.985 68.2062H110.523L115.851 56.3421L119.082 63.5691L116.985 68.2062Z" fill="#405174"/>
				<path d="M84.328 64.9257L92.3689 47.1665L92.0483 47.0186L89.1871 53.3083C88.8911 53.1603 88.5705 53.0123 88.2498 52.8889C86.4986 52.1983 84.624 51.8283 82.6507 51.8283C78.7536 51.8283 75.4484 53.1849 72.7352 55.8735C70.022 58.5867 68.6901 61.8918 68.6901 65.863C68.6901 69.8095 70.0467 73.1393 72.7352 75.8525C74.1658 77.2831 75.7691 78.3191 77.545 79.0097L74.7331 85.2501L75.0538 85.3981L77.8903 79.133C79.3702 79.651 80.9488 79.9223 82.6507 79.9223C86.7206 79.9223 90.0257 78.5904 92.5169 75.9512C94.7368 73.7313 95.8468 70.7468 95.8468 66.9729C95.8468 66.3316 95.7728 65.641 95.6495 64.9504H84.328V64.9257ZM75.2511 73.5586C73.2532 71.5114 72.2419 68.9462 72.2419 65.863C72.2419 62.7798 73.2532 60.2146 75.2511 58.1674C77.2737 56.1448 79.7649 55.1335 82.6754 55.1335C84.18 55.1335 85.5859 55.4048 86.8932 55.9721C87.2139 56.0955 87.5098 56.2681 87.7812 56.4161L78.9509 75.9265C77.5943 75.4579 76.3364 74.6686 75.2511 73.5586ZM89.3598 74.3479C87.5838 75.8525 85.3639 76.5925 82.6754 76.5925C81.4668 76.5925 80.3322 76.4198 79.2962 76.0745L82.8727 68.1569H92.4183C92.147 70.7714 91.1357 72.8433 89.3598 74.3479Z" fill="#405174"/>
				<path d="M27.3754 67.1949C26.3888 66.0603 24.8348 65.0737 22.7136 64.2351L30.0639 48.0298L29.7433 47.8818L26.7094 54.6155C26.3148 54.1962 25.8461 53.7769 25.3282 53.4316C23.8236 52.371 22.0476 51.853 20.0004 51.853C17.6819 51.853 15.7086 52.5436 14.1054 53.9495C12.5268 55.3555 11.7375 57.0327 11.7375 59.006C11.7375 61.8425 13.1681 63.9637 16.0046 65.419C16.5226 65.6903 17.8792 66.2083 20.0251 66.9976C20.3457 67.0963 20.6417 67.2196 20.9377 67.3182L17.1639 75.6552C16.8926 75.4825 16.6459 75.3099 16.3993 75.1125C15.8566 74.6439 15.388 74.1013 14.9933 73.4353C14.5987 72.794 14.278 72.054 14.056 71.2647L10.7509 72.6213C11.3922 74.8659 12.5761 76.6418 14.278 77.9491C14.7467 78.2944 15.2153 78.5904 15.7086 78.8617L12.4281 86.0887L12.7488 86.2367L16.0293 79.0097C17.2872 79.6017 18.6685 79.8976 20.1484 79.8976C22.6396 79.8976 24.7855 79.207 26.5368 77.8011C28.2634 76.3705 29.1266 74.4959 29.1266 72.128C29.102 70.1794 28.5347 68.5269 27.3754 67.1949ZM21.5297 63.7911C18.8411 62.8785 17.1146 62.0645 16.3253 61.3985C15.61 60.7326 15.24 59.9186 15.24 59.006C15.24 57.8714 15.7086 56.9587 16.6212 56.2681C17.5585 55.5281 18.6931 55.1335 20.0251 55.1335C21.3077 55.1335 22.393 55.4541 23.2809 56.1201C24.0949 56.7367 24.6375 57.4767 24.9582 58.3647L22.3683 64.0871C22.097 64.0131 21.8257 63.8897 21.5297 63.7911ZM24.0702 75.3839C23.0589 76.1978 21.7763 76.5925 20.1977 76.5925C19.4824 76.5925 18.7918 76.4691 18.1258 76.1978C17.8792 76.0992 17.6572 75.9758 17.4105 75.8525L21.209 67.4662C22.6643 68.0582 23.7002 68.6502 24.3169 69.2422C25.1555 70.0315 25.5501 70.9934 25.5501 72.128C25.5748 73.4846 25.0815 74.5699 24.0702 75.3839Z" fill="#405174"/>
				<path d="M60.2791 47.1665L59.9584 47.0186L54.31 59.524L51.2022 52.593L53.6687 47.1665L53.3481 47.0186L50.8815 52.4943H47.6997L50.1169 47.1665L49.7962 47.0186L32.5057 85.2254L32.8264 85.3734L35.5889 79.3057H38.7708L36.0822 85.2254L36.4029 85.3734L42.6679 71.5361H48.9083L42.7173 85.2254L43.0379 85.3734L52.7314 63.9884L59.6131 79.3057H63.2389L54.4827 59.9433L60.2791 47.1665ZM50.3389 68.2062H44.0985L49.3523 56.6134L52.4601 63.5444L50.3389 68.2062Z" fill="#405174"/>
				<defs>
				<clipPath id="clip0">
				<rect width="140" height="140" fill="white"/>
				</clipPath>
				</defs>
			</svg>