<svg width="17" height="24" viewBox="0 0 17 24" fill="none" xmlns="http://www.w3.org/2000/svg">
<path d="M16.1865 10.3548C14.8108 9.29544 13.1864 9.16959 12.0514 9.10482C13.024 8.14073 13.6276 6.80487 13.6288 5.32726C13.6288 5.07219 13.6047 4.82291 13.5702 4.57731C14.4224 4.33934 15.0506 3.54143 15.0506 2.59108C15.0518 1.45195 14.1529 0.528481 13.044 0.52787C12.4797 0.527564 11.9705 0.767366 11.6052 1.15197C10.698 0.433477 9.55396 0.000611598 8.30764 6.38239e-07C7.05001 -0.000610321 5.8959 0.437448 4.98421 1.16602C4.61864 0.770421 4.10316 0.522371 3.52997 0.522371C2.42136 0.52176 1.52187 1.44431 1.52157 2.58314C1.52068 3.54815 2.16674 4.35645 3.03858 4.58159C3.00467 4.82383 2.98117 5.06944 2.98087 5.32085C2.97998 6.73736 3.53651 8.0219 4.43838 8.97622C3.41188 8.95056 2.17478 9.05259 1.01798 9.73106C-0.792308 10.7905 -0.123635 13.7237 2.51119 13.4503C2.86933 13.413 3.20128 13.351 3.52253 13.2768C3.39284 13.5505 3.27237 13.8511 3.17094 14.1908C3.04244 14.6233 2.99098 15.2056 3.08528 15.8232C2.50435 17.6601 2.40827 20.1772 2.81638 21.9643C3.4214 24.6122 6.33999 24.3082 6.72668 22.205C6.89385 21.3014 6.79004 20.2182 6.58777 19.1915C7.07083 19.2901 7.61339 19.3466 8.22346 19.3488C8.81569 19.3512 9.34396 19.3011 9.81631 19.2116C9.62714 20.2438 9.5382 21.332 9.71905 22.2353C10.1358 24.3321 13.0576 24.5923 13.6252 21.9362C13.9916 20.2185 13.8864 17.8388 13.3438 16.0346C13.4797 15.3552 13.4348 14.704 13.2971 14.2305C13.2156 13.9485 13.1204 13.6937 13.0181 13.4582C13.4006 13.6158 13.8078 13.7484 14.2543 13.8541C16.8347 14.4617 17.8538 11.6376 16.1865 10.3548ZM13.0434 1.5106C13.6231 1.5109 14.0928 1.99417 14.0925 2.58986C14.0925 3.0774 13.776 3.4843 13.3435 3.6178C13.1168 2.9488 12.7614 2.34059 12.306 1.82066C12.4961 1.62943 12.756 1.51029 13.0434 1.5106ZM10.6899 4.11756C11.0177 4.11787 11.2833 4.39769 11.2831 4.7438C11.2831 5.08929 11.0168 5.36881 10.6893 5.36881C10.3615 5.3685 10.0956 5.08838 10.0962 4.74288C10.0965 4.39708 10.3624 4.11726 10.6899 4.11756ZM8.3234 4.91456C8.64138 4.91425 8.94835 4.96924 9.23063 5.06822C9.59442 5.19377 9.91685 5.39447 10.1858 5.64435C10.5513 5.99443 10.8116 6.44318 10.91 6.94783C10.9407 7.09446 10.9556 7.24842 10.9559 7.40605C10.955 7.77629 10.8696 8.12668 10.7194 8.44193C10.5855 8.7135 10.4035 8.95789 10.1846 9.16592C9.91447 9.42039 9.59263 9.61681 9.22825 9.74236C8.94597 9.84134 8.6387 9.89418 8.32013 9.89357C8.04082 9.89388 7.77252 9.85356 7.51909 9.7778C7.11277 9.65408 6.75226 9.44238 6.45838 9.16409C6.23767 8.95544 6.05474 8.71137 5.92356 8.43949C5.77067 8.12393 5.68709 7.77324 5.68679 7.40269C5.68709 7.24568 5.70255 7.09141 5.73022 6.94478C5.82986 6.44043 6.09014 5.99137 6.46017 5.64191C6.75464 5.36514 7.11486 5.15375 7.52147 5.0337C7.7755 4.95458 8.0435 4.91456 8.3234 4.91456ZM5.88341 4.11451C6.21149 4.11451 6.47712 4.39494 6.47653 4.74074C6.47653 5.08654 6.2106 5.36606 5.88281 5.36575C5.55472 5.36575 5.2891 5.08532 5.28939 4.73952C5.28939 4.39433 5.55532 4.1142 5.88341 4.11451ZM3.26226 3.62391C2.81132 3.50233 2.47728 3.08473 2.47758 2.58344C2.47788 1.98745 2.94845 1.50479 3.52878 1.5051C3.82682 1.5051 4.09423 1.63371 4.2852 1.83838C3.83634 2.35617 3.48624 2.9601 3.26226 3.62391ZM8.14434 18.1204C6.55267 18.1195 5.26352 16.5778 5.26471 14.6768C5.2659 12.7758 6.55684 11.2349 8.1485 11.2359C9.74017 11.2371 11.0296 12.7791 11.0284 14.6798C11.0272 16.5808 9.736 18.1214 8.14434 18.1204Z" fill="#98CCC8"/>
<path d="M7.76627 7.77157C7.774 7.77157 7.91321 7.77157 8.06372 7.69123C8.11667 7.66343 8.17021 7.62524 8.22048 7.57423C8.25944 7.53451 8.29246 7.4893 8.32102 7.44012C8.35017 7.49144 8.38348 7.5394 8.42393 7.58034C8.61163 7.77187 8.85048 7.77187 8.8597 7.77187C9.00486 7.77218 9.12235 7.7398 9.21754 7.68909C9.44122 7.57056 9.53759 7.35123 9.55842 7.2162C9.56853 7.15175 9.52599 7.09187 9.46323 7.08118C9.40047 7.0708 9.34128 7.11448 9.33027 7.17863C9.32402 7.21498 9.25829 7.53513 8.85911 7.53482C8.85732 7.53513 8.70503 7.53299 8.58724 7.41232C8.48848 7.31121 8.43851 7.1545 8.43851 6.94555C8.43851 6.91042 8.43821 6.88262 8.43821 6.85238C8.47896 6.83374 8.52507 6.80595 8.57831 6.76318C8.57831 6.76318 9.08101 6.34437 9.20385 6.01048C9.21605 5.97687 9.22765 5.9506 9.23181 5.92372L9.23598 5.92097C9.23598 5.92097 9.26691 5.73432 9.11224 5.70194C8.96054 5.67017 8.35731 5.45756 7.56876 5.694C7.56876 5.694 7.52979 5.70683 7.50927 5.71966C7.47834 5.73616 7.40278 5.78289 7.40724 5.88615C7.40754 5.88981 7.40724 5.89317 7.40784 5.89714C7.40784 5.89806 7.40784 5.89898 7.40784 5.89959C7.41052 5.93136 7.41884 5.9671 7.43877 6.00773C7.50897 6.1565 7.72195 6.43723 7.93939 6.64435C8.02803 6.73355 8.11964 6.80595 8.20739 6.84871C8.20739 6.87773 8.20769 6.9092 8.20769 6.94463C8.20709 7.51405 7.81327 7.53299 7.76776 7.53329C7.36917 7.53299 7.30403 7.21345 7.29778 7.1768C7.28767 7.11265 7.22877 7.06866 7.16601 7.07874C7.10265 7.08912 7.05982 7.14992 7.06964 7.21437C7.09849 7.40713 7.28231 7.77096 7.76627 7.77157Z" fill="#98CCC8"/>
</svg>
