<svg width="22" height="12" viewBox="0 0 22 12" fill="none" xmlns="http://www.w3.org/2000/svg">
<path d="M21.8045 5.42299C21.8045 5.42299 17.2291 0 11 0C4.7713 0 0.195535 5.42299 0.195535 5.42299C-0.0651784 5.73196 -0.0651784 6.23767 0.195535 6.54701C0.195535 6.54664 4.7713 11.9696 11 11.9696C17.2287 11.9696 21.8041 6.54664 21.8041 6.54664C22.0652 6.23767 22.0652 5.73196 21.8045 5.42299ZM11 10.592C8.4557 10.592 6.39281 8.52948 6.39281 5.98481C6.39281 3.44015 8.4557 1.37763 11 1.37763C13.5443 1.37763 15.6072 3.44052 15.6072 5.98481C15.6072 8.52911 13.5447 10.592 11 10.592Z" />
<path d="M13.1725 5.0209C12.6313 5.0209 12.1922 4.58214 12.1922 4.04051C12.1922 3.89912 12.2224 3.76446 12.2763 3.64327C11.897 3.43605 11.462 3.31822 10.9997 3.31822C9.52704 3.31822 8.33307 4.51219 8.33307 5.98483C8.33307 7.45747 9.52704 8.65181 10.9997 8.65181C12.4723 8.65181 13.6663 7.45784 13.6663 5.9852C13.6663 5.62799 13.5956 5.28723 13.468 4.97564C13.3749 5.00482 13.2754 5.0209 13.1725 5.0209Z" />
</svg>
