<svg width="53" height="55" viewBox="0 0 53 55" fill="none" xmlns="http://www.w3.org/2000/svg">
<path d="M52.5906 19.1001L42.5423 50.0162H10.0483L0 19.1001L26.3012 0L52.5906 19.1001Z" fill="#A78974"/>
<path d="M49.6009 40.2411L22.5167 54.0382L1.0202 32.5417L14.8174 5.44562L44.8556 10.2029L49.6009 40.2411Z" fill="url(#paint0_radial)"/>
<path d="M34.4633 49.9804L10.7957 42.2929V17.4034L34.4751 9.71594L49.1027 29.8482L34.4633 49.9804Z" fill="url(#paint1_linear)"/>
<path d="M19.4323 42.7795L10.25 24.7352L24.5692 10.416L42.6134 19.6102L39.434 39.6119L19.4323 42.7795Z" fill="url(#paint2_linear)"/>
<path d="M17.3207 30.9516L21.5915 17.8188H35.4005L39.6714 30.9516L28.496 39.0662L17.3207 30.9516Z" fill="url(#paint3_linear)"/>
<defs>
<radialGradient id="paint0_radial" cx="0" cy="0" r="1" gradientUnits="userSpaceOnUse" gradientTransform="translate(26.4441 27.8393) rotate(17.5543) scale(26.521 25.8424)">
<stop offset="0.1679" stop-color="#EA5130"/>
<stop offset="0.25" stop-color="#F25F1E"/>
<stop offset="0.3612" stop-color="#F96C0D"/>
<stop offset="0.4829" stop-color="#FE7403"/>
<stop offset="0.6336" stop-color="#FF7700"/>
<stop offset="0.7122" stop-color="#E88129"/>
<stop offset="0.7975" stop-color="#D48B4F"/>
<stop offset="0.8766" stop-color="#C5916A"/>
<stop offset="0.9466" stop-color="#BC967A"/>
<stop offset="1" stop-color="#B99780"/>
</radialGradient>
<linearGradient id="paint1_linear" x1="37.1595" y1="57.7023" x2="24.98" y2="21.1638" gradientUnits="userSpaceOnUse">
<stop stop-color="#EA5130"/>
<stop offset="0.4808" stop-color="#FF7700"/>
<stop offset="1" stop-color="#FFA400"/>
</linearGradient>
<linearGradient id="paint2_linear" x1="46.3271" y1="45.9924" x2="24.2316" y2="24.6333" gradientUnits="userSpaceOnUse">
<stop stop-color="#EA5130"/>
<stop offset="0.4444" stop-color="#FF7700"/>
<stop offset="1" stop-color="#FFB000"/>
</linearGradient>
<linearGradient id="paint3_linear" x1="47.4524" y1="44.6712" x2="23.4441" y2="21.5745" gradientUnits="userSpaceOnUse">
<stop offset="0.2657" stop-color="#FF7700"/>
<stop offset="0.8559" stop-color="#FFBA00"/>
</linearGradient>
</defs>
</svg>
