<svg width="25" height="25" viewBox="0 0 25 25" fill="none" xmlns="http://www.w3.org/2000/svg">
<path d="M0.373738 17.4702L7.28368 24.3801C7.77821 24.8746 8.58079 24.8785 9.08 24.3911L0.362736 15.6738C-0.124643 16.1733 -0.120792 16.9756 0.373738 17.4702Z" fill="#FC9C02"/>
<path d="M15.5022 7.12059L7.1217 15.5011L9.25364 17.633L17.6341 9.25252L15.5022 7.12059Z" fill="#FC9C02"/>
<path d="M0.913242 12.6898L0.84558 12.7574C0.201701 13.4013 0.201701 14.449 0.84558 15.0928L1.06809 15.3154H1.06617L9.43935 23.6885V23.6869L9.66186 23.9094C10.3057 24.5533 11.3531 24.5533 11.9973 23.9091L12.0649 23.8415C12.7088 23.1976 12.7088 22.1499 12.0652 21.5061L3.24892 12.6898C2.60477 12.0459 1.5574 12.0459 0.913242 12.6898Z" fill="#FC9C02"/>
<path d="M12.7585 0.844508L12.6908 0.91217C12.0469 1.55605 12.0469 2.60369 12.6908 3.24757L21.5073 12.0641C22.1512 12.708 23.1986 12.708 23.8428 12.0639L23.9104 11.9962C24.5543 11.3523 24.5543 10.3047 23.9107 9.66079L15.0941 0.844508C14.45 0.200629 13.4026 0.200629 12.7585 0.844508Z" fill="#FC9C02"/>
<path d="M15.672 0.364963L24.3906 9.08085C24.8788 8.58165 24.8755 7.77852 24.3805 7.28371L17.4705 0.373765C16.9752 -0.121591 16.1709 -0.124616 15.672 0.364963Z" fill="#FC9C02"/>
<path d="M2.25569 22.4989C2.71254 22.9557 3.3655 23.142 4.0025 22.9973L4.53223 22.8765L1.87805 20.2224L1.75731 20.7521C1.61236 21.3891 1.79884 22.0421 2.25569 22.4989Z" fill="#FC9C02"/>
<path d="M20.7513 1.75728L20.2216 1.87802L22.8757 4.5322L22.9965 4.00247C23.1414 3.36546 22.955 2.71251 22.4981 2.25566C22.0413 1.79881 21.3883 1.61233 20.7513 1.75728Z" fill="#FC9C02"/>
</svg>
