<svg width="17" height="17" viewBox="0 0 17 17" fill="none" xmlns="http://www.w3.org/2000/svg">
<path fill-rule="evenodd" clip-rule="evenodd" d="M15.7824 1.58253C14.228 -0.215363 10.6098 -0.954589 8.48052 1.94929C8.33824 1.76043 8.24002 1.59064 8.10866 1.46093C6.64748 0.0105243 4.93812 -0.318117 3.09619 0.313753C1.25365 0.94628 0.315302 2.43174 0.0642948 4.47195C-0.225718 6.83752 0.483449 8.86546 1.8268 10.6881C3.50968 12.9728 6.36455 15.2494 8.49387 17C10.4749 15.4731 13.126 13.3131 14.7306 11.327C15.9523 9.81568 16.8349 8.1166 16.9723 6.07069C17.0823 4.43054 16.8996 2.87431 15.7824 1.58253ZM10.0818 12.3105H6.91789L7.69415 8.20752C7.13899 7.89224 6.75964 7.26257 6.75964 6.5367C6.75964 5.49425 7.53854 4.64986 8.49952 4.64986C9.4607 4.64986 10.24 5.49425 10.24 6.5367C10.24 7.26278 9.86025 7.89246 9.30488 8.20752L10.0818 12.3105Z" fill="#FDFBF9"/>
</svg>
