<svg version="1.1" viewBox="0 0 65 63" xmlns="http://www.w3.org/2000/svg">
 <path d="m37.247 5.3545-30.983 14.691 3.9928 33.631 33.847 6.71 16.521-29.564-23.378-25.468z" fill="#004445"/>
 <path d="m38.759 36.096v1.7168c0 0.1826-0.152 0.3306-0.3397 0.3306h-1.4848v1.4449c0 0.1826-0.1521 0.3305-0.3397 0.3305h-1.7643c-0.1877 0-0.3397-0.1479-0.3397-0.3305v-1.4449h-1.5146c-0.1876 0-0.3397-0.148-0.3397-0.3306v-1.7168c0-0.1826 0.1521-0.3306 0.3397-0.3306h1.5146v-1.4738c0-0.1826 0.152-0.3306 0.3397-0.3306h1.7643c0.1876 0 0.3397 0.148 0.3397 0.3306v1.4738h1.4848c0.1877 0 0.3397 0.148 0.3397 0.3306zm5.7281-9.9504v4.1714s-0.0048 0.226-0.021 0.2773c-0.0657 0.2091-0.1184 0.3028-0.4253 0.3669-0.0623 0.0128-0.2716 0.0199-0.2716 0.0199h-0.7431v11.848c0 0.5102-0.4267 0.9257-0.9513 0.9257h-20.175c-0.5243 0-0.95127-0.4152-0.95127-0.9257v-11.848h-0.80876s-0.19216-0.0278-0.22807-0.0423c-0.16186-0.0652-0.2651-0.1386-0.36805-0.3185-0.0561-0.098-0.0561-0.3028-0.0561-0.3028v-4.1632c0.0028-0.1313 0.02974-0.2495 0.08023-0.36061l2.3006-5.4645c0.14672-0.34914 0.49233-0.57463 0.88002-0.57463h18.478c0.3877 0 0.7333 0.22548 0.88 0.57463l2.3051 5.4744c0.0463 0.10128 0.0732 0.21975 0.076 0.34205zm-3.7473-5.5975 2.2482 5.6152h0.6839v-0.0087c-3e-4 -0.0087-0.0039-0.02538-0.0107-0.0404l-2.3093-5.4842c-0.021-0.04968-0.0704-0.08189-0.1256-0.08189zm-4.0783 0 1.0924 5.6152h1.3796l-1.3462-5.6152zm-5.2357 0-0.2536 5.6152h1.6304l-0.2536-5.6152zm-5.2392 0-1.3462 5.6152h1.3796l1.0924-5.6152zm-5.8843 5.6152h0.68393l2.2481-5.6152h-0.48643c-0.05555 0-0.10492 0.03221-0.12568 0.08189 0 0-2.3197 5.5156-2.32 5.5333zm8.2234 6.7893c0-0.2921-0.27099-0.529-0.60538-0.529h-3.9262c-0.33439 0-0.60538 0.2369-0.60538 0.529v9.8123h5.137zm11.936 0c0-0.2921-0.2435-0.529-0.5436-0.529h-8.4411c-0.3002 0-0.5437 0.2369-0.5437 0.529v7.9746c0 0.2921 0.2435 0.5291 0.5437 0.5291h8.4413c0.3002 0 0.5437-0.237 0.5437-0.5291v-7.9746zm3.2101-2.8212v-2.6993h-23.373l-0.0067 2.6968 1.5684 0.0038c0.33439 0 0.60538-0.2369 0.60538-0.52902v-1.2377h1.6534v1.2377c0 0.29212 0.27099 0.52902 0.60538 0.52902h2.9318c0.33439 0 0.60537-0.2369 0.60537-0.52902v-1.2377h1.6534v1.2377c0 0.29212 0.271 0.52902 0.6054 0.52902h2.9315c0.3344 0 0.6054-0.2369 0.6054-0.52902v-1.2377h1.6534v1.2377c0 0.29212 0.271 0.52902 0.6054 0.52902h2.9317c0.3344 0 0.6054-0.2369 0.6054-0.52902v-1.2377h1.6534v1.2377c0 0.29212 0.271 0.52902 0.6054 0.52902z" fill="#d76c50"/>
</svg>
