<svg width="135" height="54" viewBox="0 0 135 54" fill="none" xmlns="http://www.w3.org/2000/svg">
<path d="M42.4585 37.3936H43.1833V38.776L44.491 37.3936H45.3803L44.1174 38.649L45.4999 40.8161H44.6181L43.6093 39.1497L43.1758 39.5906V40.8161H42.451V37.3936H42.4585Z" fill="#A78974"/>
<path d="M50.9624 37.3936H52.6961C52.995 37.3936 53.2341 37.4608 53.406 37.6028C53.5854 37.7448 53.675 37.954 53.675 38.2455C53.675 38.4173 53.6302 38.5668 53.548 38.6864C53.4658 38.8134 53.3462 38.9031 53.2042 38.9703V38.9853C53.406 39.0301 53.5629 39.1273 53.6676 39.2842C53.7722 39.4411 53.8245 39.6354 53.8245 39.8671C53.8245 40.0016 53.8021 40.1286 53.7572 40.2407C53.7124 40.3603 53.6377 40.4574 53.5405 40.5471C53.4434 40.6368 53.3163 40.6965 53.1669 40.7488C53.0174 40.7937 52.8306 40.8236 52.6214 40.8236H50.9774V37.3936H50.9624ZM51.6873 38.791H52.4644C52.6064 38.791 52.7185 38.7536 52.8082 38.6789C52.8979 38.6042 52.9427 38.507 52.9427 38.3725C52.9427 38.2156 52.8979 38.111 52.8157 38.0512C52.7335 37.9914 52.6139 37.9615 52.457 37.9615H51.6798V38.791H51.6873ZM51.6873 40.2556H52.5466C52.726 40.2556 52.8605 40.2108 52.9576 40.1286C53.0473 40.0389 53.0996 39.9194 53.0996 39.7699C53.0996 39.613 53.0548 39.5009 52.9576 39.4187C52.8605 39.3365 52.726 39.2991 52.5466 39.2991H51.6873V40.2556Z" fill="#A78974"/>
<path d="M62.2761 40.0539C62.2761 40.1435 62.2911 40.2108 62.3135 40.2556C62.3359 40.293 62.3807 40.3154 62.448 40.3154H62.5227C62.5526 40.3154 62.59 40.3079 62.6273 40.3005V40.8235C62.6049 40.831 62.5676 40.846 62.5302 40.8534C62.4928 40.8609 62.448 40.8759 62.4032 40.8833C62.3583 40.8908 62.321 40.8983 62.2761 40.9057C62.2313 40.9132 62.2014 40.9132 62.1715 40.9132C62.0221 40.9132 61.9025 40.8833 61.8053 40.8235C61.7082 40.7638 61.6409 40.6517 61.6111 40.5022C61.4691 40.6517 61.2897 40.7563 61.0805 40.8235C60.8713 40.8908 60.6695 40.9207 60.4752 40.9207C60.3257 40.9207 60.1838 40.8983 60.0493 40.8534C59.9147 40.8086 59.7952 40.7488 59.6906 40.6666C59.5859 40.5844 59.5037 40.4798 59.444 40.3528C59.3842 40.2257 59.3543 40.0837 59.3543 39.9119C59.3543 39.7026 59.3917 39.5308 59.4664 39.3963C59.5411 39.2617 59.6383 39.1571 59.7578 39.0824C59.8774 39.0077 60.0119 38.9554 60.1613 38.918C60.3108 38.8881 60.4603 38.8582 60.6172 38.8433C60.7517 38.8134 60.8713 38.7984 60.9908 38.7835C61.1104 38.7685 61.215 38.7536 61.3047 38.7237C61.3943 38.6938 61.4691 38.6565 61.5214 38.6041C61.5737 38.5518 61.6036 38.4696 61.6036 38.3575C61.6036 38.2604 61.5812 38.1782 61.5363 38.1184C61.4915 38.0586 61.4392 38.0063 61.3719 37.9764C61.3047 37.9465 61.2299 37.9241 61.1552 37.9092C61.073 37.9017 60.9983 37.8942 60.9236 37.8942C60.7218 37.8942 60.5499 37.9391 60.4229 38.0287C60.2884 38.1184 60.2137 38.2529 60.1987 38.4397H59.4739C59.4888 38.223 59.5411 38.0362 59.6233 37.8868C59.713 37.7373 59.8251 37.6252 59.9671 37.5355C60.1016 37.4459 60.2585 37.3861 60.4378 37.3487C60.6097 37.3114 60.7891 37.2964 60.9759 37.2964C61.1403 37.2964 61.2972 37.3114 61.4541 37.3487C61.6111 37.3861 61.753 37.4384 61.8801 37.5206C62.0071 37.6028 62.1043 37.6999 62.179 37.827C62.2537 37.954 62.2911 38.1035 62.2911 38.2903V40.0539H62.2761ZM61.5513 39.0973C61.4392 39.1721 61.3047 39.2169 61.1478 39.2319C60.9834 39.2468 60.8264 39.2692 60.662 39.2991C60.5873 39.314 60.5126 39.329 60.4378 39.3589C60.3631 39.3813 60.3033 39.4187 60.2435 39.456C60.1912 39.5009 60.1464 39.5532 60.1165 39.6204C60.0866 39.6877 60.0717 39.7699 60.0717 39.867C60.0717 39.9492 60.0941 40.024 60.1389 40.0763C60.1838 40.1361 60.2435 40.1809 60.3108 40.2108C60.3781 40.2407 60.4453 40.2706 60.5275 40.278C60.6022 40.293 60.677 40.3005 60.7442 40.3005C60.8264 40.3005 60.9086 40.2855 61.0058 40.2706C61.0954 40.2481 61.1851 40.2108 61.2673 40.1585C61.3495 40.1062 61.4168 40.0389 61.4765 39.9567C61.5289 39.8745 61.5587 39.7774 61.5587 39.6578V39.0973H61.5513Z" fill="#A78974"/>
<path d="M68.1647 37.3935H68.8521V37.8568H68.8671C68.9717 37.6551 69.1137 37.5131 69.293 37.4309C69.4724 37.3412 69.6741 37.3039 69.8834 37.3039C70.1449 37.3039 70.3691 37.3487 70.5634 37.4458C70.7577 37.543 70.9146 37.67 71.0417 37.8344C71.1687 37.9988 71.2658 38.1931 71.3256 38.4173C71.3929 38.634 71.4228 38.8731 71.4228 39.1272C71.4228 39.3589 71.3929 39.583 71.3331 39.7998C71.2733 40.0165 71.1911 40.2108 71.0715 40.3752C70.952 40.5396 70.81 40.6741 70.6306 40.7712C70.4513 40.8684 70.2421 40.9207 70.0029 40.9207C69.8983 40.9207 69.7937 40.9132 69.6816 40.8908C69.577 40.8684 69.4724 40.8385 69.3752 40.7936C69.2781 40.7488 69.1884 40.6965 69.1062 40.6218C69.024 40.5545 68.9568 40.4723 68.897 40.3826H68.882V42.0939H68.1572V37.3935H68.1647ZM70.6979 39.1048C70.6979 38.9479 70.6755 38.7984 70.6381 38.6564C70.6008 38.5144 70.541 38.3799 70.4662 38.2678C70.3915 38.1558 70.2944 38.0661 70.1823 37.9988C70.0702 37.9316 69.9357 37.8942 69.7862 37.8942C69.4799 37.8942 69.2482 38.0063 69.0987 38.223C68.9418 38.4472 68.8671 38.7386 68.8671 39.1048C68.8671 39.2767 68.8895 39.4336 68.9269 39.583C68.9642 39.7325 69.024 39.8595 69.1062 39.9642C69.1884 40.0688 69.2856 40.151 69.3976 40.2182C69.5097 40.278 69.6368 40.3079 69.7862 40.3079C69.9506 40.3079 70.0926 40.2705 70.2047 40.2033C70.3168 40.136 70.4139 40.0389 70.4887 39.9268C70.5634 39.8147 70.6157 39.6877 70.6456 39.5457C70.683 39.4037 70.6979 39.2542 70.6979 39.1048Z" fill="#A78974"/>
<path d="M79.7399 37.954H78.6489V40.8161H77.924V37.954H76.7957V37.3936H79.7399V37.954Z" fill="#A78974"/>
<path d="M88.0272 40.0539C88.0272 40.1435 88.0421 40.2108 88.0645 40.2556C88.0869 40.293 88.1318 40.3154 88.199 40.3154H88.2738C88.3037 40.3154 88.3336 40.3079 88.3784 40.3005V40.8235C88.356 40.831 88.3186 40.846 88.2812 40.8534C88.2439 40.8609 88.199 40.8759 88.1542 40.8833C88.1094 40.8908 88.072 40.8983 88.0272 40.9057C87.9823 40.9132 87.945 40.9132 87.9151 40.9132C87.7656 40.9132 87.6461 40.8833 87.5489 40.8235C87.4518 40.7638 87.3845 40.6517 87.3546 40.5022C87.2126 40.6517 87.0333 40.7563 86.8241 40.8235C86.6148 40.8908 86.4131 40.9207 86.2188 40.9207C86.0693 40.9207 85.9273 40.8983 85.7928 40.8534C85.6583 40.8086 85.5388 40.7488 85.4341 40.6666C85.3295 40.5844 85.2473 40.4798 85.1875 40.3528C85.1277 40.2257 85.0979 40.0837 85.0979 39.9119C85.0979 39.7026 85.1352 39.5308 85.2099 39.3963C85.2847 39.2617 85.3818 39.1571 85.5014 39.0824C85.6209 39.0077 85.7555 38.9554 85.9049 38.918C86.0544 38.8881 86.2113 38.8582 86.3607 38.8433C86.4953 38.8134 86.6148 38.7984 86.7344 38.7835C86.8539 38.7685 86.9586 38.7536 87.0482 38.7237C87.1379 38.6938 87.2126 38.6565 87.2649 38.6041C87.3173 38.5518 87.3472 38.4696 87.3472 38.3575C87.3472 38.2604 87.3247 38.1782 87.2799 38.1184C87.2351 38.0586 87.1828 38.0063 87.1155 37.9764C87.0482 37.9465 86.9735 37.9241 86.8988 37.9092C86.8166 37.9017 86.7419 37.8942 86.6671 37.8942C86.4654 37.8942 86.2935 37.9391 86.1665 38.0287C86.0319 38.1184 85.9572 38.2529 85.9423 38.4397H85.2174C85.2324 38.223 85.2847 38.0362 85.3669 37.8868C85.4566 37.7373 85.5686 37.6252 85.7106 37.5355C85.8451 37.4459 86.0021 37.3861 86.1814 37.3487C86.3533 37.3114 86.5326 37.2964 86.7194 37.2964C86.8838 37.2964 87.0408 37.3114 87.1977 37.3487C87.3546 37.3861 87.4966 37.4384 87.6236 37.5206C87.7507 37.6028 87.8478 37.6999 87.9226 37.827C87.9973 37.954 88.0346 38.1035 88.0346 38.2903V40.0539H88.0272ZM87.3023 39.0973C87.1902 39.1721 87.0557 39.2169 86.8913 39.2319C86.7269 39.2468 86.57 39.2692 86.4056 39.2991C86.3309 39.314 86.2561 39.329 86.1814 39.3589C86.1067 39.3813 86.0469 39.4187 85.9871 39.456C85.9348 39.5009 85.89 39.5532 85.8601 39.6204C85.8302 39.6877 85.8152 39.7699 85.8152 39.867C85.8152 39.9492 85.8377 40.024 85.8825 40.0763C85.9273 40.1361 85.9871 40.1809 86.0544 40.2108C86.1216 40.2407 86.1889 40.2706 86.2711 40.278C86.3458 40.293 86.4205 40.3005 86.4878 40.3005C86.57 40.3005 86.6522 40.2855 86.7493 40.2706C86.839 40.2481 86.9287 40.2108 87.0109 40.1585C87.0931 40.1062 87.1603 40.0389 87.2201 39.9567C87.2724 39.8745 87.3023 39.7774 87.3023 39.6578V39.0973Z" fill="#A78974"/>
<path d="M93.7961 40.2706C93.9082 40.2706 94.0128 40.2332 94.11 40.151C94.2071 40.0688 94.2818 39.9567 94.3267 39.8072C94.3491 39.725 94.3715 39.6428 94.3865 39.5606C94.4014 39.4784 94.4164 39.3888 94.4238 39.2991C94.4313 39.2094 94.4388 39.1048 94.4462 38.9852C94.4537 38.8732 94.4537 38.7386 94.4612 38.5892C94.4687 38.4397 94.4687 38.2679 94.4687 38.0736C94.4687 37.8793 94.4687 37.6551 94.4687 37.3861H97.1962V40.8086H96.4713V37.9465H95.2085C95.2085 38.2305 95.2085 38.4846 95.201 38.7013C95.1935 38.918 95.186 39.1123 95.1786 39.2842C95.1711 39.4486 95.1561 39.598 95.1337 39.725C95.1188 39.8521 95.0964 39.9642 95.0665 40.0613C95.0366 40.1734 94.9992 40.278 94.9544 40.3677C94.9095 40.4648 94.8423 40.547 94.7601 40.6143C94.6704 40.6816 94.5583 40.7339 94.4089 40.7787C94.2594 40.8161 94.0726 40.8385 93.8335 40.8385C93.7662 40.8385 93.7064 40.8385 93.6616 40.8385C93.6168 40.8385 93.5719 40.831 93.5196 40.8235V40.2556C93.5645 40.2631 93.6093 40.2706 93.6467 40.2706C93.6765 40.2706 93.7289 40.2706 93.7961 40.2706Z" fill="#A78974"/>
<path d="M33.7154 22.3808L27.386 41.8548H6.91815L0.588745 22.3808L17.1558 10.3497L33.7154 22.3808Z" fill="#A78974"/>
<path d="M31.8322 35.6972L14.772 44.388L1.2314 30.8474L9.92219 13.7797L28.8431 16.7763L31.8322 35.6972Z" fill="url(#paint0_radial)"/>
<path d="M22.297 41.8324L7.38893 36.99V21.3122L22.3045 16.4699L31.5184 29.1511L22.297 41.8324Z" fill="url(#paint1_linear)"/>
<path d="M12.8291 37.2964L7.04519 25.9304L16.0648 16.9108L27.4308 22.7022L25.4281 35.3012L12.8291 37.2964Z" fill="url(#paint2_linear)"/>
<path d="M11.4989 29.8461L14.1891 21.5738H22.8874L25.5776 29.8461L18.5383 34.9575L11.4989 29.8461Z" fill="url(#paint3_linear)"/>
<path d="M50.4244 33.8888H47.5773V27.7612H45.3056V33.8888H42.4585V20.4902H45.3056V25.3625H47.5773V20.4902H50.4244V33.8888Z" fill="#A78974"/>
<path d="M60.2734 33.8888H57.4263V31.3107H55.0948V33.8888H52.2477V31.3107C52.2477 26.3937 53.1445 22.7844 54.9379 20.4828H57.5534C59.3618 22.8815 60.266 26.4908 60.266 31.3107V33.8888H60.2734ZM57.4338 29.0764C57.4338 26.8346 57.0452 24.66 56.2681 22.5452C55.4909 24.66 55.1023 26.8346 55.1023 29.0764H57.4338Z" fill="#A78974"/>
<path d="M70.2421 33.8888H67.395V29.3828C66.7448 31.0268 65.878 32.5288 64.787 33.8888H62.1043V20.4902H64.9514V30.287C65.9976 28.9419 66.7 27.3801 67.0437 25.609C67.2754 24.4134 67.395 22.7096 67.395 20.4902H70.2421V33.8888ZM68.6728 17.9495C68.4038 19.3021 67.5743 19.9746 66.1694 19.9746C64.772 19.9746 63.9351 19.3021 63.6661 17.9495L64.9065 17.6282C64.9813 18.2634 65.2652 18.637 65.7435 18.7341C65.8705 18.7566 66.0125 18.7715 66.162 18.7715C66.6552 18.7715 66.984 18.6445 67.1484 18.3829C67.3053 18.1214 67.4024 17.8673 67.4248 17.6282L68.6728 17.9495Z" fill="#A78974"/>
<path d="M80.4199 20.8713C80.4199 22.9114 79.6652 24.7049 78.1482 26.2592C79.0898 27.2306 79.725 28.4188 80.0612 29.8311C80.3004 30.8101 80.4274 32.1701 80.4274 33.8963H77.5803C77.5803 32.469 77.528 31.4004 77.4308 30.6905C77.2515 29.5098 76.8928 28.516 76.3398 27.7089C75.9064 27.9929 75.5402 28.2021 75.2338 28.3366V33.8963H72.4241V20.4902H75.2264V26.177C76.7956 24.9664 77.5728 23.0683 77.5728 20.4902H80.4199C80.4199 20.5276 80.4199 20.5949 80.4199 20.6845C80.4199 20.7667 80.4199 20.834 80.4199 20.8713Z" fill="#A78974"/>
<path d="M90.4633 25.3176C90.4633 28.6131 89.1929 30.2646 86.6447 30.2646C86.1366 30.2646 85.6359 30.2272 85.1352 30.1525V33.8963H82.3255V20.4902H86.0693C87.6984 20.4902 88.8492 20.9012 89.5292 21.7158C90.1494 22.4481 90.4633 23.6512 90.4633 25.3176ZM87.6162 25.355C87.6162 24.5629 87.5265 24.0099 87.3471 23.6736C87.0931 23.2253 86.5999 23.0085 85.8825 23.0085H85.1352V27.7612C85.5238 27.8285 85.9049 27.8583 86.2935 27.8583C86.8988 27.8583 87.2874 27.5669 87.4667 26.9766C87.5639 26.6777 87.6162 26.1321 87.6162 25.355Z" fill="#A78974"/>
<path d="M99.2811 33.8888H96.434V31.3107H94.1025V33.8888H91.2554V31.3107C91.2554 26.3937 92.1521 22.7844 93.9456 20.4828H96.561C98.3694 22.8815 99.2736 26.4908 99.2736 31.3107V33.8888H99.2811ZM96.4415 29.0764C96.4415 26.8346 96.0529 24.66 95.2757 22.5452C94.4985 24.66 94.11 26.8346 94.11 29.0764H96.4415Z" fill="#A78974"/>
<path d="M114.638 36.183H112.119V33.8888H101.179V20.4902H104.041V31.4154H105.932V20.4902H108.682V31.4154H110.572V20.4902H113.434V31.4154H114.638V36.183Z" fill="#A78974"/>
<path d="M123.859 33.8888H121.012V29.3828C120.362 31.0268 119.495 32.5288 118.404 33.8888H115.721V20.4902H118.568V30.287C119.614 28.9419 120.317 27.3801 120.661 25.6091C120.892 24.4134 121.012 22.7096 121.012 20.4902H123.859V33.8888Z" fill="#A78974"/>
<path d="M134.171 33.8888H131.324V29.3828C130.674 31.0268 129.807 32.5288 128.716 33.8888H126.033V20.4902H128.881V30.287C129.927 28.9419 130.629 27.3801 130.973 25.609C131.205 24.4134 131.324 22.7096 131.324 20.4902H134.171V33.8888ZM132.602 17.9495C132.333 19.3021 131.503 19.9746 130.099 19.9746C128.701 19.9746 127.864 19.3021 127.595 17.9495L128.836 17.6282C128.91 18.2634 129.194 18.637 129.673 18.7341C129.8 18.7566 129.942 18.7715 130.091 18.7715C130.584 18.7715 130.913 18.6445 131.078 18.3829C131.234 18.1214 131.332 17.8673 131.354 17.6282L132.602 17.9495Z" fill="#A78974"/>
<path d="M107.621 16.0738C107.703 15.3938 107.815 14.7063 107.972 14.0338C108.338 12.4645 108.936 11.0522 109.758 9.80422C110.587 8.55628 111.641 7.54746 112.934 6.77029C114.219 6.0006 115.766 5.61202 117.567 5.61202C118.927 5.61202 120.22 5.8362 121.438 6.28457C122.656 6.73293 123.709 7.38306 124.614 8.22748C125.51 9.07937 126.228 10.0882 126.766 11.2614C127.304 12.4346 127.565 13.7424 127.565 15.1921C127.565 15.4984 127.543 15.7824 127.528 16.0738H134.104C134.111 15.8048 134.134 15.5433 134.134 15.2668C134.134 12.7709 133.708 10.5814 132.856 8.68331C132.004 6.78524 130.846 5.20102 129.389 3.93066C127.932 2.66029 126.213 1.68884 124.24 1.00882C122.267 0.336273 120.16 0 117.926 0C115.198 0 112.769 0.478254 110.625 1.41982C108.48 2.36886 106.694 3.67658 105.259 5.35048C103.825 7.02437 102.763 9.00464 102.083 11.2988C101.635 12.8008 101.388 14.4 101.299 16.0738H107.621Z" fill="#FF7836"/>
<path d="M108.921 43.0654C109.87 41.795 111.013 40.6069 112.351 39.5084C113.076 38.918 113.838 38.3426 114.638 37.7896H105.954C105.528 38.2455 105.117 38.7163 104.721 39.2095C103.406 40.8535 102.323 42.7889 101.471 45.0083C100.619 47.2277 100.073 49.9104 99.8266 53.0564H133.633V47.4444H107.06C107.352 45.8004 107.972 44.3358 108.921 43.0654Z" fill="#FF7836"/>
<defs>
<radialGradient id="paint0_radial" cx="0" cy="0" r="1" gradientUnits="userSpaceOnUse" gradientTransform="translate(17.2458 27.8854) rotate(17.5543) scale(16.7055 16.278)">
<stop offset="0.1679" stop-color="#EA5130"/>
<stop offset="0.25" stop-color="#F25F1E"/>
<stop offset="0.3612" stop-color="#F96C0D"/>
<stop offset="0.4829" stop-color="#FE7403"/>
<stop offset="0.6336" stop-color="#FF7700"/>
<stop offset="0.7122" stop-color="#E88129"/>
<stop offset="0.7975" stop-color="#D48B4F"/>
<stop offset="0.8766" stop-color="#C5916A"/>
<stop offset="0.9466" stop-color="#BC967A"/>
<stop offset="1" stop-color="#B99780"/>
</radialGradient>
<linearGradient id="paint1_linear" x1="23.9954" y1="46.6964" x2="16.3236" y2="23.6809" gradientUnits="userSpaceOnUse">
<stop stop-color="#EA5130"/>
<stop offset="0.4808" stop-color="#FF7700"/>
<stop offset="1" stop-color="#FFA400"/>
</linearGradient>
<linearGradient id="paint2_linear" x1="29.77" y1="39.3202" x2="15.8522" y2="25.8662" gradientUnits="userSpaceOnUse">
<stop stop-color="#EA5130"/>
<stop offset="0.4444" stop-color="#FF7700"/>
<stop offset="1" stop-color="#FFB000"/>
</linearGradient>
<linearGradient id="paint3_linear" x1="30.4788" y1="38.488" x2="15.3561" y2="23.9395" gradientUnits="userSpaceOnUse">
<stop offset="0.2657" stop-color="#FF7700"/>
<stop offset="0.8559" stop-color="#FFBA00"/>
</linearGradient>
</defs>
</svg>
