<svg version="1.1" viewBox="0 0 54.361 55.032" xmlns="http://www.w3.org/2000/svg">
 <path d="m30.983 0-30.983 14.691 3.9928 33.631 33.847 6.71 16.521-29.564z" fill="#004445"/>
 <g transform="translate(17.706 14.843)" fill="#98ccc8">
  <path d="m16.186 10.355c-1.3757-1.0594-3.0001-1.1852-4.1351-1.25 0.9726-0.96409 1.5762-2.3 1.5774-3.7776 0-0.25507-0.0241-0.50435-0.0586-0.74995 0.8522-0.23797 1.4804-1.0359 1.4804-1.9862 0.0012-1.1391-0.8977-2.0626-2.0066-2.0632-0.5643-3.06e-4 -1.0735 0.2395-1.4388 0.6241-0.9072-0.71849-2.0512-1.1514-3.2976-1.152-1.2576-6.1096e-4 -2.4117 0.43745-3.3234 1.166-0.36557-0.3956-0.88105-0.64365-1.4542-0.64365-1.1086-6.11e-4 -2.0081 0.92194-2.0084 2.0608-8.9e-4 0.96501 0.64517 1.7733 1.517 1.9984-0.03391 0.24224-0.05741 0.48785-0.05771 0.73926-8.9e-4 1.4165 0.55564 2.701 1.4575 3.6554-1.0265-0.02566-2.2636 0.07637-3.4204 0.75484-1.8103 1.0594-1.1416 3.9926 1.4932 3.7192 0.35814-0.0373 0.69009-0.0993 1.0113-0.1735-0.12969 0.2737-0.25016 0.5743-0.35159 0.914-0.1285 0.4325-0.17996 1.0148-0.08566 1.6324-0.58093 1.8369-0.67701 4.354-0.2689 6.1411 0.60502 2.6479 3.5236 2.3439 3.9103 0.2407 0.16717-0.9036 0.06336-1.9868-0.13891-3.0135 0.48306 0.0986 1.0256 0.1551 1.6357 0.1573 0.59223 0.0024 1.1205-0.0477 1.5928-0.1372-0.18917 1.0322-0.27811 2.1204-0.09726 3.0237 0.41675 2.0968 3.3386 2.357 3.9062-0.2991 0.3664-1.7177 0.2612-4.0974-0.2814-5.9016 0.1359-0.6794 0.091-1.3306-0.0467-1.8041-0.0815-0.282-0.1767-0.5368-0.279-0.7723 0.3825 0.1576 0.7897 0.2902 1.2362 0.3959 2.5804 0.6076 3.5995-2.2165 1.9322-3.4993zm-3.1431-8.8442c0.5797 3e-4 1.0494 0.48357 1.0491 1.0793 0 0.48754-0.3165 0.89444-0.749 1.0279-0.2267-0.669-0.5821-1.2772-1.0375-1.7971 0.1901-0.19123 0.45-0.31037 0.7374-0.31006zm-2.3535 2.607c0.3278 3.1e-4 0.5934 0.28013 0.5932 0.62624 0 0.34549-0.2663 0.62501-0.5938 0.62501-0.3278-3.1e-4 -0.5937-0.28043-0.5931-0.62593 3e-4 -0.3458 0.2662-0.62562 0.5937-0.62532zm-2.3665 0.797c0.31798-3.1e-4 0.62495 0.05468 0.90723 0.15366 0.36379 0.12555 0.68622 0.32625 0.95517 0.57613 0.3655 0.35008 0.6258 0.79883 0.7242 1.3035 0.0307 0.14663 0.0456 0.30059 0.0459 0.45822-9e-4 0.37024-0.0863 0.72063-0.2365 1.0359-0.1339 0.27157-0.3159 0.51596-0.5348 0.72399-0.27013 0.25447-0.59197 0.45089-0.95635 0.57644-0.28228 0.09898-0.58955 0.15182-0.90812 0.15121-0.27931 3.1e-4 -0.54761-0.04001-0.80104-0.11577-0.40632-0.12372-0.76683-0.33542-1.0607-0.61371-0.22071-0.20865-0.40364-0.45272-0.53482-0.7246-0.15289-0.31556-0.23647-0.66625-0.23677-1.0368 3e-4 -0.15701 0.01576-0.31128 0.04343-0.45791 0.09964-0.50435 0.35992-0.95341 0.72995-1.3029 0.29447-0.27677 0.65469-0.48816 1.0613-0.60821 0.25403-0.07912 0.52203-0.11914 0.80193-0.11914zm-2.44-0.80005c0.32808 0 0.59371 0.28043 0.59312 0.62623 0 0.3458-0.26593 0.62532-0.59372 0.62501-0.32809 0-0.59371-0.28043-0.59342-0.62623 0-0.34519 0.26593-0.62532 0.59402-0.62501zm-2.6212-0.4906c-0.45094-0.12158-0.78498-0.53918-0.78468-1.0405 3e-4 -0.59599 0.47087-1.0786 1.0512-1.0783 0.29804 0 0.56545 0.12861 0.75642 0.33328-0.44886 0.51779-0.79896 1.1217-1.0229 1.7855zm4.8821 14.496c-1.5917-9e-4 -2.8808-1.5426-2.8796-3.4436s1.2921-3.4419 2.8838-3.4409c1.5917 0.0012 2.8811 1.5432 2.8799 3.4439-0.0012 1.901-1.2924 3.4416-2.8841 3.4406z"/>
  <path d="m7.7663 7.7716c0.00773 0 0.14694 0 0.29745-0.08034 0.05295-0.0278 0.10649-0.06599 0.15676-0.117 0.03896-0.03972 0.07198-0.08493 0.10054-0.13411 0.02915 0.05132 0.06246 0.09928 0.10291 0.14022 0.1877 0.19153 0.42655 0.19153 0.43577 0.19153 0.14516 3.1e-4 0.26265-0.03207 0.35784-0.08278 0.22368-0.11853 0.32005-0.33786 0.34088-0.47289 0.01011-0.06445-0.03243-0.12433-0.09519-0.13502-0.06276-0.01038-0.12195 0.0333-0.13296 0.09745-0.00625 0.03635-0.07198 0.3565-0.47116 0.35619-0.00179 3.1e-4 -0.15408-0.00183-0.27187-0.1225-0.09876-0.10111-0.14873-0.25782-0.14873-0.46677 0-0.03513-3e-4 -0.06293-3e-4 -0.09317 0.04075-0.01864 0.08686-0.04643 0.1401-0.0892 0 0 0.5027-0.41881 0.62554-0.7527 0.0122-0.03361 0.0238-0.05988 0.02796-0.08676l0.00417-0.00275s0.03093-0.18665-0.12374-0.21903c-0.1517-0.03177-0.75493-0.24438-1.5435-0.00794 0 0-0.03897 0.01283-0.05949 0.02566-0.03093 0.0165-0.10649 0.06323-0.10203 0.16649 3e-4 0.00366 0 0.00702 6e-4 0.01099v0.00245c0.00268 0.03177 0.011 0.06751 0.03093 0.10814 0.0702 0.14877 0.28318 0.4295 0.50062 0.63662 0.08864 0.0892 0.18025 0.1616 0.268 0.20436 0 0.02902 3e-4 0.06049 3e-4 0.09592-6e-4 0.56942-0.39442 0.58836-0.43993 0.58866-0.39859-3e-4 -0.46373-0.31984-0.46998-0.35649-0.01011-0.06415-0.06901-0.10814-0.13177-0.09806-0.06336 0.01038-0.10619 0.07118-0.09637 0.13563 0.02885 0.19276 0.21267 0.55659 0.69663 0.5572z"/>
 </g>
</svg>
