<svg fill="none" version="1.1" viewBox="0 0 54.361 55.032" xmlns="http://www.w3.org/2000/svg">
 <defs>
  <clipPath id="clip0">
   <rect width="20" height="20" fill="#fff"/>
  </clipPath>
 </defs>
 <path d="m30.983 0-30.983 14.691 3.9928 33.631 33.847 6.71 16.521-29.564z" fill="#004445"/>
 <g transform="translate(15.443 18.382)" fill="none">
  <g clip-path="url(#clip0)">
   <path d="m16.759 3.945-1.5737-1.545-5.0913 5.0388c-0.56873-0.67-1.1475-1.3388-1.705-1.9762l4.8513-4.86c0.6262-0.62625 1.6812-0.59125 2.355 0.08l2.5062 2.4875c0.6725 0.67125 0.6375 1.5762 0.01 2.2038l-5.3262 5.3437c-0.3963-0.5112-0.8413-1.0637-1.3138-1.6387zm3.0314 12.357-0.014 0.0049c-0.6505 0.2254-1.919 0.6649-3.376-1.7999-1.4675-2.48-3.4075-1.9037-3.4075-1.9037-0.0893 0.0154-0.1676 0.0426-0.246 0.0698-0.0171 0.0059-0.0343 0.0119-0.0515 0.0177-2.19-3.1188-8.3488-9.9113-8.8913-10.455-0.77875-0.7775-2.0862-1.5075-3.18-0.36125-1.0288 1.0775-0.50125 2.4838 0.2775 3.2625 0.5475 0.5475 7.3775 6.7375 10.495 8.92-0.0514 0.1353-0.0833 0.2771-0.095 0.4213 0 4.5575 4.6613 4.3162 5.625 4.14 1.7188-0.3113 3.51-2.5375 2.8638-2.3163zm-12.773-2.89-0.28375 0.94 0.6075 0.6075-4.7638 2.07-0.9375-0.8988 2.1512-4.5337-0.0225 0.8825 1.2475-0.0175 1.0662-1.0563c-0.6625-0.5625-1.3225-1.1325-1.9525-1.6837l-1.0425 1.0437s-2.89 6.65-3.0863 7.1875c-0.15625 0.425 0.3825 0.9638 0.755 0.7813 0.6-0.2963 7.175-3.15 7.175-3.15l1.46-1.465c-0.57384-0.4474-1.141-0.9033-1.7012-1.3675z" clip-rule="evenodd" fill="#366ad0" fill-rule="evenodd"/>
  </g>
 </g>
</svg>
