<svg width="65" height="63" viewBox="0 0 65 63" fill="none" xmlns="http://www.w3.org/2000/svg">
<path d="M37.2474 5.35447L6.26391 20.0456L10.2567 53.6763L44.1041 60.3863L60.6249 30.8223L37.2474 5.35447Z" fill="#004445"/>
<path fill-rule="evenodd" clip-rule="evenodd" d="M42.1581 44.0491C42.1763 44.2472 42.1633 44.4481 42.1633 44.6772C42.4866 44.6772 42.953 44.6772 43.2869 44.6772C43.2997 44.4004 43.3124 44.1227 43.3279 43.7921C44.2276 43.8866 45.0176 43.9167 45.8538 44.2472C45.8587 44.2949 45.8635 44.3426 45.869 44.391C45.659 44.4611 45.4536 44.5711 45.2382 44.5958C43.9496 44.7419 42.661 44.9437 41.3681 44.9877C38.0197 45.1023 34.6691 45.2056 31.3198 45.1992C27.9237 45.1928 24.5236 45.1324 21.1439 44.7197C20.7705 44.6741 20.4022 44.5836 20.0336 44.5034C19.948 44.4848 19.872 44.4235 19.7198 44.3451C20.1391 44.0115 20.5888 44.0133 21.0044 43.9562C21.7635 43.8516 22.5285 43.7893 23.2924 43.7325C23.5179 43.7155 23.6181 43.6237 23.7026 43.4268C24.4376 41.715 24.8032 39.9229 24.8819 38.0685C24.952 36.424 24.8417 34.7909 24.5273 33.1738C24.5142 33.106 24.496 33.0395 24.4859 32.996C24.0812 33.1391 23.6999 33.3354 23.2958 33.4071C21.377 33.748 19.8158 31.9079 20.4466 30.0611C20.5162 29.8576 20.5043 29.7318 20.3706 29.5595C19.5557 28.5139 19.6708 27.0324 20.6365 26.1251C20.7881 25.9829 20.8516 25.8525 20.8467 25.6423C20.8103 23.9866 22.0485 22.8359 23.6944 22.9644C23.8175 22.9742 23.9891 22.8979 24.0721 22.8037C25.1295 21.6035 26.7119 21.509 27.9061 22.5734C27.9902 22.6487 28.1847 22.6837 28.2886 22.6414C30.2329 21.8514 32.1101 23.2625 31.9129 25.3664C31.902 25.4852 31.9804 25.6599 32.0755 25.7334C33.5261 26.8558 33.5194 28.8242 32.0487 29.9387C31.9141 30.0408 31.8145 30.1134 31.8458 30.33C31.9971 31.3844 31.6276 32.2498 30.7568 32.8483C29.8954 33.4409 28.9698 33.4509 28.0422 32.9644C27.982 32.9328 27.9182 32.907 27.7921 32.8493C27.6797 33.5186 27.5478 34.1488 27.4713 34.7857C27.1282 37.641 27.4175 40.4324 28.3391 43.1601C28.4345 43.4426 28.5672 43.5153 28.8456 43.4967C29.2542 43.47 29.4873 43.49 29.9388 43.49C29.9388 43.889 29.9488 44.3454 29.9488 44.7586C30.2898 44.7586 30.8698 44.7586 31.2144 44.7586C31.2144 44.4381 31.1925 44.081 31.1925 44.081C31.1925 44.081 31.2861 44.0789 31.2232 44.0677C31.3037 44.0874 31.2566 44.0506 31.2566 44.0506C31.2566 44.0506 31.294 43.9747 31.3028 44.0677C31.6152 44.0677 32.1396 44.0944 32.4632 44.0944C32.4763 43.9227 32.4811 43.6678 32.4997 43.4241C35.3662 43.4837 37.9942 43.5289 40.8537 43.5888C40.8883 43.7547 40.864 44.0197 40.8923 44.1521C41.1785 44.1521 41.8239 44.1652 42.039 44.1652C42.0606 44.0409 42.0338 43.6487 42.0338 43.6487C42.0338 43.6487 42.0752 43.6547 42.145 43.6371" fill="#50A342"/>
<path fill-rule="evenodd" clip-rule="evenodd" d="M43.688 41.3446C43.4778 41.3628 43.317 41.3424 43.1247 41.3591C43.1247 42.1735 43.1247 42.9735 43.1247 43.7741C43.1247 43.9154 43.1259 44.0567 43.1265 44.1983C43.128 44.6735 43.1484 44.5559 42.6932 44.5717C42.4033 44.5821 42.2818 44.5936 42.287 44.2949C42.3034 43.3293 42.2934 42.3634 42.2934 41.3673C42.1508 41.3673 42.0314 41.3673 41.8652 41.3673C41.8652 42.1018 41.8695 42.8298 41.8613 43.5578C41.8598 43.6888 41.8279 43.9218 41.7765 43.9315C41.5638 43.9719 41.3356 43.9616 41.1193 43.9276C41.0789 43.9212 41.0479 43.7231 41.0473 43.6131C41.0409 42.8714 41.0436 42.1297 41.0436 41.3616C38.1087 41.3616 35.2012 41.3616 32.2496 41.3616C32.2496 42.2251 32.2496 43.0792 32.2496 43.923C32.1737 43.947 32.1418 43.9637 32.1083 43.9671C31.421 44.0351 31.4143 44.0242 31.421 43.3463C31.4271 42.6891 31.4222 42.0316 31.4222 41.3567C31.2773 41.3567 31.1776 41.3567 31.0306 41.3567C31.0306 42.0595 31.0303 42.7511 31.0312 43.4426C31.0315 43.7261 31.0193 44.0105 31.0424 44.2916C31.0731 44.6632 30.8589 44.6708 30.5788 44.6766C30.295 44.6826 30.1831 44.6121 30.1904 44.304C30.2102 43.4429 30.198 42.5809 30.1968 41.7195C30.1968 41.6047 30.1874 41.4892 30.1816 41.3573C30.0485 41.344 30.0042 41.3482 29.7957 41.3446C29.7957 41.0905 29.8194 40.9486 29.8602 40.7654C30.2962 40.1346 30.7863 39.5111 30.7863 39.5111C30.7863 39.5111 31.4782 39.5178 32.0764 39.5178C35.5938 39.5178 39.1108 39.5218 42.6279 39.5111C42.7567 39.5105 42.9524 39.5111 42.9524 39.5111C42.9524 39.5111 43.104 39.7092 43.1599 39.8481C43.3067 40.2145 43.4981 40.5634 43.6528 40.9268C43.6953 41.0276 43.6759 41.189 43.688 41.3446Z" fill="#50A342"/>
<path fill-rule="evenodd" clip-rule="evenodd" d="M42.9511 37.53C42.9511 37.7831 42.9511 37.8654 42.9511 38.141C38.8981 38.141 34.853 38.141 30.7859 38.141C30.7859 37.8849 30.7859 37.8037 30.7859 37.53C34.8393 37.53 38.8853 37.53 42.9511 37.53Z" fill="#50A342"/>
<path fill-rule="evenodd" clip-rule="evenodd" d="M42.9512 38.5221C42.9512 38.7917 42.9618 38.9102 42.9618 39.1991C42.8378 39.2055 42.7145 39.2183 42.5911 39.2183C38.7824 39.2195 34.9788 39.1861 31.1703 39.2006C31.0081 39.2012 30.7975 39.207 30.7975 39.207C30.7975 39.207 30.7884 39.0867 30.7869 38.9257C30.7854 38.7436 30.7869 38.4987 30.7869 38.4987C30.7869 38.4987 31.0193 38.4981 31.1606 38.4987C34.9694 38.5124 38.7778 38.5063 42.5865 38.5063C42.7017 38.5063 42.8163 38.5161 42.9512 38.5221Z" fill="#50A342"/>
<path fill-rule="evenodd" clip-rule="evenodd" d="M30.8269 36.4265C34.8766 36.4265 38.8972 36.4265 42.9444 36.4265C42.9444 36.6938 42.942 36.8652 42.942 37.1578C42.8013 37.1578 42.6752 37.1578 42.5491 37.1578C38.8206 37.1575 35.0918 37.1578 31.3635 37.1572C31.053 37.1572 30.8178 37.1578 30.8178 37.1578C30.8178 37.1578 30.806 36.8543 30.8269 36.4265Z" fill="#50A342"/>
</svg>

