<svg width="51" height="74" viewBox="0 0 51 74" fill="none" xmlns="http://www.w3.org/2000/svg">
<path d="M25.5 74C8.49879 51.467 0 35.4349 0 25.9C-4.98996e-08 22.4988 0.659576 19.1308 1.94107 15.9885C3.22257 12.8462 5.10088 9.99097 7.46878 7.58594C9.83667 5.1809 12.6478 3.27312 15.7416 1.97152C18.8354 0.669924 22.1513 0 25.5 0C28.8487 0 32.1646 0.669924 35.2584 1.97152C38.3522 3.27312 41.1633 5.1809 43.5312 7.58594C45.8991 9.99097 47.7774 12.8462 49.0589 15.9885C50.3404 19.1308 51 22.4988 51 25.9C51 35.4349 42.5012 51.467 25.5 74Z" fill="#F8B400"/>
<path d="M12.9901 22H15.0141C16.0061 22 16.8381 21.456 16.8381 20.392C16.8381 19.76 16.5021 19.2 15.9021 19.024V19.008C16.3341 18.784 16.6061 18.344 16.6061 17.792C16.6061 16.88 15.9261 16.352 14.9661 16.352H12.9901V22ZM13.7821 18.728V17.04H14.9581C15.4941 17.04 15.7981 17.376 15.7981 17.872C15.7981 18.368 15.4781 18.728 14.9661 18.728H13.7821ZM13.7821 21.312V19.384H15.0541C15.6461 19.384 16.0221 19.776 16.0221 20.344C16.0221 20.928 15.6621 21.312 15.0541 21.312H13.7821ZM17.9823 22H18.7743V16.352H17.9823V22ZM20.9753 21.312C21.6393 20.296 21.7753 18.8 21.7753 17.56V17.04H23.5433V21.312H20.9753ZM19.5753 21.312V23.12H20.3113V22H24.2473V23.12H24.9593V21.312H24.3353V16.352H21.0313V17.512C21.0313 18.744 20.9273 20.208 20.1433 21.312H19.5753ZM26.7332 21.312C27.3972 20.296 27.5332 18.8 27.5332 17.56V17.04H29.3012V21.312H26.7332ZM25.3332 21.312V23.12H26.0692V22H30.0052V23.12H30.7172V21.312H30.0932V16.352H26.7892V17.512C26.7892 18.744 26.6852 20.208 25.9012 21.312H25.3332ZM31.787 22H32.579V16.352H31.787V22ZM33.428 21.336V22.064C34.988 21.976 35.468 20.408 35.468 17.696V17.04H37.22V22H38.012V16.352H34.716V17.688C34.716 19.984 34.38 21.208 33.428 21.336ZM5.01744 34H5.80944V29.04H8.67344V34H9.46544V28.352H5.01744V34ZM10.9549 34H11.7469V31.912H13.0269C14.0589 31.912 14.7949 31.192 14.7949 30.12C14.7949 29.048 14.0589 28.352 13.0269 28.352H10.9549V34ZM11.7469 31.224V29.04H12.9069C13.5709 29.04 13.9949 29.448 13.9949 30.12C13.9949 30.8 13.5709 31.224 12.8989 31.224H11.7469ZM15.4311 31.136C15.4311 32.8 16.7031 34.096 18.3351 34.096C19.9671 34.096 21.2311 32.8 21.2311 31.136C21.2311 29.512 19.9671 28.256 18.3351 28.256C16.7031 28.256 15.4311 29.512 15.4311 31.136ZM16.2471 31.136C16.2471 29.912 17.1751 28.976 18.3351 28.976C19.4871 28.976 20.4151 29.912 20.4151 31.136C20.4151 32.4 19.4871 33.368 18.3351 33.368C17.1751 33.368 16.2471 32.4 16.2471 31.136ZM22.8777 33.312C23.5417 32.296 23.6777 30.8 23.6777 29.56V29.04H25.4457V33.312H22.8777ZM21.4777 33.312V35.12H22.2137V34H26.1497V35.12H26.8617V33.312H26.2377V28.352H22.9337V29.512C22.9337 30.744 22.8297 32.208 22.0457 33.312H21.4777ZM27.3075 34H28.1155L28.6835 32.376H30.8115L31.3795 34H32.1955L30.1715 28.352H29.3315L27.3075 34ZM28.8915 31.72L29.5235 29.936C29.6195 29.64 29.7395 29.128 29.7395 29.128H29.7555C29.7555 29.128 29.8835 29.64 29.9795 29.936L30.6035 31.72H28.8915ZM32.4565 34H33.3445L34.7525 31.416H35.4885V34H36.2725V31.416H37.0165L38.4165 34H39.3125L37.6645 31.048V31.032L39.1925 28.352H38.3285L37.0165 30.728H36.2725V28.352H35.4885V30.728H34.7525L33.4325 28.352H32.5685L34.0965 31.032V31.048L32.4565 34ZM40.1893 34H40.9813V28.352H40.1893V34ZM42.4784 34H44.5024C45.4944 34 46.3264 33.456 46.3264 32.392C46.3264 31.76 45.9904 31.2 45.3904 31.024V31.008C45.8224 30.784 46.0944 30.344 46.0944 29.792C46.0944 28.88 45.4144 28.352 44.4544 28.352H42.4784V34ZM43.2704 30.728V29.04H44.4464C44.9824 29.04 45.2864 29.376 45.2864 29.872C45.2864 30.368 44.9664 30.728 44.4544 30.728H43.2704ZM43.2704 33.312V31.384H44.5424C45.1344 31.384 45.5104 31.776 45.5104 32.344C45.5104 32.928 45.1504 33.312 44.5424 33.312H43.2704Z" fill="#004445"/>
</svg>
