<svg version="1.1" viewBox="0 0 54.361 55.032" xmlns="http://www.w3.org/2000/svg">
 <path d="m30.983 0-30.983 14.691 3.9928 33.631 33.847 6.71 16.521-29.564z" fill="#004445"/>
 <g transform="translate(9.1384 11.345)" fill="#cf82c3">
  <path d="m24 4.125c-1.55 0-3 4.9822-3 10.312 0 3.6738 2 5.1563 2 5.1563v8.25c0 0.5671 0.45 1.0312 1 1.0312s1-0.4641 1-1.0312v-23.01c0-0.70898-0.6875-0.70898-1-0.70898z"/>
  <path d="m18 4.125 0.625 6.7031c0 0.2836-0.225 0.5157-0.5 0.5157s-0.5-0.2321-0.5-0.5157l-0.375-6.7031h-0.5l-0.375 6.7031c0 0.2836-0.225 0.5157-0.5 0.5157s-0.5-0.2321-0.5-0.5157l0.625-6.7031h-0.5s-1.5 6.9094-1.5 8.25 0.8375 2.4879 2 2.9133v12.556c0 0.5671 0.45 1.0312 1 1.0312s1-0.4641 1-1.0312v-12.556c1.1625-0.4254 2-1.5598 2-2.9133s-1.5-8.25-1.5-8.25z"/>
  <path d="m10 4.125c-1.6562 0-3 4.125-3 8.25 0 1.3406 0.8375 2.4879 2 2.9133v12.556c0 0.5671 0.45 1.0312 1 1.0312s1-0.4641 1-1.0312v-12.556c1.1625-0.4254 2-1.5598 2-2.9133 0-4.125-1.3438-8.25-3-8.25z"/>
 </g>
</svg>
