<svg width="60" height="87" viewBox="0 0 60 87" fill="none" xmlns="http://www.w3.org/2000/svg">
<path d="M30 87C9.99857 60.5085 0 41.66 0 30.45C-5.87054e-08 26.4513 0.775972 22.4917 2.28361 18.7973C3.79125 15.1029 6.00104 11.7461 8.7868 8.9186C11.5726 6.09105 14.8797 3.84812 18.5195 2.31787C22.1593 0.787613 26.0603 0 30 0C33.9397 0 37.8407 0.787613 41.4805 2.31787C45.1203 3.84812 48.4274 6.09105 51.2132 8.9186C53.999 11.7461 56.2087 15.1029 57.7164 18.7973C59.224 22.4917 60 26.4513 60 30.45C60 41.66 50.0014 60.5085 30 87ZM30 47.85C34.5466 47.85 38.9069 46.0168 42.1218 42.7537C45.3367 39.4905 47.1429 35.0648 47.1429 30.45C47.1429 25.8352 45.3367 21.4095 42.1218 18.1463C38.9069 14.8832 34.5466 13.05 30 13.05C25.4534 13.05 21.0931 14.8832 17.8782 18.1463C14.6633 21.4095 12.8571 25.8352 12.8571 30.45C12.8571 35.0648 14.6633 39.4905 17.8782 42.7537C21.0931 46.0168 25.4534 47.85 30 47.85Z" fill="#2C786C"/>
<path d="M56.5906 25.1001L46.5423 56.0162H14.0483L4 25.1001L30.3012 6L56.5906 25.1001Z" fill="#A78974"/>
<path d="M53.6009 46.2411L26.5167 60.0382L5.0202 38.5417L18.8174 11.4456L48.8556 16.2029L53.6009 46.2411Z" fill="url(#paint0_radial)"/>
<path d="M38.4633 55.9804L14.7957 48.2929V23.4034L38.4751 15.7159L53.1027 35.8482L38.4633 55.9804Z" fill="url(#paint1_linear)"/>
<path d="M23.4323 48.7795L14.25 30.7352L28.5692 16.416L46.6134 25.6102L43.434 45.6119L23.4323 48.7795Z" fill="url(#paint2_linear)"/>
<path d="M21.3207 36.9516L25.5915 23.8188H39.4005L43.6714 36.9516L32.496 45.0662L21.3207 36.9516Z" fill="url(#paint3_linear)"/>
<defs>
<radialGradient id="paint0_radial" cx="0" cy="0" r="1" gradientUnits="userSpaceOnUse" gradientTransform="translate(30.4441 33.8393) rotate(17.5543) scale(26.521 25.8424)">
<stop offset="0.1679" stop-color="#EA5130"/>
<stop offset="0.25" stop-color="#F25F1E"/>
<stop offset="0.3612" stop-color="#F96C0D"/>
<stop offset="0.4829" stop-color="#FE7403"/>
<stop offset="0.6336" stop-color="#FF7700"/>
<stop offset="0.7122" stop-color="#E88129"/>
<stop offset="0.7975" stop-color="#D48B4F"/>
<stop offset="0.8766" stop-color="#C5916A"/>
<stop offset="0.9466" stop-color="#BC967A"/>
<stop offset="1" stop-color="#B99780"/>
</radialGradient>
<linearGradient id="paint1_linear" x1="41.1595" y1="63.7023" x2="28.98" y2="27.1638" gradientUnits="userSpaceOnUse">
<stop stop-color="#EA5130"/>
<stop offset="0.4808" stop-color="#FF7700"/>
<stop offset="1" stop-color="#FFA400"/>
</linearGradient>
<linearGradient id="paint2_linear" x1="50.3271" y1="51.9924" x2="28.2316" y2="30.6333" gradientUnits="userSpaceOnUse">
<stop stop-color="#EA5130"/>
<stop offset="0.4444" stop-color="#FF7700"/>
<stop offset="1" stop-color="#FFB000"/>
</linearGradient>
<linearGradient id="paint3_linear" x1="51.4524" y1="50.6712" x2="27.4441" y2="27.5745" gradientUnits="userSpaceOnUse">
<stop offset="0.2657" stop-color="#FF7700"/>
<stop offset="0.8559" stop-color="#FFBA00"/>
</linearGradient>
</defs>
</svg>
