<svg version="1.1" viewBox="0 0 54.361 55.032" xmlns="http://www.w3.org/2000/svg">
 <path d="m30.983 0-30.983 14.691 3.9928 33.631 33.847 6.71 16.521-29.564z" fill="#004445"/>
 <g transform="translate(13.257 15.502)" fill="#fc9c02">
  <path d="m0.37374 17.47 6.9099 6.9099c0.49453 0.4945 1.2971 0.4984 1.7963 0.011l-8.7173-8.7173c-0.48738 0.4995-0.48353 1.3018 0.011002 1.7964z"/>
  <path d="m15.502 7.1206-8.3805 8.3805 2.1319 2.1319 8.3805-8.3805z"/>
  <path d="m0.91324 12.69-0.067662 0.0676c-0.64388 0.6439-0.64388 1.6916 0 2.3354l0.22251 0.2226h-0.00192l8.3732 8.3731v-0.0016l0.22251 0.2225c0.64384 0.6439 1.6912 0.6439 2.3354-3e-4l0.0676-0.0676c0.6439-0.6439 0.6439-1.6916 3e-4 -2.3354l-8.8163-8.8163c-0.64415-0.6439-1.6915-0.6439-2.3357 0z"/>
  <path d="m12.758 0.84451-0.0677 0.067662c-0.6439 0.64388-0.6439 1.6915 0 2.3354l8.8165 8.8165c0.6439 0.6439 1.6913 0.6439 2.3355-2e-4l0.0676-0.0677c0.6439-0.6439 0.6439-1.6915 3e-4 -2.3354l-8.8166-8.8163c-0.6441-0.64388-1.6915-0.64388-2.3356 0z"/>
  <path d="m15.672 0.36496 8.7186 8.7159c0.4882-0.4992 0.4849-1.3023-0.0101-1.7971l-6.91-6.9099c-0.4953-0.49536-1.2996-0.49838-1.7985-0.008802z"/>
  <path d="m2.2557 22.499c0.45685 0.4568 1.1098 0.6431 1.7468 0.4984l0.52973-0.1208-2.6542-2.6541-0.12074 0.5297c-0.14495 0.637 0.04153 1.29 0.49838 1.7468z"/>
  <path d="m20.751 1.7573-0.5297 0.12074 2.6541 2.6542 0.1208-0.52973c0.1449-0.63701-0.0415-1.29-0.4984-1.7468-0.4568-0.45685-1.1098-0.64333-1.7468-0.49838z"/>
 </g>
</svg>
