<svg version="1.1" viewBox="0 0 54.361 55.032" xmlns="http://www.w3.org/2000/svg">
 <path d="m30.983 0-30.983 14.691 3.9928 33.631 33.847 6.71 16.521-29.564z" fill="#004445"/>
 <g transform="translate(16.384 12.417)" fill="none">
  <path d="m18.995 24.97-0.8771-17.804c-0.0244-0.49537-0.4137-0.88388-0.8856-0.88388h-2.5883v-0.87492c0-2.9815-2.3081-5.4072-5.145-5.4072-2.8368 0-5.1446 2.4256-5.1446 5.4072v0.87492h-2.5883c-0.47199 0-0.86136 0.38851-0.88579 0.88388l-0.87937 17.854c-0.012514 0.2552 0.075148 0.5047 0.24261 0.69 0.1674 0.1853 0.39992 0.2903 0.64312 0.2903h17.225c4e-4 1e-4 8e-4 1e-4 0.0012 0 0.4898 0 0.8868-0.4173 0.8868-0.932-1e-4 -0.0331-0.0016-0.0656-0.0048-0.0976zm-13.377-14.915c-0.52459 0-0.94999-0.44713-0.94999-0.99849 0-0.55135 0.4254-0.99845 0.94999-0.99845 0.5246 0 0.95 0.4471 0.95 0.99845 0 0.55136-0.4254 0.99849-0.95 0.99849zm6.3876-3.7728h-5.0127v-0.87492c0-1.4526 1.1243-2.6342 2.5062-2.6342 1.3822 0 2.5064 1.1816 2.5064 2.6342zm1.3762 3.7728c-0.5246 0-0.95-0.44713-0.95-0.99849 0-0.55135 0.4254-0.99845 0.95-0.99845 0.5245 0 0.9499 0.4471 0.9499 0.99845 0 0.55136-0.4254 0.99849-0.9499 0.99849z" fill="#8893c8"/>
 </g>
</svg>
