<svg version="1.1" viewBox="0 0 54.361 55.032" xmlns="http://www.w3.org/2000/svg">
 <path d="m30.983 0-30.983 14.691 3.9928 33.631 33.847 6.71 16.521-29.564z" fill="#004445"/>
 <g transform="translate(15.578 16.261)" fill="#ddab32">
  <path d="m18.78 18.51h-18.78v3.0563h18.78z"/>
  <path d="m9.7767 0-9.7767 6.186v1.8189h19.12v-1.8189z"/>
  <path d="m1.9509 16.875v1.0732h4.0373v-1.0732h-0.53568v-7.2h0.53568v-1.0732h-4.0373v1.0732h0.53568v7.2z"/>
  <path d="m7.4895 16.875v1.0732h4.0373v-1.0732h-0.5357v-7.2h0.5357v-1.0732h-4.0373v1.0732h0.53545v7.2z"/>
  <path d="m13.028 16.875v1.0732h4.0375v-1.0732h-0.5357v-7.2h0.5357v-1.0732h-4.0375v1.0732h0.5356v7.2z"/>
 </g>
</svg>
