<svg width="18" height="26" viewBox="0 0 18 26" fill="none" xmlns="http://www.w3.org/2000/svg">
<path d="M8.66342 25.2027C2.88739 17.5285 0 12.0683 0 8.82094C-1.6953e-08 7.66255 0.224086 6.51552 0.659463 5.44531C1.09484 4.37511 1.73298 3.40269 2.53746 2.58359C3.34193 1.76449 4.29698 1.11475 5.34807 0.671454C6.39917 0.22816 7.52572 0 8.66342 0C9.80111 0 10.9277 0.22816 11.9788 0.671454C13.0299 1.11475 13.9849 1.76449 14.7894 2.58359C15.5939 3.40269 16.232 4.37511 16.6674 5.44531C17.1028 6.51552 17.3268 7.66255 17.3268 8.82094C17.3268 12.0683 14.4394 17.5285 8.66342 25.2027ZM8.66342 13.8615C9.97638 13.8615 11.2356 13.3304 12.164 12.3851C13.0924 11.4398 13.6139 10.1578 13.6139 8.82094C13.6139 7.4841 13.0924 6.20202 12.164 5.25674C11.2356 4.31146 9.97638 3.7804 8.66342 3.7804C7.35046 3.7804 6.09127 4.31146 5.16287 5.25674C4.23446 6.20202 3.71289 7.4841 3.71289 8.82094C3.71289 10.1578 4.23446 11.4398 5.16287 12.3851C6.09127 13.3304 7.35046 13.8615 8.66342 13.8615Z" fill="#F8B400"/>
</svg>
