<svg width="18" height="26" viewBox="0 0 18 26" fill="none" xmlns="http://www.w3.org/2000/svg">
<path d="M8.66342 26C2.88739 18.3258 0 12.8657 0 9.6183C-1.6953e-08 8.45992 0.224086 7.31288 0.659463 6.24267C1.09484 5.17247 1.73298 4.20006 2.53746 3.38096C3.34193 2.56186 4.29698 1.91211 5.34807 1.46882C6.39917 1.02552 7.52572 0.797363 8.66342 0.797363C9.80111 0.797363 10.9277 1.02552 11.9788 1.46882C13.0299 1.91211 13.9849 2.56186 14.7894 3.38096C15.5939 4.20006 16.232 5.17247 16.6674 6.24267C17.1028 7.31288 17.3268 8.45992 17.3268 9.6183C17.3268 12.8657 14.4394 18.3258 8.66342 26ZM8.66342 14.6588C9.97638 14.6588 11.2356 14.1278 12.164 13.1825C13.0924 12.2372 13.6139 10.9551 13.6139 9.6183C13.6139 8.28147 13.0924 6.99939 12.164 6.0541C11.2356 5.10882 9.97638 4.57776 8.66342 4.57776C7.35046 4.57776 6.09127 5.10882 5.16287 6.0541C4.23446 6.99939 3.71289 8.28147 3.71289 9.6183C3.71289 10.9551 4.23446 12.2372 5.16287 13.1825C6.09127 14.1278 7.35046 14.6588 8.66342 14.6588Z" fill="#2C786C"/>
</svg>
