<svg width="214" height="147" viewBox="0 0 214 147" fill="none" xmlns="http://www.w3.org/2000/svg">
<path d="M8.37391 118.114C7.10704 118.141 5.8471 117.92 4.66523 117.462C3.66415 117.065 2.7643 116.449 2.03132 115.66C1.34315 114.877 0.82737 113.958 0.517577 112.962C0.166064 111.881 -0.0077563 110.751 0.00290354 109.614C0.00398676 108.582 0.177958 107.558 0.517577 106.583C0.841993 105.58 1.35589 104.65 2.03132 103.841C2.75983 102.997 3.65713 102.316 4.66523 101.841C5.82656 101.304 7.09503 101.04 8.37391 101.068H9.88762C10.3352 101.046 10.7836 101.087 11.2197 101.19C11.6436 101.311 12.0523 101.326 12.461 101.417L13.7175 101.735C13.7472 102.294 13.8078 102.85 13.8991 103.401C14 104.058 14.1362 104.724 14.3078 105.402C14.1818 105.469 14.0417 105.505 13.8991 105.507C13.7787 105.527 13.6561 105.527 13.5358 105.507C13.479 105.486 13.4291 105.449 13.3918 105.401C13.3544 105.353 13.3309 105.296 13.3239 105.235C13.1132 104.289 12.5776 103.447 11.8101 102.856C10.992 102.355 10.044 102.107 9.08533 102.144C8.1367 102.126 7.19436 102.302 6.31521 102.659C5.54821 102.974 4.86058 103.455 4.30194 104.068C3.72787 104.703 3.29451 105.451 3.03039 106.265C2.7388 107.187 2.59572 108.147 2.60654 109.113C2.58954 110.206 2.76373 111.293 3.12122 112.326C3.44264 113.242 3.92447 114.094 4.54413 114.841C5.11776 115.528 5.82958 116.085 6.6331 116.478C7.43055 116.863 8.30579 117.06 9.19132 117.053C9.80731 117.078 10.4237 117.016 11.023 116.872C11.4756 116.753 11.8984 116.542 12.2642 116.25C12.6003 115.97 12.8824 115.632 13.0968 115.251C13.3427 114.797 13.5552 114.326 13.7326 113.841C13.7823 113.723 13.8671 113.623 13.9754 113.555C14.0838 113.488 14.2104 113.455 14.3381 113.462H14.6106L14.8225 113.553C14.6257 114.144 14.4138 114.795 14.217 115.492C14.013 116.19 13.8463 116.899 13.7175 117.613C12.8899 117.745 12.0473 117.851 11.1895 117.932C10.3316 118.012 9.39316 118.074 8.37391 118.114Z" class="comfort-life-logo-fill"/>
<path d="M19.5903 109.599C19.5779 108.457 19.794 107.323 20.2261 106.265C20.6269 105.27 21.2066 104.355 21.9366 103.569C22.6536 102.797 23.5117 102.169 24.4646 101.72C25.4106 101.271 26.4448 101.038 27.4921 101.038C28.8022 101.013 30.1042 101.25 31.3218 101.735C32.3234 102.141 33.2266 102.756 33.9707 103.54C34.7149 104.324 35.2827 105.259 35.636 106.28C35.99 107.319 36.169 108.411 36.1658 109.508C36.187 110.731 35.9658 111.946 35.5149 113.083C35.1082 114.089 34.4932 114.996 33.7104 115.745C32.9276 116.496 31.9948 117.07 30.9736 117.432C29.912 117.821 28.7891 118.017 27.6586 118.008C26.5348 118.021 25.4191 117.815 24.3738 117.402C23.4082 117.015 22.5361 116.426 21.8155 115.675C21.0836 114.898 20.5172 113.981 20.1504 112.978C19.7665 111.893 19.5768 110.749 19.5903 109.599ZM28.2641 116.872C29.0101 116.879 29.7489 116.725 30.4287 116.417C31.0769 116.123 31.6549 115.695 32.1241 115.159C32.6361 114.611 33.0371 113.967 33.3048 113.266C33.5733 112.485 33.7064 111.666 33.6984 110.841C33.7027 109.703 33.5706 108.568 33.3048 107.462C33.0658 106.494 32.6557 105.575 32.0938 104.751C31.6002 104.004 30.936 103.386 30.1562 102.947C29.3145 102.497 28.3705 102.273 27.4164 102.295C26.7358 102.294 26.0617 102.428 25.4334 102.689C24.8057 102.949 24.2387 103.336 23.7682 103.826C23.2681 104.356 22.8772 104.978 22.6178 105.66C22.3206 106.458 22.1767 107.307 22.1939 108.159C22.1874 109.329 22.3247 110.494 22.6027 111.629C22.8394 112.613 23.2384 113.55 23.7834 114.401C24.2771 115.166 24.9467 115.799 25.7361 116.25C26.5109 116.673 27.382 116.887 28.2641 116.872Z" class="comfort-life-logo-fill"/>
<path d="M57.874 101.872L57.9952 101.675C58.0456 101.601 58.1207 101.547 58.2071 101.523L58.6158 101.433C58.8526 101.415 59.0904 101.415 59.3273 101.433H62.0671C62.0799 101.569 62.0799 101.706 62.0671 101.842C62.0671 102.114 61.9762 102.251 61.8097 102.266C61.3862 102.295 60.9735 102.415 60.5987 102.615C60.5033 102.676 60.4254 102.762 60.3725 102.862C60.3195 102.963 60.2931 103.076 60.296 103.19V103.857C60.2909 104.575 60.3263 105.293 60.4019 106.008C60.5079 107.008 60.523 108.342 60.5987 110.008C60.6744 111.675 60.7652 113.75 60.8712 116.22C60.8677 116.357 60.8959 116.492 60.9537 116.616C61.0116 116.739 61.0973 116.847 61.2042 116.932C61.5876 117.142 62.0101 117.272 62.4455 117.311C62.4866 117.317 62.5256 117.333 62.5597 117.357C62.5938 117.38 62.622 117.411 62.6423 117.447C62.6647 117.537 62.6647 117.63 62.6423 117.72C62.6548 117.856 62.6548 117.993 62.6423 118.129L61.0377 118.039H56.769C56.7564 117.903 56.7564 117.766 56.769 117.63C56.769 117.357 56.8598 117.22 57.0263 117.22C57.5016 117.146 57.9649 117.008 58.4039 116.811C58.5235 116.744 58.6215 116.645 58.6859 116.524C58.7504 116.403 58.7786 116.266 58.7672 116.129V115.19C58.7789 114.491 58.7435 113.792 58.6612 113.099C58.5552 112.281 58.5704 111.387 58.5401 110.417C58.5098 109.447 58.4493 108.553 58.419 107.705C58.3887 106.857 58.419 106.19 58.313 105.508C58.2071 104.826 58.313 104.523 58.313 104.387L52.7121 117.66C52.6607 117.783 52.5946 117.9 52.5153 118.008C52.4864 118.044 52.4493 118.072 52.4072 118.091C52.365 118.109 52.319 118.118 52.2731 118.114H52.0461L45.87 103.917V105.145C45.8827 105.913 45.8473 106.683 45.7641 107.448C45.6581 108.327 45.6732 109.281 45.6278 110.281C45.5824 111.281 45.537 112.19 45.4916 113.038C45.4462 113.887 45.4916 114.553 45.3856 115.16C45.366 115.462 45.366 115.766 45.3856 116.069C45.3856 116.584 45.9558 116.947 47.0962 117.16C47.2627 117.16 47.3535 117.311 47.3535 117.569C47.3661 117.705 47.3661 117.842 47.3535 117.978L46.0214 117.887H43.7659L42.4792 117.978C42.4666 117.842 42.4666 117.705 42.4792 117.569C42.4792 117.326 42.57 117.205 42.7365 117.16C43.0479 117.089 43.3483 116.977 43.6297 116.826C43.7631 116.755 43.876 116.651 43.9582 116.523C44.0403 116.396 44.0887 116.25 44.0989 116.099V114.826C44.0845 113.991 44.1249 113.156 44.22 112.327C44.3411 111.356 44.3109 110.342 44.3563 109.296C44.4017 108.251 44.4471 107.22 44.4925 106.266C44.5379 105.311 44.4925 104.583 44.5985 103.993V103.084C44.604 102.966 44.5774 102.848 44.5214 102.744C44.4654 102.641 44.3822 102.553 44.2806 102.493C43.9027 102.315 43.4991 102.197 43.0847 102.144C42.9182 102.144 42.8274 101.993 42.8274 101.72C42.8152 101.584 42.8152 101.447 42.8274 101.311H45.8549C46.0917 101.293 46.3296 101.293 46.5664 101.311L46.9751 101.402C47.0613 101.426 47.1365 101.48 47.187 101.554L47.3081 101.75L52.7121 114.357L57.874 101.872Z" class="comfort-life-logo-fill"/>
<path d="M70.3941 103.234C70.4069 103.09 70.3762 102.945 70.3061 102.819C70.236 102.692 70.1296 102.588 70.0005 102.523C69.5552 102.335 69.0869 102.207 68.6079 102.144C68.5626 102.147 68.5176 102.135 68.4795 102.11C68.4413 102.086 68.412 102.05 68.3959 102.007C68.3775 101.912 68.3775 101.815 68.3959 101.72C68.3834 101.584 68.3834 101.447 68.3959 101.311L70.0156 101.402H78.3866C78.977 101.402 79.3857 101.326 79.5977 101.326C79.8096 101.326 79.9458 101.462 80.0215 101.75C80.1143 102.077 80.1802 102.412 80.2183 102.75C80.2461 103.163 80.3068 103.574 80.3999 103.977C80.4543 104.368 80.5718 104.746 80.7481 105.098C80.699 105.164 80.6299 105.212 80.5513 105.234H80.2334C80.1502 105.244 80.0665 105.226 79.9934 105.186C79.9203 105.145 79.8615 105.082 79.8247 105.008C79.6523 104.607 79.4552 104.217 79.2343 103.841C79.0635 103.544 78.8434 103.276 78.5834 103.053C78.3297 102.848 78.0357 102.698 77.7206 102.614C77.3095 102.514 76.8871 102.468 76.4642 102.478H72.7858V109.144H76.5399C76.6967 109.151 76.8514 109.107 76.982 109.019C77.1126 108.933 77.2121 108.806 77.2665 108.659C77.4266 108.279 77.5433 107.883 77.6146 107.477C77.6332 107.374 77.6907 107.282 77.7752 107.219C77.8597 107.158 77.9648 107.13 78.0687 107.144C78.2045 107.127 78.3417 107.127 78.4775 107.144C78.4739 107.57 78.4435 107.995 78.3866 108.416V110.705C78.374 111.172 78.4095 111.639 78.4926 112.098C78.367 112.114 78.2398 112.114 78.1142 112.098C78.0047 112.124 77.8906 112.124 77.7811 112.098C77.7336 112.071 77.6943 112.031 77.6677 111.983C77.6411 111.935 77.628 111.881 77.6298 111.826C77.5727 111.424 77.4606 111.03 77.2967 110.659C77.243 110.51 77.144 110.382 77.0137 110.292C76.8834 110.202 76.7282 110.156 76.5701 110.159H72.8161V116.023C72.8161 116.356 73.028 116.584 73.467 116.72C73.963 116.863 74.469 116.969 74.9807 117.038C75.1775 117.038 75.2835 117.204 75.2835 117.477C75.2976 117.619 75.2976 117.76 75.2835 117.902H70.0611L68.5473 117.992C68.5348 117.856 68.5348 117.719 68.5473 117.583C68.5473 117.325 68.6381 117.189 68.8046 117.174C69.2521 117.073 69.6921 116.942 70.1216 116.78C70.2678 116.734 70.3945 116.64 70.482 116.514C70.5697 116.388 70.6132 116.237 70.606 116.083L70.3941 103.234Z" class="comfort-life-logo-fill"/>
<path d="M85.4095 109.599C85.3977 108.457 85.6134 107.323 86.0456 106.265C86.4661 105.282 87.0611 104.384 87.8012 103.614C88.5012 102.83 89.3437 102.188 90.2845 101.72C91.2303 101.27 92.2642 101.037 93.3115 101.038C94.6216 101.013 95.924 101.25 97.1417 101.735C98.1362 102.142 99.0325 102.757 99.771 103.539C100.509 104.32 101.073 105.25 101.425 106.265C101.78 107.304 101.959 108.395 101.955 109.492C101.976 110.716 101.755 111.931 101.304 113.068C100.897 114.074 100.282 114.981 99.4999 115.73C98.7169 116.48 97.7837 117.055 96.7632 117.417C95.7016 117.806 94.5788 118.002 93.4475 117.992C92.3238 118.005 91.2085 117.799 90.1628 117.387C89.1969 117 88.3249 116.411 87.6049 115.66C86.8731 114.883 86.3066 113.965 85.9399 112.962C85.5681 111.881 85.3885 110.742 85.4095 109.599ZM94.0836 116.872C94.8297 116.879 95.5682 116.725 96.248 116.417C96.8967 116.123 97.474 115.695 97.944 115.159C98.4266 114.594 98.7967 113.94 99.0333 113.235C99.3035 112.456 99.4361 111.635 99.4269 110.811C99.4378 109.674 99.3103 108.539 99.0484 107.432C98.8252 106.478 98.4358 105.57 97.8979 104.751C97.4044 104.004 96.7406 103.386 95.9609 102.947C95.1192 102.497 94.1751 102.273 93.2209 102.295C92.5403 102.294 91.8664 102.428 91.2378 102.689C90.6101 102.949 90.0428 103.336 89.5728 103.826C89.0718 104.355 88.6807 104.978 88.4223 105.66C88.1252 106.458 87.9808 107.307 87.9985 108.159C87.9909 109.329 88.1285 110.494 88.4072 111.629C88.6388 112.611 89.0332 113.549 89.5728 114.402C90.0562 115.154 90.71 115.782 91.4804 116.235C92.2743 116.681 93.1731 116.906 94.0836 116.887V116.872Z" class="comfort-life-logo-fill"/>
<path d="M113.955 110.432H112.093V115.992C112.082 116.158 112.127 116.322 112.22 116.46C112.314 116.597 112.45 116.7 112.608 116.75C113.099 116.915 113.607 117.021 114.122 117.068C114.319 117.068 114.425 117.25 114.425 117.508C114.439 117.649 114.439 117.791 114.425 117.932L112.775 117.841H109.354L107.734 117.932C107.722 117.796 107.722 117.659 107.734 117.523C107.734 117.28 107.825 117.159 108.006 117.114C108.471 117.06 108.925 116.937 109.354 116.75C109.482 116.68 109.588 116.574 109.659 116.445C109.728 116.316 109.759 116.169 109.748 116.023V103.234C109.757 103.092 109.728 102.95 109.665 102.822C109.601 102.693 109.503 102.585 109.384 102.508C108.939 102.293 108.455 102.169 107.961 102.144C107.795 102.144 107.704 101.992 107.704 101.72C107.691 101.584 107.691 101.447 107.704 101.311L109.217 101.402H114.138C115.609 101.293 117.07 101.717 118.255 102.599C118.698 103.001 119.047 103.496 119.277 104.048C119.507 104.601 119.613 105.197 119.587 105.796C119.585 106.191 119.524 106.584 119.405 106.962C119.272 107.381 119.078 107.78 118.83 108.144C118.549 108.552 118.207 108.915 117.816 109.219C117.36 109.571 116.848 109.843 116.302 110.022L120.51 115.886C120.775 116.28 121.141 116.593 121.57 116.795C121.922 116.952 122.286 117.078 122.66 117.174C122.811 117.174 122.886 117.325 122.886 117.523C122.901 117.674 122.901 117.826 122.886 117.977L121.479 117.887H119.965C119.564 117.868 119.183 117.707 118.89 117.432C118.496 117.092 118.149 116.7 117.861 116.265L113.955 110.432ZM113.426 109.402C114.391 109.463 115.349 109.203 116.151 108.659C116.502 108.326 116.771 107.916 116.936 107.461C117.102 107.006 117.16 106.519 117.104 106.037C117.112 105.551 117.045 105.066 116.907 104.599C116.784 104.176 116.567 103.788 116.272 103.462C115.947 103.123 115.548 102.863 115.106 102.704C114.542 102.507 113.947 102.415 113.35 102.431H112.093V109.402H113.426Z" class="comfort-life-logo-fill"/>
<path d="M134.725 102.431V115.917C134.715 116.086 134.756 116.254 134.843 116.4C134.929 116.546 135.057 116.663 135.21 116.735C135.727 116.941 136.274 117.063 136.83 117.099C137.011 117.099 137.102 117.235 137.102 117.508C137.115 117.649 137.115 117.791 137.102 117.932L135.407 117.841H131.804L130.078 117.932C130.063 117.791 130.063 117.649 130.078 117.508C130.078 117.265 130.169 117.144 130.335 117.099C130.895 117.044 131.444 116.916 131.97 116.72C132.126 116.654 132.259 116.542 132.348 116.398C132.437 116.254 132.48 116.086 132.47 115.917V102.431H129.866C129.437 102.422 129.009 102.473 128.595 102.583C128.269 102.672 127.965 102.826 127.702 103.038C127.437 103.257 127.216 103.524 127.051 103.826C126.869 104.144 126.672 104.523 126.476 104.932C126.462 104.972 126.44 105.009 126.412 105.04C126.383 105.071 126.348 105.097 126.309 105.113H126.097C125.923 105.119 125.752 105.066 125.613 104.962C125.779 104.356 125.9 103.826 125.991 103.341L126.218 102.159C126.266 101.916 126.337 101.677 126.43 101.447C126.456 101.371 126.505 101.305 126.57 101.259C126.635 101.213 126.713 101.188 126.794 101.189H140.508C140.59 101.189 140.669 101.216 140.735 101.265C140.8 101.314 140.848 101.383 140.872 101.462C140.964 101.703 141.035 101.951 141.083 102.205C141.13 102.603 141.201 102.997 141.295 103.386C141.388 103.901 141.519 104.407 141.689 104.902L141.446 105.008C141.357 105.027 141.264 105.027 141.174 105.008H140.947C140.905 104.993 140.867 104.968 140.836 104.937C140.804 104.905 140.78 104.867 140.765 104.825C140.601 104.447 140.413 104.077 140.205 103.72C140.043 103.42 139.828 103.154 139.569 102.932C139.312 102.719 139.013 102.565 138.691 102.478C138.277 102.367 137.849 102.315 137.42 102.326L134.725 102.431Z" class="comfort-life-logo-fill"/>
<path d="M158.675 115.992C158.667 116.12 158.7 116.247 158.768 116.355C158.836 116.464 158.935 116.548 159.053 116.599C159.38 116.732 159.73 116.794 160.082 116.78H162.837C163.264 116.787 163.689 116.721 164.094 116.584C164.431 116.466 164.74 116.28 165.002 116.038C165.268 115.781 165.492 115.484 165.668 115.159C165.874 114.781 166.046 114.385 166.182 113.977C166.216 113.922 166.267 113.879 166.327 113.855C166.387 113.829 166.453 113.825 166.516 113.841C166.605 113.822 166.698 113.822 166.788 113.841L167.076 113.977C166.954 114.477 166.849 115.023 166.743 115.583C166.637 116.144 166.531 116.78 166.455 117.493C166.458 117.558 166.445 117.624 166.419 117.684C166.393 117.745 166.354 117.797 166.304 117.841C166.204 117.866 166.1 117.866 166.001 117.841H164.926C164.553 117.822 164.179 117.822 163.807 117.841H155.92L154.224 117.932C154.211 117.796 154.211 117.659 154.224 117.523C154.224 117.28 154.315 117.159 154.481 117.114C154.968 117.052 155.442 116.92 155.889 116.72C156.009 116.656 156.108 116.56 156.176 116.442C156.243 116.323 156.275 116.189 156.268 116.053V103.234C156.282 103.093 156.257 102.95 156.196 102.822C156.134 102.693 156.039 102.585 155.92 102.508C155.489 102.31 155.028 102.187 154.558 102.144C154.516 102.137 154.477 102.122 154.443 102.099C154.409 102.075 154.38 102.044 154.36 102.007C154.338 101.918 154.338 101.824 154.36 101.735C154.348 101.594 154.348 101.452 154.36 101.311L156.056 101.402H159.28L160.991 101.311C161.004 101.447 161.004 101.584 160.991 101.72C160.991 102.002 160.899 102.154 160.718 102.174C160.169 102.218 159.628 102.341 159.114 102.538C158.947 102.613 158.808 102.737 158.716 102.895C158.624 103.052 158.582 103.234 158.599 103.417L158.675 115.992Z" class="comfort-life-logo-fill"/>
<path d="M175.595 116.053C175.579 116.191 175.603 116.33 175.665 116.453C175.728 116.577 175.824 116.68 175.943 116.75C176.364 116.936 176.806 117.069 177.26 117.144C177.427 117.144 177.518 117.31 177.518 117.553C177.53 117.689 177.53 117.826 177.518 117.962L176.004 117.871H172.977L171.463 117.962C171.45 117.826 171.45 117.689 171.463 117.553C171.463 117.31 171.553 117.189 171.72 117.144C172.175 117.082 172.618 116.954 173.037 116.765C173.156 116.691 173.253 116.585 173.314 116.459C173.375 116.333 173.4 116.192 173.385 116.053V103.234C173.4 103.093 173.374 102.95 173.313 102.822C173.252 102.693 173.156 102.585 173.037 102.508C172.622 102.313 172.176 102.189 171.72 102.144C171.677 102.139 171.636 102.122 171.6 102.095C171.566 102.068 171.539 102.033 171.523 101.992C171.506 101.902 171.506 101.81 171.523 101.72C171.511 101.584 171.511 101.447 171.523 101.311L173.037 101.402H176.064L177.669 101.311C177.682 101.447 177.682 101.584 177.669 101.72C177.669 101.977 177.578 102.114 177.412 102.144C176.955 102.189 176.51 102.312 176.094 102.508C175.975 102.585 175.879 102.693 175.818 102.822C175.757 102.95 175.732 103.093 175.747 103.234L175.595 116.053Z" class="comfort-life-logo-fill"/>
<path d="M184.753 103.234C184.767 103.09 184.736 102.945 184.666 102.819C184.596 102.692 184.489 102.588 184.36 102.523C183.915 102.335 183.447 102.208 182.968 102.144C182.922 102.147 182.877 102.135 182.839 102.11C182.801 102.086 182.772 102.05 182.755 102.007C182.737 101.912 182.737 101.815 182.755 101.72C182.742 101.584 182.742 101.447 182.755 101.311L184.375 101.402H192.746C193.337 101.402 193.746 101.326 193.957 101.326C194.169 101.326 194.305 101.462 194.381 101.75C194.475 102.077 194.54 102.412 194.578 102.75C194.606 103.163 194.666 103.574 194.759 103.977C194.814 104.368 194.931 104.746 195.108 105.098C195.058 105.164 194.989 105.212 194.911 105.234H194.654C194.57 105.245 194.486 105.229 194.412 105.188C194.338 105.148 194.279 105.084 194.245 105.008C194.072 104.607 193.875 104.217 193.654 103.841C193.484 103.544 193.264 103.276 193.004 103.053C192.75 102.847 192.456 102.698 192.141 102.614C191.73 102.514 191.308 102.467 190.885 102.478H187.13V109.144H190.885C191.038 109.147 191.19 109.103 191.318 109.015C191.445 108.929 191.543 108.804 191.595 108.659C191.751 108.279 191.862 107.882 191.929 107.477C191.947 107.374 192.005 107.282 192.089 107.219C192.174 107.158 192.279 107.13 192.383 107.144C192.519 107.127 192.656 107.127 192.791 107.144C192.803 107.57 192.773 107.996 192.701 108.416C192.655 108.835 192.655 109.256 192.701 109.674V110.705C192.688 111.172 192.723 111.639 192.806 112.098C192.681 112.114 192.554 112.114 192.428 112.098C192.319 112.123 192.205 112.123 192.096 112.098C192.048 112.071 192.008 112.031 191.982 111.983C191.955 111.935 191.942 111.881 191.944 111.826C191.888 111.424 191.776 111.03 191.611 110.659C191.557 110.51 191.458 110.382 191.328 110.292C191.198 110.202 191.042 110.156 190.885 110.159H187.13V116.023C187.13 116.356 187.342 116.584 187.781 116.72C188.277 116.863 188.783 116.969 189.295 117.038C189.492 117.038 189.597 117.204 189.597 117.477C189.611 117.619 189.611 117.76 189.597 117.902H184.375L182.862 117.992C182.847 117.856 182.847 117.719 182.862 117.583C182.862 117.325 182.952 117.189 183.119 117.174C183.566 117.073 184.006 116.942 184.436 116.78C184.582 116.734 184.709 116.64 184.796 116.514C184.883 116.388 184.927 116.237 184.92 116.083L184.753 103.234Z" class="comfort-life-logo-fill"/>
<path d="M204.553 102.431V108.902H208.488C208.647 108.907 208.803 108.862 208.934 108.772C209.065 108.681 209.163 108.552 209.215 108.401C209.375 108.017 209.493 107.615 209.563 107.204C209.582 107.101 209.639 107.009 209.723 106.947C209.808 106.885 209.913 106.858 210.017 106.871H210.411C210.422 107.292 210.391 107.713 210.32 108.129C210.274 108.542 210.274 108.958 210.32 109.371V110.416C210.307 110.883 210.342 111.351 210.426 111.811H210.047C209.94 111.825 209.831 111.798 209.741 111.737C209.652 111.676 209.588 111.583 209.563 111.477C209.492 111.067 209.375 110.665 209.215 110.28C209.16 110.133 209.061 110.006 208.93 109.919C208.8 109.833 208.645 109.789 208.488 109.796H204.553V115.75C204.553 116.098 204.78 116.341 205.234 116.462C205.971 116.607 206.723 116.668 207.474 116.644H208.897C209.331 116.655 209.762 116.583 210.168 116.432C210.518 116.297 210.84 116.102 211.122 115.856C211.409 115.604 211.658 115.314 211.864 114.993C212.096 114.636 212.308 114.266 212.499 113.886C212.499 113.765 212.682 113.704 212.878 113.704C212.969 113.708 213.057 113.734 213.136 113.781L213.408 113.932C213.237 114.301 213.105 114.687 213.015 115.083L212.697 116.356C212.611 116.705 212.505 117.049 212.379 117.387C212.268 117.669 212.131 117.811 211.97 117.811H201.858L200.344 117.902C200.332 117.766 200.332 117.629 200.344 117.493C200.344 117.25 200.435 117.129 200.602 117.083C201.074 117.012 201.537 116.884 201.979 116.705C202.114 116.643 202.227 116.542 202.302 116.415C202.379 116.287 202.413 116.14 202.403 115.992V103.234C202.417 103.096 202.391 102.956 202.327 102.831C202.262 102.708 202.162 102.605 202.039 102.538C201.583 102.349 201.105 102.216 200.617 102.144C200.45 102.144 200.359 101.962 200.359 101.72C200.354 101.649 200.354 101.578 200.359 101.507C200.354 101.442 200.354 101.376 200.359 101.311L202.176 101.417H210.411L211.516 101.341C211.727 101.341 211.879 101.477 211.955 101.765C212.045 102.093 212.11 102.427 212.151 102.765C212.179 103.183 212.24 103.599 212.333 104.007C212.386 104.397 212.515 104.773 212.712 105.113C212.581 105.213 212.421 105.266 212.258 105.265C212.172 105.275 212.086 105.258 212.01 105.218C211.935 105.176 211.873 105.114 211.834 105.038C211.632 104.604 211.44 104.23 211.258 103.916C211.089 103.622 210.868 103.361 210.608 103.144C210.351 102.931 210.051 102.777 209.729 102.689C209.315 102.579 208.887 102.528 208.458 102.538L204.553 102.431Z" class="comfort-life-logo-fill"/>
<path d="M55.6169 146.235V140.477H57.5242C57.9098 140.458 58.2955 140.515 58.6592 140.645C59.0229 140.775 59.3573 140.975 59.6435 141.235C60.1515 141.822 60.4312 142.572 60.4312 143.348C60.4312 144.125 60.1515 144.876 59.6435 145.463C59.3595 145.726 59.0258 145.931 58.6618 146.063C58.2978 146.196 57.9111 146.254 57.5242 146.235H55.6169ZM56.4192 145.538H57.5242C58.0851 145.554 58.6294 145.348 59.0379 144.963C59.2393 144.746 59.3943 144.49 59.4932 144.211C59.5921 143.932 59.633 143.637 59.6132 143.341C59.6468 143.072 59.625 142.799 59.5489 142.539C59.473 142.278 59.3445 142.036 59.1714 141.827C58.9984 141.619 58.7844 141.448 58.5428 141.325C58.3011 141.202 58.0369 141.131 57.7664 141.114H56.3737L56.4192 145.538Z" class="comfort-life-logo-fill"/>
<path d="M65.9587 146.205V140.478H69.3647V141.114H66.8367V142.918H68.8803V143.615H66.8367V145.463H69.3647V146.16L65.9587 146.205Z" class="comfort-life-logo-fill"/>
<path d="M76.4464 146.205L74.3574 140.463H75.2203L76.6432 144.509L76.8703 145.296C76.9254 145.029 76.9963 144.766 77.0822 144.509L78.5959 140.463H79.4436L77.3547 146.205H76.4464Z" class="comfort-life-logo-fill"/>
<path d="M84.666 146.236V140.478H88.0111V141.114H85.4682V142.918H87.5268V143.615H85.4682V145.463H88.147V146.16L84.666 146.236Z" class="comfort-life-logo-fill"/>
<path d="M93.6573 146.205V140.463H94.4596V145.508H97.0326V146.205H93.6573Z" class="comfort-life-logo-fill"/>
<path d="M101.59 143.296C101.49 142.852 101.49 142.392 101.591 141.948C101.692 141.504 101.892 141.089 102.175 140.733C102.459 140.377 102.819 140.09 103.229 139.893C103.639 139.695 104.088 139.593 104.542 139.593C104.997 139.593 105.446 139.695 105.855 139.893C106.266 140.09 106.626 140.377 106.909 140.733C107.192 141.089 107.393 141.504 107.493 141.948C107.595 142.392 107.595 142.852 107.494 143.296C107.595 143.74 107.595 144.201 107.493 144.645C107.393 145.088 107.192 145.503 106.909 145.859C106.626 146.215 106.266 146.503 105.855 146.7C105.446 146.897 104.997 147 104.542 147C104.088 147 103.639 146.897 103.229 146.7C102.819 146.503 102.459 146.215 102.175 145.859C101.892 145.503 101.692 145.088 101.591 144.645C101.49 144.201 101.49 143.74 101.59 143.296ZM102.423 143.296C102.407 143.894 102.624 144.477 103.029 144.918C103.224 145.121 103.46 145.283 103.72 145.393C103.98 145.504 104.26 145.561 104.542 145.561C104.825 145.561 105.104 145.504 105.364 145.393C105.625 145.283 105.86 145.121 106.056 144.918C106.46 144.477 106.678 143.894 106.662 143.296C106.663 142.732 106.446 142.188 106.056 141.781C105.653 141.381 105.109 141.157 104.542 141.157C103.975 141.157 103.431 141.381 103.029 141.781C102.633 142.186 102.41 142.729 102.408 143.296H102.423Z" class="comfort-life-logo-fill"/>
<path d="M113.047 146.204V140.461H115.15C115.389 140.45 115.627 140.487 115.851 140.571C116.074 140.655 116.279 140.782 116.453 140.946C116.621 141.117 116.753 141.322 116.838 141.546C116.925 141.77 116.963 142.009 116.952 142.25C116.962 142.492 116.924 142.734 116.837 142.96C116.752 143.186 116.621 143.393 116.453 143.568C116.283 143.734 116.081 143.863 115.86 143.949C115.639 144.036 115.403 144.076 115.166 144.067H113.864V146.188L113.047 146.204ZM113.849 143.385H115.045C115.194 143.393 115.344 143.37 115.484 143.318C115.625 143.266 115.754 143.186 115.862 143.083C115.965 142.974 116.044 142.844 116.096 142.704C116.148 142.564 116.172 142.414 116.165 142.265C116.173 142.117 116.149 141.97 116.097 141.831C116.045 141.694 115.965 141.568 115.862 141.462C115.757 141.35 115.631 141.261 115.49 141.201C115.349 141.142 115.197 141.112 115.045 141.113H113.864L113.849 143.385Z" class="comfort-life-logo-fill"/>
<path d="M122.102 146.205L122.616 140.478H123.449L124.766 143.508L125.038 144.281C125.145 143.979 125.235 143.721 125.326 143.508L126.643 140.478H127.475L127.93 146.205H127.158L126.885 142.63V141.781L126.582 142.63L125.432 145.206H124.721L123.585 142.63L123.282 141.766C123.299 142.053 123.299 142.342 123.282 142.63L123.01 146.236L122.102 146.205Z" class="comfort-life-logo-fill"/>
<path d="M133.636 146.145V140.478H136.936V141.114H134.453V142.933H136.482V143.615H134.453V145.433H137.088V146.115L133.636 146.145Z" class="comfort-life-logo-fill"/>
<path d="M142.643 146.205V140.478H143.43L145.988 144.145L146.457 144.978V140.432H147.245V146.16H146.457L143.899 142.447L143.43 141.614V146.16L142.643 146.205Z" class="comfort-life-logo-fill"/>
<path d="M154.495 146.189V141.114H152.527V140.417H157.25V141.114H155.282V146.129L154.495 146.189Z" class="comfort-life-logo-fill"/>
<path d="M135.181 24.7802V21.5984L125.977 17.9469L119.589 15.4772V45.9924H117.47V13.0528L125.977 16.3257V14.4772L117.47 10.5226L114.927 7.18923H98.3972L95.8536 10.5226L87.3464 14.4772V16.3257L95.8536 13.0528V45.9924H93.7496V15.4772L87.3464 17.9469L78.1431 21.5984V24.7802L62.5667 28.8711V67.4774L89.1482 78.7653H104.089V71.4168H109.236V78.8562H124.131L150.712 67.5683V28.856L135.181 24.7802ZM121.391 27.8863V24.4469L143.885 29.3863V31.2499L123.177 27.7499V61.7955L121.391 62.3258V27.8863ZM143.885 33.3409V58.8258L135.105 61.4016V32.1893L143.885 33.3409ZM132.305 31.8257V62.1288L127.264 63.644V31.1742L132.305 31.8257ZM100.168 10.0529H113.171L114.503 13.0832H98.8361L100.168 10.0529ZM106.662 52.2197H100.607V47.3258H112.596V52.2197H106.662ZM112.717 55.1591V60.0531H100.729V55.1591H112.717ZM107.782 44.4015H100.729V20.0075C100.729 18.8105 102.03 18.0377 105.663 18.0377H107.782C111.415 18.0377 112.717 18.8105 112.717 20.0075V44.4015H107.782ZM69.4996 29.4166L91.994 24.4469V62.3258L90.2073 61.8106V27.7651L69.4996 31.2954V29.4166ZM86.1505 63.6744L81.11 62.1592V31.856L86.1505 31.2045V63.6744ZM69.4996 33.3712L78.2793 32.2196V61.4168L69.4996 58.841V33.3712ZM64.0198 30.6439L67.3652 29.9166V58.2501L64.0198 57.2652V30.6439ZM149.425 66.0077L124.237 76.2804H112.747V67.644L106.692 65.8259L100.637 67.644V76.2804H89.1482L63.9593 66.0077V59.2955L89.1482 67.2501H98.3972V65.735L106.737 63.2955L115.048 65.6895V67.2046H124.131L149.38 59.2955L149.425 66.0077ZM149.425 57.25L146.08 58.2349V29.9015L149.425 30.6288V57.25ZM111.748 5.88619L109.099 0.961922C107.586 0.961922 107.177 0.204346 106.707 0.204346C106.238 0.204346 105.86 0.961922 104.315 0.961922L101.667 5.88619H111.748Z" class="comfort-life-logo-fill"/>
<path d="M178.87 129.372H34.1251V129.523H178.87V129.372Z" class="comfort-life-logo-fill"/>
</svg>
