<svg width="19" height="22" viewBox="0 0 19 22" fill="none" xmlns="http://www.w3.org/2000/svg">
<path d="M8.9399 0C6.06734 0 3.72284 2.27859 3.72284 5.08861C3.72284 6.00145 3.97728 6.85407 4.40882 7.59408C4.41213 7.61427 4.41907 7.63367 4.4293 7.6513L8.8221 15.0583C8.83662 15.083 8.85723 15.1036 8.88192 15.1178C8.9066 15.1321 8.93452 15.1396 8.96291 15.1396C8.99131 15.1396 9.01923 15.1321 9.04391 15.1178C9.0686 15.1036 9.08921 15.083 9.10373 15.0583L13.4353 7.64614C13.4388 7.6428 13.4422 7.63931 13.4454 7.63566V7.63051H13.4505V7.62519C13.4567 7.61539 13.4618 7.60497 13.4659 7.59408C13.8969 6.8544 14.1468 6.00095 14.1468 5.08861C14.1468 2.29073 11.8315 0.0246172 8.97578 0.00515629C8.96349 0.00507313 8.95218 0 8.9399 0ZM8.93482 1.08116C11.1476 1.08116 12.9488 2.8383 12.9488 4.99513C12.9488 7.15197 11.1476 8.90395 8.93482 8.90395C6.72204 8.90395 4.92081 7.15197 4.92081 4.99513C4.92081 2.8383 6.72204 1.08116 8.93482 1.08116Z" fill="#F8B400"/>
<path d="M13.2076 16.328L4.78509 16.3232L0 21.458H18.7894L13.2076 16.328Z" fill="#F8B400"/>
<path d="M6.52419 7.21438H8.18855L8.19649 7.12677V6.05757C8.19649 6.05757 8.19649 5.29389 8.83781 5.29389C9.47938 5.29389 9.54043 5.99651 9.54043 5.99651V7.21413H11.3061V4.82977H11.8841C12.0015 4.82977 12.0141 4.7717 11.9124 4.70171L9.09965 2.74821C8.99814 2.67748 8.83309 2.67872 8.73332 2.75168L7.64327 3.53497V2.74349H6.9749V4.01422L6.52444 4.33861L6.02359 4.69848C5.92332 4.77046 5.93722 4.83002 6.05387 4.83002H6.52444V7.21438H6.52419Z" fill="#F8B400"/>
</svg>
