<svg width="15" height="19" viewBox="0 0 15 19" fill="none" xmlns="http://www.w3.org/2000/svg">
<path d="M11.7893 1.76937C10.1809 0.793835 8.07868 1.30873 7.10335 2.9168C6.47261 3.95673 6.44451 5.25093 7.02318 6.31728L2.22682 14.2253C2.20414 14.2627 2.19801 14.3077 2.20901 14.3502L2.70271 16.215C2.72424 16.2957 2.8038 16.3468 2.88599 16.3325L4.80041 16.0026C4.84642 15.9951 4.88657 15.9674 4.91093 15.9273L5.66113 14.6904C5.70722 14.6144 5.68312 14.5154 5.60661 14.469L4.96076 14.0772L5.64199 12.9541L6.28783 13.3458C6.36417 13.3921 6.46317 13.368 6.50958 13.2915L7.53517 11.6005C7.58127 11.5245 7.55716 11.4255 7.48066 11.3791L6.83481 10.9874L7.60842 9.71193L8.47242 10.236C8.54876 10.2823 8.64776 10.2582 8.69417 10.1817L9.959 8.09627C11.1709 8.11783 12.3056 7.49482 12.9368 6.45419C13.9119 4.84647 13.3974 2.7447 11.7893 1.76937ZM9.27839 5.9093C8.60291 5.4996 8.38578 4.61789 8.79485 3.94344C9.20476 3.26761 10.0878 3.05104 10.7634 3.46084C11.4389 3.87053 11.6549 4.7537 11.245 5.42952C10.836 6.10398 9.95388 6.31899 9.27839 5.9093Z" fill="#F8B400"/>
</svg>
