<svg width="15" height="18" viewBox="0 0 15 18" fill="none" xmlns="http://www.w3.org/2000/svg">
<path d="M11.07 11.9781C10.5146 12.6446 9.77417 13.2369 8.81156 13.5887C8.34877 13.7553 7.84895 13.8478 7.34914 13.8478C6.84932 13.8478 6.36802 13.7738 5.90523 13.6072C4.94262 13.274 4.18364 12.6816 3.62829 11.9967C2.83229 12.4224 1.44391 13.1999 0 14.2551C1.64754 16.5135 4.33173 17.9944 7.34914 17.9944C10.3665 17.9944 13.0507 16.5135 14.6983 14.2366C13.2544 13.1814 11.866 12.4039 11.07 11.9781Z" fill="#F8B400"/>
<path d="M2.6286 8.05361C2.73967 8.42385 2.92479 9.12729 3.36907 9.53455C3.70228 10.7563 4.66489 12.1817 6.21987 12.7371C6.5901 12.8666 6.97885 12.9407 7.38611 12.9407C7.77485 12.9407 8.1636 12.8666 8.53383 12.7371C10.0888 12.1817 11.0514 10.7748 11.3846 9.53455C11.8289 9.12729 12.014 8.42385 12.1251 8.05361C12.2917 7.46124 12.4583 6.62821 12.014 6.03584C11.9955 6.01733 11.977 5.99881 11.9585 5.96179C11.9955 5.75816 12.014 5.55453 12.0325 5.36942C12.5509 1.88922 10.6256 1.66708 10.4035 1.66708C10.385 1.66708 10.385 1.64857 10.3665 1.64857C10.1443 0.741498 8.84853 -0.202598 7.62676 0.0380543C6.4235 0.297218 3.90591 0.00103094 3.90591 0.00103094C3.86889 0.53787 4.33168 0.908103 4.33168 0.908103C2.20283 2.20392 2.59158 4.98067 2.79521 5.96179C2.7767 5.9803 2.75819 5.99882 2.73967 6.03584C2.29539 6.62821 2.462 7.46124 2.6286 8.05361ZM3.7393 6.42458C3.75782 6.42458 3.77633 6.42458 3.79484 6.42458V6.40607C3.7393 6.22095 3.48014 5.16579 4.38721 4.53639C5.12768 4.703 6.23838 4.74002 7.75634 4.09211C10.6812 2.83332 10.9403 6.42458 10.9403 6.42458C10.9589 6.42458 10.9774 6.42458 10.9959 6.42458C11.2921 6.42458 11.6068 6.66524 11.2736 7.81296C11.0144 8.72003 10.7737 8.9792 10.6071 8.9792C10.4405 10.0529 9.60751 11.4227 8.23764 11.904C7.95997 11.9966 7.66378 12.0521 7.36759 12.0521C7.07141 12.0521 6.77522 11.9966 6.49755 11.904C5.14619 11.4227 4.29465 10.0529 4.12805 8.9792C3.94293 8.96068 3.70228 8.72003 3.46163 7.81296C3.12842 6.64672 3.44312 6.42458 3.7393 6.42458Z" fill="#F8B400"/>
</svg>
