<svg width="13" height="13" viewBox="0 0 13 13" fill="none" xmlns="http://www.w3.org/2000/svg">
<path d="M12.8194 10.81L10.9865 12.6281C10.716 12.9056 10.3573 12.9996 10.0081 13C8.46356 12.9537 7.00364 12.195 5.80496 11.416C3.83738 9.9846 2.03205 8.20972 0.898995 6.06485C0.464427 5.16543 -0.0454764 4.01784 0.00324112 3.01393C0.00758528 2.63628 0.109354 2.26564 0.375323 2.02221L2.20817 0.190286C2.58877 -0.133447 2.95683 -0.0215165 3.20039 0.35557L4.67492 3.15168C4.83012 3.48293 4.74109 3.83785 4.50954 4.07455L3.83428 4.74946C3.79259 4.80656 3.76605 4.87156 3.76538 4.94231C4.02431 5.94463 4.80877 6.86846 5.50175 7.50424C6.19473 8.14003 6.93961 9.00138 7.9065 9.2053C8.02602 9.23863 8.17241 9.25034 8.25792 9.17086L9.04344 8.37198C9.31423 8.16674 9.7052 8.06642 9.99429 8.23424H10.0081L12.6678 9.80446C13.0582 10.0492 13.0989 10.5222 12.8194 10.81Z" fill="#F8B400"/>
</svg>
